<?xml version="1.0" encoding="UTF-8" standalone="no"?><svg xmlns="http://www.w3.org/2000/svg" xmlns:xlink="http://www.w3.org/1999/xlink" contentScriptType="application/ecmascript" contentStyleType="text/css" height="1160px" preserveAspectRatio="none" style="width:316px;height:1160px;" version="1.1" viewBox="0 0 316 1160" width="316px" zoomAndPan="magnify"><defs><filter height="300%" id="fbgqs2eh3o413" width="300%" x="-1" y="-1"><feGaussianBlur result="blurOut" stdDeviation="2.0"/><feColorMatrix in="blurOut" result="blurOut2" type="matrix" values="0 0 0 0 0 0 0 0 0 0 0 0 0 0 0 0 0 0 .4 0"/><feOffset dx="4.0" dy="4.0" in="blurOut2" result="blurOut3"/><feBlend in="SourceGraphic" in2="blurOut3" mode="normal"/></filter></defs><g><text fill="#000000" font-family="sans-serif" font-size="18" lengthAdjust="spacing" textLength="292" x="12" y="28.6855">Activity - Add EXPENSE Transaction</text><ellipse cx="150.75" cy="42.6406" fill="#000000" filter="url(#fbgqs2eh3o413)" rx="10" ry="10" style="stroke:none;stroke-width:1.0;"/><rect fill="#FEFECE" filter="url(#fbgqs2eh3o413)" height="35.0938" rx="12.5" ry="12.5" style="stroke:#A80036;stroke-width:1.5;" width="145" x="78.25" y="72.6406"/><text fill="#000000" font-family="sans-serif" font-size="12" lengthAdjust="spacing" textLength="125" x="88.25" y="95.0977">Open Transactions tab</text><rect fill="#FEFECE" filter="url(#fbgqs2eh3o413)" height="35.0938" rx="12.5" ry="12.5" style="stroke:#A80036;stroke-width:1.5;" width="89" x="106.25" y="127.7344"/><text fill="#000000" font-family="sans-serif" font-size="12" lengthAdjust="spacing" textLength="69" x="116.25" y="150.1914">Click "+ Add"</text><rect fill="#FEFECE" filter="url(#fbgqs2eh3o413)" height="35.0938" rx="12.5" ry="12.5" style="stroke:#A80036;stroke-width:1.5;" width="128" x="86.75" y="182.8281"/><text fill="#000000" font-family="sans-serif" font-size="12" lengthAdjust="spacing" textLength="108" x="96.75" y="205.2852">Fill transaction form</text><rect fill="#FEFECE" filter="url(#fbgqs2eh3o413)" height="35.0938" rx="12.5" ry="12.5" style="stroke:#A80036;stroke-width:1.5;" width="171" x="65.25" y="286.8398"/><text fill="#000000" font-family="sans-serif" font-size="12" lengthAdjust="spacing" textLength="151" x="75.25" y="309.2969">Check category budget limit</text><rect fill="#FEFECE" filter="url(#fbgqs2eh3o413)" height="35.0938" rx="12.5" ry="12.5" style="stroke:#A80036;stroke-width:1.5;" width="151" x="75.25" y="390.8516"/><text fill="#000000" font-family="sans-serif" font-size="12" lengthAdjust="spacing" textLength="131" x="85.25" y="413.3086">Show error + block save</text><ellipse cx="150.75" cy="464.8984" fill="#FFFFFF" filter="url(#fbgqs2eh3o413)" rx="11" ry="11" style="stroke:#000000;stroke-width:1.0;"/><ellipse cx="150.75" cy="464.8984" fill="#000000" rx="6" ry="6" style="stroke:#7F7F7F;stroke-width:1.0;"/><polygon fill="#FEFECE" filter="url(#fbgqs2eh3o413)" points="102.25,341.9336,199.25,341.9336,211.25,353.9336,199.25,365.9336,102.25,365.9336,90.25,353.9336,102.25,341.9336" style="stroke:#A80036;stroke-width:1.5;"/><text fill="#000000" font-family="sans-serif" font-size="11" lengthAdjust="spacing" textLength="18" x="154.75" y="377.3525">yes</text><text fill="#000000" font-family="sans-serif" font-size="11" lengthAdjust="spacing" textLength="97" x="102.25" y="358.4346">Over category cap?</text><rect fill="#FEFECE" filter="url(#fbgqs2eh3o413)" height="35.0938" rx="12.5" ry="12.5" style="stroke:#A80036;stroke-width:1.5;" width="202" x="49.75" y="532.8984"/><text fill="#000000" font-family="sans-serif" font-size="12" lengthAdjust="spacing" textLength="182" x="59.75" y="555.3555">Check monthly budget cap (if set)</text><rect fill="#FEFECE" filter="url(#fbgqs2eh3o413)" height="35.0938" rx="12.5" ry="12.5" style="stroke:#A80036;stroke-width:1.5;" width="151" x="75.25" y="636.9102"/><text fill="#000000" font-family="sans-serif" font-size="12" lengthAdjust="spacing" textLength="131" x="85.25" y="659.3672">Show error + block save</text><ellipse cx="150.75" cy="710.957" fill="#FFFFFF" filter="url(#fbgqs2eh3o413)" rx="11" ry="11" style="stroke:#000000;stroke-width:1.0;"/><ellipse cx="150.75" cy="710.957" fill="#000000" rx="6" ry="6" style="stroke:#7F7F7F;stroke-width:1.0;"/><polygon fill="#FEFECE" filter="url(#fbgqs2eh3o413)" points="105.25,587.9922,196.25,587.9922,208.25,599.9922,196.25,611.9922,105.25,611.9922,93.25,599.9922,105.25,587.9922" style="stroke:#A80036;stroke-width:1.5;"/><text fill="#000000" font-family="sans-serif" font-size="11" lengthAdjust="spacing" textLength="18" x="154.75" y="623.4111">yes</text><text fill="#000000" font-family="sans-serif" font-size="11" lengthAdjust="spacing" textLength="91" x="105.25" y="604.4932">Over monthly cap?</text><polygon fill="#FEFECE" filter="url(#fbgqs2eh3o413)" points="104.25,237.9219,197.25,237.9219,209.25,249.9219,197.25,261.9219,104.25,261.9219,92.25,249.9219,104.25,237.9219" style="stroke:#A80036;stroke-width:1.5;"/><text fill="#000000" font-family="sans-serif" font-size="11" lengthAdjust="spacing" textLength="18" x="154.75" y="273.3408">yes</text><text fill="#000000" font-family="sans-serif" font-size="11" lengthAdjust="spacing" textLength="93" x="104.25" y="254.4229">Type == EXPENSE?</text><polygon fill="#FEFECE" filter="url(#fbgqs2eh3o413)" points="150.75,763.957,162.75,775.957,150.75,787.957,138.75,775.957,150.75,763.957" style="stroke:#A80036;stroke-width:1.5;"/><rect fill="#FEFECE" filter="url(#fbgqs2eh3o413)" height="35.0938" rx="12.5" ry="12.5" style="stroke:#A80036;stroke-width:1.5;" width="123" x="89.25" y="807.957"/><text fill="#000000" font-family="sans-serif" font-size="12" lengthAdjust="spacing" textLength="103" x="99.25" y="830.4141">Persist transaction</text><rect fill="#FEFECE" filter="url(#fbgqs2eh3o413)" height="35.0938" rx="12.5" ry="12.5" style="stroke:#A80036;stroke-width:1.5;" width="219" x="41.25" y="863.0508"/><text fill="#000000" font-family="sans-serif" font-size="12" lengthAdjust="spacing" textLength="199" x="51.25" y="885.5078">Compute budget warning (&gt;= 80%?)</text><rect fill="#FEFECE" filter="url(#fbgqs2eh3o413)" height="35.0938" rx="12.5" ry="12.5" style="stroke:#A80036;stroke-width:1.5;" width="135" x="83.25" y="967.0625"/><text fill="#000000" font-family="sans-serif" font-size="12" lengthAdjust="spacing" textLength="115" x="93.25" y="989.5195">Show warning dialog</text><polygon fill="#FEFECE" filter="url(#fbgqs2eh3o413)" points="127.75,918.1445,173.75,918.1445,185.75,930.1445,173.75,942.1445,127.75,942.1445,115.75,930.1445,127.75,918.1445" style="stroke:#A80036;stroke-width:1.5;"/><text fill="#000000" font-family="sans-serif" font-size="11" lengthAdjust="spacing" textLength="18" x="154.75" y="953.5635">yes</text><text fill="#000000" font-family="sans-serif" font-size="11" lengthAdjust="spacing" textLength="46" x="127.75" y="934.6455">Warning?</text><polygon fill="#FEFECE" filter="url(#fbgqs2eh3o413)" points="150.75,1022.1563,162.75,1034.1563,150.75,1046.1563,138.75,1034.1563,150.75,1022.1563" style="stroke:#A80036;stroke-width:1.5;"/><rect fill="#FEFECE" filter="url(#fbgqs2eh3o413)" height="35.0938" rx="12.5" ry="12.5" style="stroke:#A80036;stroke-width:1.5;" width="188" x="56.75" y="1066.1563"/><text fill="#000000" font-family="sans-serif" font-size="12" lengthAdjust="spacing" textLength="168" x="66.75" y="1088.6133">Refresh Dashboard + Budgets</text><ellipse cx="150.75" cy="1132.25" fill="#FFFFFF" filter="url(#fbgqs2eh3o413)" rx="11" ry="11" style="stroke:#000000;stroke-width:1.0;"/><ellipse cx="150.75" cy="1132.25" fill="#000000" rx="6" ry="6" style="stroke:#7F7F7F;stroke-width:1.0;"/><line style="stroke:#A80036;stroke-width:1.5;" x1="150.75" x2="150.75" y1="52.6406" y2="72.6406"/><polygon fill="#A80036" points="146.75,62.6406,150.75,72.6406,154.75,62.6406,150.75,66.6406" style="stroke:#A80036;stroke-width:1.0;"/><line style="stroke:#A80036;stroke-width:1.5;" x1="150.75" x2="150.75" y1="107.7344" y2="127.7344"/><polygon fill="#A80036" points="146.75,117.7344,150.75,127.7344,154.75,117.7344,150.75,121.7344" style="stroke:#A80036;stroke-width:1.0;"/><line style="stroke:#A80036;stroke-width:1.5;" x1="150.75" x2="150.75" y1="162.8281" y2="182.8281"/><polygon fill="#A80036" points="146.75,172.8281,150.75,182.8281,154.75,172.8281,150.75,176.8281" style="stroke:#A80036;stroke-width:1.0;"/><line style="stroke:#A80036;stroke-width:1.5;" x1="150.75" x2="150.75" y1="425.9453" y2="453.8984"/><polygon fill="#A80036" points="146.75,443.8984,150.75,453.8984,154.75,443.8984,150.75,447.8984" style="stroke:#A80036;stroke-width:1.0;"/><line style="stroke:#A80036;stroke-width:1.5;" x1="150.75" x2="150.75" y1="365.9336" y2="390.8516"/><polygon fill="#A80036" points="146.75,380.8516,150.75,390.8516,154.75,380.8516,150.75,384.8516" style="stroke:#A80036;stroke-width:1.0;"/><line style="stroke:#A80036;stroke-width:1.5;" x1="211.25" x2="236.25" y1="353.9336" y2="353.9336"/><polygon fill="#A80036" points="232.25,423.8984,236.25,433.8984,240.25,423.8984,236.25,427.8984" style="stroke:#A80036;stroke-width:1.5;"/><line style="stroke:#A80036;stroke-width:1.5;" x1="236.25" x2="236.25" y1="353.9336" y2="497.8984"/><line style="stroke:#A80036;stroke-width:1.5;" x1="236.25" x2="150.75" y1="497.8984" y2="497.8984"/><line style="stroke:#A80036;stroke-width:1.5;" x1="150.75" x2="150.75" y1="497.8984" y2="532.8984"/><polygon fill="#A80036" points="146.75,522.8984,150.75,532.8984,154.75,522.8984,150.75,526.8984" style="stroke:#A80036;stroke-width:1.0;"/><line style="stroke:#A80036;stroke-width:1.5;" x1="150.75" x2="150.75" y1="321.9336" y2="341.9336"/><polygon fill="#A80036" points="146.75,331.9336,150.75,341.9336,154.75,331.9336,150.75,335.9336" style="stroke:#A80036;stroke-width:1.0;"/><line style="stroke:#A80036;stroke-width:1.5;" x1="150.75" x2="150.75" y1="672.0039" y2="699.957"/><polygon fill="#A80036" points="146.75,689.957,150.75,699.957,154.75,689.957,150.75,693.957" style="stroke:#A80036;stroke-width:1.0;"/><line style="stroke:#A80036;stroke-width:1.5;" x1="150.75" x2="150.75" y1="611.9922" y2="636.9102"/><polygon fill="#A80036" points="146.75,626.9102,150.75,636.9102,154.75,626.9102,150.75,630.9102" style="stroke:#A80036;stroke-width:1.0;"/><line style="stroke:#A80036;stroke-width:1.5;" x1="208.25" x2="236.25" y1="599.9922" y2="599.9922"/><polygon fill="#A80036" points="232.25,669.957,236.25,679.957,240.25,669.957,236.25,673.957" style="stroke:#A80036;stroke-width:1.5;"/><line style="stroke:#A80036;stroke-width:1.5;" x1="236.25" x2="236.25" y1="599.9922" y2="743.957"/><line style="stroke:#A80036;stroke-width:1.5;" x1="236.25" x2="150.75" y1="743.957" y2="743.957"/><line style="stroke:#A80036;stroke-width:1.5;" x1="150.75" x2="150.75" y1="743.957" y2="763.957"/><polygon fill="#A80036" points="146.75,753.957,150.75,763.957,154.75,753.957,150.75,757.957" style="stroke:#A80036;stroke-width:1.0;"/><line style="stroke:#A80036;stroke-width:1.5;" x1="150.75" x2="150.75" y1="567.9922" y2="587.9922"/><polygon fill="#A80036" points="146.75,577.9922,150.75,587.9922,154.75,577.9922,150.75,581.9922" style="stroke:#A80036;stroke-width:1.0;"/><line style="stroke:#A80036;stroke-width:1.5;" x1="150.75" x2="150.75" y1="261.9219" y2="286.8398"/><polygon fill="#A80036" points="146.75,276.8398,150.75,286.8398,154.75,276.8398,150.75,280.8398" style="stroke:#A80036;stroke-width:1.0;"/><line style="stroke:#A80036;stroke-width:1.5;" x1="209.25" x2="261.75" y1="249.9219" y2="249.9219"/><polygon fill="#A80036" points="257.75,505.3984,261.75,515.3984,265.75,505.3984,261.75,509.3984" style="stroke:#A80036;stroke-width:1.5;"/><line style="stroke:#A80036;stroke-width:1.5;" x1="261.75" x2="261.75" y1="249.9219" y2="775.957"/><line style="stroke:#A80036;stroke-width:1.5;" x1="261.75" x2="162.75" y1="775.957" y2="775.957"/><polygon fill="#A80036" points="172.75,771.957,162.75,775.957,172.75,779.957,168.75,775.957" style="stroke:#A80036;stroke-width:1.0;"/><line style="stroke:#A80036;stroke-width:1.5;" x1="150.75" x2="150.75" y1="217.9219" y2="237.9219"/><polygon fill="#A80036" points="146.75,227.9219,150.75,237.9219,154.75,227.9219,150.75,231.9219" style="stroke:#A80036;stroke-width:1.0;"/><line style="stroke:#A80036;stroke-width:1.5;" x1="150.75" x2="150.75" y1="787.957" y2="807.957"/><polygon fill="#A80036" points="146.75,797.957,150.75,807.957,154.75,797.957,150.75,801.957" style="stroke:#A80036;stroke-width:1.0;"/><line style="stroke:#A80036;stroke-width:1.5;" x1="150.75" x2="150.75" y1="843.0508" y2="863.0508"/><polygon fill="#A80036" points="146.75,853.0508,150.75,863.0508,154.75,853.0508,150.75,857.0508" style="stroke:#A80036;stroke-width:1.0;"/><line style="stroke:#A80036;stroke-width:1.5;" x1="150.75" x2="150.75" y1="942.1445" y2="967.0625"/><polygon fill="#A80036" points="146.75,957.0625,150.75,967.0625,154.75,957.0625,150.75,961.0625" style="stroke:#A80036;stroke-width:1.0;"/><line style="stroke:#A80036;stroke-width:1.5;" x1="185.75" x2="228.25" y1="930.1445" y2="930.1445"/><polygon fill="#A80036" points="224.25,974.6094,228.25,984.6094,232.25,974.6094,228.25,978.6094" style="stroke:#A80036;stroke-width:1.5;"/><line style="stroke:#A80036;stroke-width:1.5;" x1="228.25" x2="228.25" y1="930.1445" y2="1034.1563"/><line style="stroke:#A80036;stroke-width:1.5;" x1="228.25" x2="162.75" y1="1034.1563" y2="1034.1563"/><polygon fill="#A80036" points="172.75,1030.1563,162.75,1034.1563,172.75,1038.1563,168.75,1034.1563" style="stroke:#A80036;stroke-width:1.0;"/><line style="stroke:#A80036;stroke-width:1.5;" x1="150.75" x2="150.75" y1="1002.1563" y2="1022.1563"/><polygon fill="#A80036" points="146.75,1012.1563,150.75,1022.1563,154.75,1012.1563,150.75,1016.1563" style="stroke:#A80036;stroke-width:1.0;"/><line style="stroke:#A80036;stroke-width:1.5;" x1="150.75" x2="150.75" y1="898.1445" y2="918.1445"/><polygon fill="#A80036" points="146.75,908.1445,150.75,918.1445,154.75,908.1445,150.75,912.1445" style="stroke:#A80036;stroke-width:1.0;"/><line style="stroke:#A80036;stroke-width:1.5;" x1="150.75" x2="150.75" y1="1046.1563" y2="1066.1563"/><polygon fill="#A80036" points="146.75,1056.1563,150.75,1066.1563,154.75,1056.1563,150.75,1060.1563" style="stroke:#A80036;stroke-width:1.0;"/><line style="stroke:#A80036;stroke-width:1.5;" x1="150.75" x2="150.75" y1="1101.25" y2="1121.25"/><polygon fill="#A80036" points="146.75,1111.25,150.75,1121.25,154.75,1111.25,150.75,1115.25" style="stroke:#A80036;stroke-width:1.0;"/><!--MD5=[71dcb3a713f27a3fa4560d031554a3a3]
@startuml
title Activity - Add EXPENSE Transaction

start
:Open Transactions tab;
:Click "+ Add";
:Fill transaction form;

if (Type == EXPENSE?) then (yes)
  :Check category budget limit;
  if (Over category cap?) then (yes)
    :Show error + block save;
    stop
  endif

  :Check monthly budget cap (if set);
  if (Over monthly cap?) then (yes)
    :Show error + block save;
    stop
  endif
endif

:Persist transaction;
:Compute budget warning (>= 80%?);
if (Warning?) then (yes)
  :Show warning dialog;
endif

:Refresh Dashboard + Budgets;
stop

@enduml

PlantUML version 1.2021.00(Sun Jan 10 12:25:05 EET 2021)
(MIT source distribution)
Java Runtime: OpenJDK Runtime Environment
JVM: OpenJDK 32-Bit Client VM
Default Encoding: Cp1256
Language: en
Country: US
--></g></svg>