<?xml version="1.0" encoding="UTF-8" standalone="no"?><svg xmlns="http://www.w3.org/2000/svg" xmlns:xlink="http://www.w3.org/1999/xlink" contentScriptType="application/ecmascript" contentStyleType="text/css" height="475px" preserveAspectRatio="none" style="width:2520px;height:475px;" version="1.1" viewBox="0 0 2520 475" width="2520px" zoomAndPan="magnify"><defs><filter height="300%" id="f1ua5xycfg6k65" width="300%" x="-1" y="-1"><feGaussianBlur result="blurOut" stdDeviation="2.0"/><feColorMatrix in="blurOut" result="blurOut2" type="matrix" values="0 0 0 0 0 0 0 0 0 0 0 0 0 0 0 0 0 0 .4 0"/><feOffset dx="4.0" dy="4.0" in="blurOut2" result="blurOut3"/><feBlend in="SourceGraphic" in2="blurOut3" mode="normal"/></filter></defs><g><text fill="#000000" font-family="sans-serif" font-size="18" lengthAdjust="spacing" textLength="331" x="1088" y="18.6855">Money Manager - High Level Architecture</text><!--MD5=[520f28a4ce48d274780ec08c7655b774]
cluster UI (JavaFX)--><polygon fill="#FFFFFF" filter="url(#f1ua5xycfg6k65)" points="1477,28.6406,1562,28.6406,1569,52.25,2450,52.25,2450,128.6406,1477,128.6406,1477,28.6406" style="stroke:#000000;stroke-width:1.5;"/><line style="stroke:#000000;stroke-width:1.5;" x1="1477" x2="1569" y1="52.25" y2="52.25"/><text fill="#000000" font-family="sans-serif" font-size="14" font-weight="bold" lengthAdjust="spacing" textLength="79" x="1481" y="45.1738">UI (JavaFX)</text><!--MD5=[cdfd548b3455e70392372b1f27091970]
cluster Services--><polygon fill="#FFFFFF" filter="url(#f1ua5xycfg6k65)" points="1431,152.6406,1499,152.6406,1506,176.25,2503,176.25,2503,252.6406,1431,252.6406,1431,152.6406" style="stroke:#000000;stroke-width:1.5;"/><line style="stroke:#000000;stroke-width:1.5;" x1="1431" x2="1506" y1="176.25" y2="176.25"/><text fill="#000000" font-family="sans-serif" font-size="14" font-weight="bold" lengthAdjust="spacing" textLength="62" x="1435" y="169.1738">Services</text><!--MD5=[832d1662dd5e9d71ae05f7e4663a4d2c]
cluster Repositories (JDBC)--><polygon fill="#FFFFFF" filter="url(#f1ua5xycfg6k65)" points="206,152.6406,354,152.6406,361,176.25,1407,176.25,1407,360.6406,206,360.6406,206,152.6406" style="stroke:#000000;stroke-width:1.5;"/><line style="stroke:#000000;stroke-width:1.5;" x1="206" x2="361" y1="176.25" y2="176.25"/><text fill="#000000" font-family="sans-serif" font-size="14" font-weight="bold" lengthAdjust="spacing" textLength="142" x="210" y="169.1738">Repositories (JDBC)</text><!--MD5=[7fcccf78f5eb2795f6b95c8567d8f1bc]
cluster DB Config--><polygon fill="#FFFFFF" filter="url(#f1ua5xycfg6k65)" points="16,152.6406,92,152.6406,99,176.25,182,176.25,182,360.6406,16,360.6406,16,152.6406" style="stroke:#000000;stroke-width:1.5;"/><line style="stroke:#000000;stroke-width:1.5;" x1="16" x2="99" y1="176.25" y2="176.25"/><text fill="#000000" font-family="sans-serif" font-size="14" font-weight="bold" lengthAdjust="spacing" textLength="70" x="20" y="169.1738">DB Config</text><!--MD5=[5103e3471bf31fadd75905833dcba617]
class LoginController--><rect codeLine="7" fill="#FEFECE" filter="url(#f1ua5xycfg6k65)" height="48" id="LoginController" style="stroke:#A80036;stroke-width:1.5;" width="117" x="1640.5" y="64.6406"/><ellipse cx="1655.5" cy="80.6406" fill="#ADD1B2" rx="11" ry="11" style="stroke:#A80036;stroke-width:1.0;"/><path d="M1658.2656,76.5156 Q1658.4219,76.2969 1658.6094,76.1875 Q1658.7969,76.0781 1659.0156,76.0781 Q1659.3906,76.0781 1659.625,76.3438 Q1659.8594,76.5938 1659.8594,77.2031 L1659.8594,78.6563 Q1659.8594,79.2656 1659.625,79.5313 Q1659.3906,79.7969 1659.0156,79.7969 Q1658.6719,79.7969 1658.4688,79.5938 Q1658.2656,79.4063 1658.1563,78.8906 Q1658.1094,78.5313 1657.9219,78.3438 Q1657.5938,77.9688 1656.9844,77.75 Q1656.375,77.5313 1655.75,77.5313 Q1654.9844,77.5313 1654.3438,77.8594 Q1653.7188,78.1875 1653.2188,78.9375 Q1652.7344,79.6875 1652.7344,80.7188 L1652.7344,81.8125 Q1652.7344,83.0469 1653.625,83.875 Q1654.5156,84.6875 1656.1094,84.6875 Q1657.0469,84.6875 1657.7031,84.4375 Q1658.0938,84.2813 1658.5156,83.8438 Q1658.7813,83.5781 1658.9219,83.5 Q1659.0781,83.4219 1659.2813,83.4219 Q1659.6094,83.4219 1659.8594,83.6875 Q1660.125,83.9375 1660.125,84.2813 Q1660.125,84.625 1659.7813,85.0313 Q1659.2813,85.6094 1658.4844,85.9375 Q1657.4063,86.3906 1656.1094,86.3906 Q1654.5938,86.3906 1653.3906,85.7656 Q1652.4063,85.2656 1651.7188,84.2031 Q1651.0313,83.125 1651.0313,81.8438 L1651.0313,80.6875 Q1651.0313,79.3594 1651.6406,78.2188 Q1652.2656,77.0625 1653.3594,76.4531 Q1654.4531,75.8281 1655.6875,75.8281 Q1656.4219,75.8281 1657.0625,76 Q1657.7188,76.1563 1658.2656,76.5156 Z " fill="#000000"/><text fill="#000000" font-family="sans-serif" font-size="12" lengthAdjust="spacing" textLength="85" x="1669.5" y="85.5508">LoginController</text><line style="stroke:#A80036;stroke-width:1.5;" x1="1641.5" x2="1756.5" y1="96.6406" y2="96.6406"/><line style="stroke:#A80036;stroke-width:1.5;" x1="1641.5" x2="1756.5" y1="104.6406" y2="104.6406"/><!--MD5=[73ad5e1502ea164349990f756202b7f3]
class TransactionController--><rect codeLine="8" fill="#FEFECE" filter="url(#f1ua5xycfg6k65)" height="48" id="TransactionController" style="stroke:#A80036;stroke-width:1.5;" width="151" x="1952.5" y="64.6406"/><ellipse cx="1967.5" cy="80.6406" fill="#ADD1B2" rx="11" ry="11" style="stroke:#A80036;stroke-width:1.0;"/><path d="M1970.2656,76.5156 Q1970.4219,76.2969 1970.6094,76.1875 Q1970.7969,76.0781 1971.0156,76.0781 Q1971.3906,76.0781 1971.625,76.3438 Q1971.8594,76.5938 1971.8594,77.2031 L1971.8594,78.6563 Q1971.8594,79.2656 1971.625,79.5313 Q1971.3906,79.7969 1971.0156,79.7969 Q1970.6719,79.7969 1970.4688,79.5938 Q1970.2656,79.4063 1970.1563,78.8906 Q1970.1094,78.5313 1969.9219,78.3438 Q1969.5938,77.9688 1968.9844,77.75 Q1968.375,77.5313 1967.75,77.5313 Q1966.9844,77.5313 1966.3438,77.8594 Q1965.7188,78.1875 1965.2188,78.9375 Q1964.7344,79.6875 1964.7344,80.7188 L1964.7344,81.8125 Q1964.7344,83.0469 1965.625,83.875 Q1966.5156,84.6875 1968.1094,84.6875 Q1969.0469,84.6875 1969.7031,84.4375 Q1970.0938,84.2813 1970.5156,83.8438 Q1970.7813,83.5781 1970.9219,83.5 Q1971.0781,83.4219 1971.2813,83.4219 Q1971.6094,83.4219 1971.8594,83.6875 Q1972.125,83.9375 1972.125,84.2813 Q1972.125,84.625 1971.7813,85.0313 Q1971.2813,85.6094 1970.4844,85.9375 Q1969.4063,86.3906 1968.1094,86.3906 Q1966.5938,86.3906 1965.3906,85.7656 Q1964.4063,85.2656 1963.7188,84.2031 Q1963.0313,83.125 1963.0313,81.8438 L1963.0313,80.6875 Q1963.0313,79.3594 1963.6406,78.2188 Q1964.2656,77.0625 1965.3594,76.4531 Q1966.4531,75.8281 1967.6875,75.8281 Q1968.4219,75.8281 1969.0625,76 Q1969.7188,76.1563 1970.2656,76.5156 Z " fill="#000000"/><text fill="#000000" font-family="sans-serif" font-size="12" lengthAdjust="spacing" textLength="119" x="1981.5" y="85.5508">TransactionController</text><line style="stroke:#A80036;stroke-width:1.5;" x1="1953.5" x2="2102.5" y1="96.6406" y2="96.6406"/><line style="stroke:#A80036;stroke-width:1.5;" x1="1953.5" x2="2102.5" y1="104.6406" y2="104.6406"/><!--MD5=[0655d745c4cf0777011a8d10aa382e24]
class BudgetController--><rect codeLine="9" fill="#FEFECE" filter="url(#f1ua5xycfg6k65)" height="48" id="BudgetController" style="stroke:#A80036;stroke-width:1.5;" width="125" x="1792.5" y="64.6406"/><ellipse cx="1807.5" cy="80.6406" fill="#ADD1B2" rx="11" ry="11" style="stroke:#A80036;stroke-width:1.0;"/><path d="M1810.2656,76.5156 Q1810.4219,76.2969 1810.6094,76.1875 Q1810.7969,76.0781 1811.0156,76.0781 Q1811.3906,76.0781 1811.625,76.3438 Q1811.8594,76.5938 1811.8594,77.2031 L1811.8594,78.6563 Q1811.8594,79.2656 1811.625,79.5313 Q1811.3906,79.7969 1811.0156,79.7969 Q1810.6719,79.7969 1810.4688,79.5938 Q1810.2656,79.4063 1810.1563,78.8906 Q1810.1094,78.5313 1809.9219,78.3438 Q1809.5938,77.9688 1808.9844,77.75 Q1808.375,77.5313 1807.75,77.5313 Q1806.9844,77.5313 1806.3438,77.8594 Q1805.7188,78.1875 1805.2188,78.9375 Q1804.7344,79.6875 1804.7344,80.7188 L1804.7344,81.8125 Q1804.7344,83.0469 1805.625,83.875 Q1806.5156,84.6875 1808.1094,84.6875 Q1809.0469,84.6875 1809.7031,84.4375 Q1810.0938,84.2813 1810.5156,83.8438 Q1810.7813,83.5781 1810.9219,83.5 Q1811.0781,83.4219 1811.2813,83.4219 Q1811.6094,83.4219 1811.8594,83.6875 Q1812.125,83.9375 1812.125,84.2813 Q1812.125,84.625 1811.7813,85.0313 Q1811.2813,85.6094 1810.4844,85.9375 Q1809.4063,86.3906 1808.1094,86.3906 Q1806.5938,86.3906 1805.3906,85.7656 Q1804.4063,85.2656 1803.7188,84.2031 Q1803.0313,83.125 1803.0313,81.8438 L1803.0313,80.6875 Q1803.0313,79.3594 1803.6406,78.2188 Q1804.2656,77.0625 1805.3594,76.4531 Q1806.4531,75.8281 1807.6875,75.8281 Q1808.4219,75.8281 1809.0625,76 Q1809.7188,76.1563 1810.2656,76.5156 Z " fill="#000000"/><text fill="#000000" font-family="sans-serif" font-size="12" lengthAdjust="spacing" textLength="93" x="1821.5" y="85.5508">BudgetController</text><line style="stroke:#A80036;stroke-width:1.5;" x1="1793.5" x2="1916.5" y1="96.6406" y2="96.6406"/><line style="stroke:#A80036;stroke-width:1.5;" x1="1793.5" x2="1916.5" y1="104.6406" y2="104.6406"/><!--MD5=[dcc43cea5dc60957b53d485019e55cd5]
class GoalController--><rect codeLine="10" fill="#FEFECE" filter="url(#f1ua5xycfg6k65)" height="48" id="GoalController" style="stroke:#A80036;stroke-width:1.5;" width="112" x="2322" y="64.6406"/><ellipse cx="2337" cy="80.6406" fill="#ADD1B2" rx="11" ry="11" style="stroke:#A80036;stroke-width:1.0;"/><path d="M2339.7656,76.5156 Q2339.9219,76.2969 2340.1094,76.1875 Q2340.2969,76.0781 2340.5156,76.0781 Q2340.8906,76.0781 2341.125,76.3438 Q2341.3594,76.5938 2341.3594,77.2031 L2341.3594,78.6563 Q2341.3594,79.2656 2341.125,79.5313 Q2340.8906,79.7969 2340.5156,79.7969 Q2340.1719,79.7969 2339.9688,79.5938 Q2339.7656,79.4063 2339.6563,78.8906 Q2339.6094,78.5313 2339.4219,78.3438 Q2339.0938,77.9688 2338.4844,77.75 Q2337.875,77.5313 2337.25,77.5313 Q2336.4844,77.5313 2335.8438,77.8594 Q2335.2188,78.1875 2334.7188,78.9375 Q2334.2344,79.6875 2334.2344,80.7188 L2334.2344,81.8125 Q2334.2344,83.0469 2335.125,83.875 Q2336.0156,84.6875 2337.6094,84.6875 Q2338.5469,84.6875 2339.2031,84.4375 Q2339.5938,84.2813 2340.0156,83.8438 Q2340.2813,83.5781 2340.4219,83.5 Q2340.5781,83.4219 2340.7813,83.4219 Q2341.1094,83.4219 2341.3594,83.6875 Q2341.625,83.9375 2341.625,84.2813 Q2341.625,84.625 2341.2813,85.0313 Q2340.7813,85.6094 2339.9844,85.9375 Q2338.9063,86.3906 2337.6094,86.3906 Q2336.0938,86.3906 2334.8906,85.7656 Q2333.9063,85.2656 2333.2188,84.2031 Q2332.5313,83.125 2332.5313,81.8438 L2332.5313,80.6875 Q2332.5313,79.3594 2333.1406,78.2188 Q2333.7656,77.0625 2334.8594,76.4531 Q2335.9531,75.8281 2337.1875,75.8281 Q2337.9219,75.8281 2338.5625,76 Q2339.2188,76.1563 2339.7656,76.5156 Z " fill="#000000"/><text fill="#000000" font-family="sans-serif" font-size="12" lengthAdjust="spacing" textLength="80" x="2351" y="85.5508">GoalController</text><line style="stroke:#A80036;stroke-width:1.5;" x1="2323" x2="2433" y1="96.6406" y2="96.6406"/><line style="stroke:#A80036;stroke-width:1.5;" x1="2323" x2="2433" y1="104.6406" y2="104.6406"/><!--MD5=[c16643e21ae2ce1ab5aadb318e92fe2b]
class NoteController--><rect codeLine="11" fill="#FEFECE" filter="url(#f1ua5xycfg6k65)" height="48" id="NoteController" style="stroke:#A80036;stroke-width:1.5;" width="112" x="1493" y="64.6406"/><ellipse cx="1508" cy="80.6406" fill="#ADD1B2" rx="11" ry="11" style="stroke:#A80036;stroke-width:1.0;"/><path d="M1510.7656,76.5156 Q1510.9219,76.2969 1511.1094,76.1875 Q1511.2969,76.0781 1511.5156,76.0781 Q1511.8906,76.0781 1512.125,76.3438 Q1512.3594,76.5938 1512.3594,77.2031 L1512.3594,78.6563 Q1512.3594,79.2656 1512.125,79.5313 Q1511.8906,79.7969 1511.5156,79.7969 Q1511.1719,79.7969 1510.9688,79.5938 Q1510.7656,79.4063 1510.6563,78.8906 Q1510.6094,78.5313 1510.4219,78.3438 Q1510.0938,77.9688 1509.4844,77.75 Q1508.875,77.5313 1508.25,77.5313 Q1507.4844,77.5313 1506.8438,77.8594 Q1506.2188,78.1875 1505.7188,78.9375 Q1505.2344,79.6875 1505.2344,80.7188 L1505.2344,81.8125 Q1505.2344,83.0469 1506.125,83.875 Q1507.0156,84.6875 1508.6094,84.6875 Q1509.5469,84.6875 1510.2031,84.4375 Q1510.5938,84.2813 1511.0156,83.8438 Q1511.2813,83.5781 1511.4219,83.5 Q1511.5781,83.4219 1511.7813,83.4219 Q1512.1094,83.4219 1512.3594,83.6875 Q1512.625,83.9375 1512.625,84.2813 Q1512.625,84.625 1512.2813,85.0313 Q1511.7813,85.6094 1510.9844,85.9375 Q1509.9063,86.3906 1508.6094,86.3906 Q1507.0938,86.3906 1505.8906,85.7656 Q1504.9063,85.2656 1504.2188,84.2031 Q1503.5313,83.125 1503.5313,81.8438 L1503.5313,80.6875 Q1503.5313,79.3594 1504.1406,78.2188 Q1504.7656,77.0625 1505.8594,76.4531 Q1506.9531,75.8281 1508.1875,75.8281 Q1508.9219,75.8281 1509.5625,76 Q1510.2188,76.1563 1510.7656,76.5156 Z " fill="#000000"/><text fill="#000000" font-family="sans-serif" font-size="12" lengthAdjust="spacing" textLength="80" x="1522" y="85.5508">NoteController</text><line style="stroke:#A80036;stroke-width:1.5;" x1="1494" x2="1604" y1="96.6406" y2="96.6406"/><line style="stroke:#A80036;stroke-width:1.5;" x1="1494" x2="1604" y1="104.6406" y2="104.6406"/><!--MD5=[6df68ba7857817ff37f8dc63cb99c131]
class DashboardController--><rect codeLine="12" fill="#FEFECE" filter="url(#f1ua5xycfg6k65)" height="48" id="DashboardController" style="stroke:#A80036;stroke-width:1.5;" width="148" x="2139" y="64.6406"/><ellipse cx="2154" cy="80.6406" fill="#ADD1B2" rx="11" ry="11" style="stroke:#A80036;stroke-width:1.0;"/><path d="M2156.7656,76.5156 Q2156.9219,76.2969 2157.1094,76.1875 Q2157.2969,76.0781 2157.5156,76.0781 Q2157.8906,76.0781 2158.125,76.3438 Q2158.3594,76.5938 2158.3594,77.2031 L2158.3594,78.6563 Q2158.3594,79.2656 2158.125,79.5313 Q2157.8906,79.7969 2157.5156,79.7969 Q2157.1719,79.7969 2156.9688,79.5938 Q2156.7656,79.4063 2156.6563,78.8906 Q2156.6094,78.5313 2156.4219,78.3438 Q2156.0938,77.9688 2155.4844,77.75 Q2154.875,77.5313 2154.25,77.5313 Q2153.4844,77.5313 2152.8438,77.8594 Q2152.2188,78.1875 2151.7188,78.9375 Q2151.2344,79.6875 2151.2344,80.7188 L2151.2344,81.8125 Q2151.2344,83.0469 2152.125,83.875 Q2153.0156,84.6875 2154.6094,84.6875 Q2155.5469,84.6875 2156.2031,84.4375 Q2156.5938,84.2813 2157.0156,83.8438 Q2157.2813,83.5781 2157.4219,83.5 Q2157.5781,83.4219 2157.7813,83.4219 Q2158.1094,83.4219 2158.3594,83.6875 Q2158.625,83.9375 2158.625,84.2813 Q2158.625,84.625 2158.2813,85.0313 Q2157.7813,85.6094 2156.9844,85.9375 Q2155.9063,86.3906 2154.6094,86.3906 Q2153.0938,86.3906 2151.8906,85.7656 Q2150.9063,85.2656 2150.2188,84.2031 Q2149.5313,83.125 2149.5313,81.8438 L2149.5313,80.6875 Q2149.5313,79.3594 2150.1406,78.2188 Q2150.7656,77.0625 2151.8594,76.4531 Q2152.9531,75.8281 2154.1875,75.8281 Q2154.9219,75.8281 2155.5625,76 Q2156.2188,76.1563 2156.7656,76.5156 Z " fill="#000000"/><text fill="#000000" font-family="sans-serif" font-size="12" lengthAdjust="spacing" textLength="116" x="2168" y="85.5508">DashboardController</text><line style="stroke:#A80036;stroke-width:1.5;" x1="2140" x2="2286" y1="96.6406" y2="96.6406"/><line style="stroke:#A80036;stroke-width:1.5;" x1="2140" x2="2286" y1="104.6406" y2="104.6406"/><!--MD5=[b4f586f7c628b5a371c8c0ac9af5f898]
class AuthService--><rect codeLine="16" fill="#FEFECE" filter="url(#f1ua5xycfg6k65)" height="48" id="AuthService" style="stroke:#A80036;stroke-width:1.5;" width="96" x="1580" y="188.6406"/><ellipse cx="1595" cy="204.6406" fill="#ADD1B2" rx="11" ry="11" style="stroke:#A80036;stroke-width:1.0;"/><path d="M1597.7656,200.5156 Q1597.9219,200.2969 1598.1094,200.1875 Q1598.2969,200.0781 1598.5156,200.0781 Q1598.8906,200.0781 1599.125,200.3438 Q1599.3594,200.5938 1599.3594,201.2031 L1599.3594,202.6563 Q1599.3594,203.2656 1599.125,203.5313 Q1598.8906,203.7969 1598.5156,203.7969 Q1598.1719,203.7969 1597.9688,203.5938 Q1597.7656,203.4063 1597.6563,202.8906 Q1597.6094,202.5313 1597.4219,202.3438 Q1597.0938,201.9688 1596.4844,201.75 Q1595.875,201.5313 1595.25,201.5313 Q1594.4844,201.5313 1593.8438,201.8594 Q1593.2188,202.1875 1592.7188,202.9375 Q1592.2344,203.6875 1592.2344,204.7188 L1592.2344,205.8125 Q1592.2344,207.0469 1593.125,207.875 Q1594.0156,208.6875 1595.6094,208.6875 Q1596.5469,208.6875 1597.2031,208.4375 Q1597.5938,208.2813 1598.0156,207.8438 Q1598.2813,207.5781 1598.4219,207.5 Q1598.5781,207.4219 1598.7813,207.4219 Q1599.1094,207.4219 1599.3594,207.6875 Q1599.625,207.9375 1599.625,208.2813 Q1599.625,208.625 1599.2813,209.0313 Q1598.7813,209.6094 1597.9844,209.9375 Q1596.9063,210.3906 1595.6094,210.3906 Q1594.0938,210.3906 1592.8906,209.7656 Q1591.9063,209.2656 1591.2188,208.2031 Q1590.5313,207.125 1590.5313,205.8438 L1590.5313,204.6875 Q1590.5313,203.3594 1591.1406,202.2188 Q1591.7656,201.0625 1592.8594,200.4531 Q1593.9531,199.8281 1595.1875,199.8281 Q1595.9219,199.8281 1596.5625,200 Q1597.2188,200.1563 1597.7656,200.5156 Z " fill="#000000"/><text fill="#000000" font-family="sans-serif" font-size="12" lengthAdjust="spacing" textLength="64" x="1609" y="209.5508">AuthService</text><line style="stroke:#A80036;stroke-width:1.5;" x1="1581" x2="1675" y1="220.6406" y2="220.6406"/><line style="stroke:#A80036;stroke-width:1.5;" x1="1581" x2="1675" y1="228.6406" y2="228.6406"/><!--MD5=[4b1df0fc819a77b35db968c43eee41d9]
class TransactionService--><rect codeLine="17" fill="#FEFECE" filter="url(#f1ua5xycfg6k65)" height="48" id="TransactionService" style="stroke:#A80036;stroke-width:1.5;" width="137" x="2047.5" y="188.6406"/><ellipse cx="2062.5" cy="204.6406" fill="#ADD1B2" rx="11" ry="11" style="stroke:#A80036;stroke-width:1.0;"/><path d="M2065.2656,200.5156 Q2065.4219,200.2969 2065.6094,200.1875 Q2065.7969,200.0781 2066.0156,200.0781 Q2066.3906,200.0781 2066.625,200.3438 Q2066.8594,200.5938 2066.8594,201.2031 L2066.8594,202.6563 Q2066.8594,203.2656 2066.625,203.5313 Q2066.3906,203.7969 2066.0156,203.7969 Q2065.6719,203.7969 2065.4688,203.5938 Q2065.2656,203.4063 2065.1563,202.8906 Q2065.1094,202.5313 2064.9219,202.3438 Q2064.5938,201.9688 2063.9844,201.75 Q2063.375,201.5313 2062.75,201.5313 Q2061.9844,201.5313 2061.3438,201.8594 Q2060.7188,202.1875 2060.2188,202.9375 Q2059.7344,203.6875 2059.7344,204.7188 L2059.7344,205.8125 Q2059.7344,207.0469 2060.625,207.875 Q2061.5156,208.6875 2063.1094,208.6875 Q2064.0469,208.6875 2064.7031,208.4375 Q2065.0938,208.2813 2065.5156,207.8438 Q2065.7813,207.5781 2065.9219,207.5 Q2066.0781,207.4219 2066.2813,207.4219 Q2066.6094,207.4219 2066.8594,207.6875 Q2067.125,207.9375 2067.125,208.2813 Q2067.125,208.625 2066.7813,209.0313 Q2066.2813,209.6094 2065.4844,209.9375 Q2064.4063,210.3906 2063.1094,210.3906 Q2061.5938,210.3906 2060.3906,209.7656 Q2059.4063,209.2656 2058.7188,208.2031 Q2058.0313,207.125 2058.0313,205.8438 L2058.0313,204.6875 Q2058.0313,203.3594 2058.6406,202.2188 Q2059.2656,201.0625 2060.3594,200.4531 Q2061.4531,199.8281 2062.6875,199.8281 Q2063.4219,199.8281 2064.0625,200 Q2064.7188,200.1563 2065.2656,200.5156 Z " fill="#000000"/><text fill="#000000" font-family="sans-serif" font-size="12" lengthAdjust="spacing" textLength="105" x="2076.5" y="209.5508">TransactionService</text><line style="stroke:#A80036;stroke-width:1.5;" x1="2048.5" x2="2183.5" y1="220.6406" y2="220.6406"/><line style="stroke:#A80036;stroke-width:1.5;" x1="2048.5" x2="2183.5" y1="228.6406" y2="228.6406"/><!--MD5=[79b1daddf4b374936755057d459bfabc]
class BudgetService--><rect codeLine="18" fill="#FEFECE" filter="url(#f1ua5xycfg6k65)" height="48" id="BudgetService" style="stroke:#A80036;stroke-width:1.5;" width="111" x="1711.5" y="188.6406"/><ellipse cx="1726.5" cy="204.6406" fill="#ADD1B2" rx="11" ry="11" style="stroke:#A80036;stroke-width:1.0;"/><path d="M1729.2656,200.5156 Q1729.4219,200.2969 1729.6094,200.1875 Q1729.7969,200.0781 1730.0156,200.0781 Q1730.3906,200.0781 1730.625,200.3438 Q1730.8594,200.5938 1730.8594,201.2031 L1730.8594,202.6563 Q1730.8594,203.2656 1730.625,203.5313 Q1730.3906,203.7969 1730.0156,203.7969 Q1729.6719,203.7969 1729.4688,203.5938 Q1729.2656,203.4063 1729.1563,202.8906 Q1729.1094,202.5313 1728.9219,202.3438 Q1728.5938,201.9688 1727.9844,201.75 Q1727.375,201.5313 1726.75,201.5313 Q1725.9844,201.5313 1725.3438,201.8594 Q1724.7188,202.1875 1724.2188,202.9375 Q1723.7344,203.6875 1723.7344,204.7188 L1723.7344,205.8125 Q1723.7344,207.0469 1724.625,207.875 Q1725.5156,208.6875 1727.1094,208.6875 Q1728.0469,208.6875 1728.7031,208.4375 Q1729.0938,208.2813 1729.5156,207.8438 Q1729.7813,207.5781 1729.9219,207.5 Q1730.0781,207.4219 1730.2813,207.4219 Q1730.6094,207.4219 1730.8594,207.6875 Q1731.125,207.9375 1731.125,208.2813 Q1731.125,208.625 1730.7813,209.0313 Q1730.2813,209.6094 1729.4844,209.9375 Q1728.4063,210.3906 1727.1094,210.3906 Q1725.5938,210.3906 1724.3906,209.7656 Q1723.4063,209.2656 1722.7188,208.2031 Q1722.0313,207.125 1722.0313,205.8438 L1722.0313,204.6875 Q1722.0313,203.3594 1722.6406,202.2188 Q1723.2656,201.0625 1724.3594,200.4531 Q1725.4531,199.8281 1726.6875,199.8281 Q1727.4219,199.8281 1728.0625,200 Q1728.7188,200.1563 1729.2656,200.5156 Z " fill="#000000"/><text fill="#000000" font-family="sans-serif" font-size="12" lengthAdjust="spacing" textLength="79" x="1740.5" y="209.5508">BudgetService</text><line style="stroke:#A80036;stroke-width:1.5;" x1="1712.5" x2="1821.5" y1="220.6406" y2="220.6406"/><line style="stroke:#A80036;stroke-width:1.5;" x1="1712.5" x2="1821.5" y1="228.6406" y2="228.6406"/><!--MD5=[9e4b9b1242dd34c5723b6f958a7ec414]
class GoalService--><rect codeLine="19" fill="#FEFECE" filter="url(#f1ua5xycfg6k65)" height="48" id="GoalService" style="stroke:#A80036;stroke-width:1.5;" width="98" x="2389" y="188.6406"/><ellipse cx="2404" cy="204.6406" fill="#ADD1B2" rx="11" ry="11" style="stroke:#A80036;stroke-width:1.0;"/><path d="M2406.7656,200.5156 Q2406.9219,200.2969 2407.1094,200.1875 Q2407.2969,200.0781 2407.5156,200.0781 Q2407.8906,200.0781 2408.125,200.3438 Q2408.3594,200.5938 2408.3594,201.2031 L2408.3594,202.6563 Q2408.3594,203.2656 2408.125,203.5313 Q2407.8906,203.7969 2407.5156,203.7969 Q2407.1719,203.7969 2406.9688,203.5938 Q2406.7656,203.4063 2406.6563,202.8906 Q2406.6094,202.5313 2406.4219,202.3438 Q2406.0938,201.9688 2405.4844,201.75 Q2404.875,201.5313 2404.25,201.5313 Q2403.4844,201.5313 2402.8438,201.8594 Q2402.2188,202.1875 2401.7188,202.9375 Q2401.2344,203.6875 2401.2344,204.7188 L2401.2344,205.8125 Q2401.2344,207.0469 2402.125,207.875 Q2403.0156,208.6875 2404.6094,208.6875 Q2405.5469,208.6875 2406.2031,208.4375 Q2406.5938,208.2813 2407.0156,207.8438 Q2407.2813,207.5781 2407.4219,207.5 Q2407.5781,207.4219 2407.7813,207.4219 Q2408.1094,207.4219 2408.3594,207.6875 Q2408.625,207.9375 2408.625,208.2813 Q2408.625,208.625 2408.2813,209.0313 Q2407.7813,209.6094 2406.9844,209.9375 Q2405.9063,210.3906 2404.6094,210.3906 Q2403.0938,210.3906 2401.8906,209.7656 Q2400.9063,209.2656 2400.2188,208.2031 Q2399.5313,207.125 2399.5313,205.8438 L2399.5313,204.6875 Q2399.5313,203.3594 2400.1406,202.2188 Q2400.7656,201.0625 2401.8594,200.4531 Q2402.9531,199.8281 2404.1875,199.8281 Q2404.9219,199.8281 2405.5625,200 Q2406.2188,200.1563 2406.7656,200.5156 Z " fill="#000000"/><text fill="#000000" font-family="sans-serif" font-size="12" lengthAdjust="spacing" textLength="66" x="2418" y="209.5508">GoalService</text><line style="stroke:#A80036;stroke-width:1.5;" x1="2390" x2="2486" y1="220.6406" y2="220.6406"/><line style="stroke:#A80036;stroke-width:1.5;" x1="2390" x2="2486" y1="228.6406" y2="228.6406"/><!--MD5=[7a8403085b9268fc6a501e2187afb471]
class NoteService--><rect codeLine="20" fill="#FEFECE" filter="url(#f1ua5xycfg6k65)" height="48" id="NoteService" style="stroke:#A80036;stroke-width:1.5;" width="98" x="1447" y="188.6406"/><ellipse cx="1462" cy="204.6406" fill="#ADD1B2" rx="11" ry="11" style="stroke:#A80036;stroke-width:1.0;"/><path d="M1464.7656,200.5156 Q1464.9219,200.2969 1465.1094,200.1875 Q1465.2969,200.0781 1465.5156,200.0781 Q1465.8906,200.0781 1466.125,200.3438 Q1466.3594,200.5938 1466.3594,201.2031 L1466.3594,202.6563 Q1466.3594,203.2656 1466.125,203.5313 Q1465.8906,203.7969 1465.5156,203.7969 Q1465.1719,203.7969 1464.9688,203.5938 Q1464.7656,203.4063 1464.6563,202.8906 Q1464.6094,202.5313 1464.4219,202.3438 Q1464.0938,201.9688 1463.4844,201.75 Q1462.875,201.5313 1462.25,201.5313 Q1461.4844,201.5313 1460.8438,201.8594 Q1460.2188,202.1875 1459.7188,202.9375 Q1459.2344,203.6875 1459.2344,204.7188 L1459.2344,205.8125 Q1459.2344,207.0469 1460.125,207.875 Q1461.0156,208.6875 1462.6094,208.6875 Q1463.5469,208.6875 1464.2031,208.4375 Q1464.5938,208.2813 1465.0156,207.8438 Q1465.2813,207.5781 1465.4219,207.5 Q1465.5781,207.4219 1465.7813,207.4219 Q1466.1094,207.4219 1466.3594,207.6875 Q1466.625,207.9375 1466.625,208.2813 Q1466.625,208.625 1466.2813,209.0313 Q1465.7813,209.6094 1464.9844,209.9375 Q1463.9063,210.3906 1462.6094,210.3906 Q1461.0938,210.3906 1459.8906,209.7656 Q1458.9063,209.2656 1458.2188,208.2031 Q1457.5313,207.125 1457.5313,205.8438 L1457.5313,204.6875 Q1457.5313,203.3594 1458.1406,202.2188 Q1458.7656,201.0625 1459.8594,200.4531 Q1460.9531,199.8281 1462.1875,199.8281 Q1462.9219,199.8281 1463.5625,200 Q1464.2188,200.1563 1464.7656,200.5156 Z " fill="#000000"/><text fill="#000000" font-family="sans-serif" font-size="12" lengthAdjust="spacing" textLength="66" x="1476" y="209.5508">NoteService</text><line style="stroke:#A80036;stroke-width:1.5;" x1="1448" x2="1544" y1="220.6406" y2="220.6406"/><line style="stroke:#A80036;stroke-width:1.5;" x1="1448" x2="1544" y1="228.6406" y2="228.6406"/><!--MD5=[569c5868375e12a0903c259e7bee9d1e]
class DashboardService--><rect codeLine="21" fill="#FEFECE" filter="url(#f1ua5xycfg6k65)" height="48" id="DashboardService" style="stroke:#A80036;stroke-width:1.5;" width="134" x="2220" y="188.6406"/><ellipse cx="2235" cy="204.6406" fill="#ADD1B2" rx="11" ry="11" style="stroke:#A80036;stroke-width:1.0;"/><path d="M2237.7656,200.5156 Q2237.9219,200.2969 2238.1094,200.1875 Q2238.2969,200.0781 2238.5156,200.0781 Q2238.8906,200.0781 2239.125,200.3438 Q2239.3594,200.5938 2239.3594,201.2031 L2239.3594,202.6563 Q2239.3594,203.2656 2239.125,203.5313 Q2238.8906,203.7969 2238.5156,203.7969 Q2238.1719,203.7969 2237.9688,203.5938 Q2237.7656,203.4063 2237.6563,202.8906 Q2237.6094,202.5313 2237.4219,202.3438 Q2237.0938,201.9688 2236.4844,201.75 Q2235.875,201.5313 2235.25,201.5313 Q2234.4844,201.5313 2233.8438,201.8594 Q2233.2188,202.1875 2232.7188,202.9375 Q2232.2344,203.6875 2232.2344,204.7188 L2232.2344,205.8125 Q2232.2344,207.0469 2233.125,207.875 Q2234.0156,208.6875 2235.6094,208.6875 Q2236.5469,208.6875 2237.2031,208.4375 Q2237.5938,208.2813 2238.0156,207.8438 Q2238.2813,207.5781 2238.4219,207.5 Q2238.5781,207.4219 2238.7813,207.4219 Q2239.1094,207.4219 2239.3594,207.6875 Q2239.625,207.9375 2239.625,208.2813 Q2239.625,208.625 2239.2813,209.0313 Q2238.7813,209.6094 2237.9844,209.9375 Q2236.9063,210.3906 2235.6094,210.3906 Q2234.0938,210.3906 2232.8906,209.7656 Q2231.9063,209.2656 2231.2188,208.2031 Q2230.5313,207.125 2230.5313,205.8438 L2230.5313,204.6875 Q2230.5313,203.3594 2231.1406,202.2188 Q2231.7656,201.0625 2232.8594,200.4531 Q2233.9531,199.8281 2235.1875,199.8281 Q2235.9219,199.8281 2236.5625,200 Q2237.2188,200.1563 2237.7656,200.5156 Z " fill="#000000"/><text fill="#000000" font-family="sans-serif" font-size="12" lengthAdjust="spacing" textLength="102" x="2249" y="209.5508">DashboardService</text><line style="stroke:#A80036;stroke-width:1.5;" x1="2221" x2="2353" y1="220.6406" y2="220.6406"/><line style="stroke:#A80036;stroke-width:1.5;" x1="2221" x2="2353" y1="228.6406" y2="228.6406"/><!--MD5=[316567015e6ace45b7bcd80bc0a24a28]
class MonthlyIncomeService--><rect codeLine="22" fill="#FEFECE" filter="url(#f1ua5xycfg6k65)" height="48" id="MonthlyIncomeService" style="stroke:#A80036;stroke-width:1.5;" width="154" x="1858" y="188.6406"/><ellipse cx="1873" cy="204.6406" fill="#ADD1B2" rx="11" ry="11" style="stroke:#A80036;stroke-width:1.0;"/><path d="M1875.7656,200.5156 Q1875.9219,200.2969 1876.1094,200.1875 Q1876.2969,200.0781 1876.5156,200.0781 Q1876.8906,200.0781 1877.125,200.3438 Q1877.3594,200.5938 1877.3594,201.2031 L1877.3594,202.6563 Q1877.3594,203.2656 1877.125,203.5313 Q1876.8906,203.7969 1876.5156,203.7969 Q1876.1719,203.7969 1875.9688,203.5938 Q1875.7656,203.4063 1875.6563,202.8906 Q1875.6094,202.5313 1875.4219,202.3438 Q1875.0938,201.9688 1874.4844,201.75 Q1873.875,201.5313 1873.25,201.5313 Q1872.4844,201.5313 1871.8438,201.8594 Q1871.2188,202.1875 1870.7188,202.9375 Q1870.2344,203.6875 1870.2344,204.7188 L1870.2344,205.8125 Q1870.2344,207.0469 1871.125,207.875 Q1872.0156,208.6875 1873.6094,208.6875 Q1874.5469,208.6875 1875.2031,208.4375 Q1875.5938,208.2813 1876.0156,207.8438 Q1876.2813,207.5781 1876.4219,207.5 Q1876.5781,207.4219 1876.7813,207.4219 Q1877.1094,207.4219 1877.3594,207.6875 Q1877.625,207.9375 1877.625,208.2813 Q1877.625,208.625 1877.2813,209.0313 Q1876.7813,209.6094 1875.9844,209.9375 Q1874.9063,210.3906 1873.6094,210.3906 Q1872.0938,210.3906 1870.8906,209.7656 Q1869.9063,209.2656 1869.2188,208.2031 Q1868.5313,207.125 1868.5313,205.8438 L1868.5313,204.6875 Q1868.5313,203.3594 1869.1406,202.2188 Q1869.7656,201.0625 1870.8594,200.4531 Q1871.9531,199.8281 1873.1875,199.8281 Q1873.9219,199.8281 1874.5625,200 Q1875.2188,200.1563 1875.7656,200.5156 Z " fill="#000000"/><text fill="#000000" font-family="sans-serif" font-size="12" lengthAdjust="spacing" textLength="122" x="1887" y="209.5508">MonthlyIncomeService</text><line style="stroke:#A80036;stroke-width:1.5;" x1="1859" x2="2011" y1="220.6406" y2="220.6406"/><line style="stroke:#A80036;stroke-width:1.5;" x1="1859" x2="2011" y1="228.6406" y2="228.6406"/><!--MD5=[3eb9e23e143d2f036a43d8270328d47c]
class IUserRepo--><rect codeLine="26" fill="#FEFECE" filter="url(#f1ua5xycfg6k65)" height="48" id="IUserRepo" style="stroke:#A80036;stroke-width:1.5;" width="92" x="394" y="296.6406"/><ellipse cx="409" cy="312.6406" fill="#B4A7E5" rx="11" ry="11" style="stroke:#A80036;stroke-width:1.0;"/><path d="M409.9531,309.2813 L409.9531,315.9375 L411.6719,315.9375 Q412.2813,315.9375 412.5469,316.1719 Q412.8125,316.4063 412.8125,316.7969 Q412.8125,317.1719 412.5469,317.4063 Q412.2813,317.6406 411.6719,317.6406 L406.5313,317.6406 Q405.9219,317.6406 405.6563,317.4063 Q405.3906,317.1719 405.3906,316.7813 Q405.3906,316.4063 405.6563,316.1719 Q405.9219,315.9375 406.5313,315.9375 L408.25,315.9375 L408.25,309.2813 L406.5313,309.2813 Q405.9219,309.2813 405.6563,309.0469 Q405.3906,308.8125 405.3906,308.4219 Q405.3906,308.0469 405.6563,307.8125 Q405.9219,307.5781 406.5313,307.5781 L411.6719,307.5781 Q412.2813,307.5781 412.5469,307.8125 Q412.8125,308.0469 412.8125,308.4219 Q412.8125,308.8125 412.5469,309.0469 Q412.2813,309.2813 411.6719,309.2813 L409.9531,309.2813 Z " fill="#000000"/><text fill="#000000" font-family="sans-serif" font-size="12" font-style="italic" lengthAdjust="spacing" textLength="60" x="423" y="317.5508">IUserRepo</text><line style="stroke:#A80036;stroke-width:1.5;" x1="395" x2="485" y1="328.6406" y2="328.6406"/><line style="stroke:#A80036;stroke-width:1.5;" x1="395" x2="485" y1="336.6406" y2="336.6406"/><!--MD5=[155fee3b81b86e152657922fe65b8146]
class JdbcUserRepo--><rect codeLine="27" fill="#FEFECE" filter="url(#f1ua5xycfg6k65)" height="48" id="JdbcUserRepo" style="stroke:#A80036;stroke-width:1.5;" width="115" x="371.5" y="188.6406"/><ellipse cx="386.5" cy="204.6406" fill="#ADD1B2" rx="11" ry="11" style="stroke:#A80036;stroke-width:1.0;"/><path d="M389.2656,200.5156 Q389.4219,200.2969 389.6094,200.1875 Q389.7969,200.0781 390.0156,200.0781 Q390.3906,200.0781 390.625,200.3438 Q390.8594,200.5938 390.8594,201.2031 L390.8594,202.6563 Q390.8594,203.2656 390.625,203.5313 Q390.3906,203.7969 390.0156,203.7969 Q389.6719,203.7969 389.4688,203.5938 Q389.2656,203.4063 389.1563,202.8906 Q389.1094,202.5313 388.9219,202.3438 Q388.5938,201.9688 387.9844,201.75 Q387.375,201.5313 386.75,201.5313 Q385.9844,201.5313 385.3438,201.8594 Q384.7188,202.1875 384.2188,202.9375 Q383.7344,203.6875 383.7344,204.7188 L383.7344,205.8125 Q383.7344,207.0469 384.625,207.875 Q385.5156,208.6875 387.1094,208.6875 Q388.0469,208.6875 388.7031,208.4375 Q389.0938,208.2813 389.5156,207.8438 Q389.7813,207.5781 389.9219,207.5 Q390.0781,207.4219 390.2813,207.4219 Q390.6094,207.4219 390.8594,207.6875 Q391.125,207.9375 391.125,208.2813 Q391.125,208.625 390.7813,209.0313 Q390.2813,209.6094 389.4844,209.9375 Q388.4063,210.3906 387.1094,210.3906 Q385.5938,210.3906 384.3906,209.7656 Q383.4063,209.2656 382.7188,208.2031 Q382.0313,207.125 382.0313,205.8438 L382.0313,204.6875 Q382.0313,203.3594 382.6406,202.2188 Q383.2656,201.0625 384.3594,200.4531 Q385.4531,199.8281 386.6875,199.8281 Q387.4219,199.8281 388.0625,200 Q388.7188,200.1563 389.2656,200.5156 Z " fill="#000000"/><text fill="#000000" font-family="sans-serif" font-size="12" lengthAdjust="spacing" textLength="83" x="400.5" y="209.5508">JdbcUserRepo</text><line style="stroke:#A80036;stroke-width:1.5;" x1="372.5" x2="485.5" y1="220.6406" y2="220.6406"/><line style="stroke:#A80036;stroke-width:1.5;" x1="372.5" x2="485.5" y1="228.6406" y2="228.6406"/><!--MD5=[5c185caace1721e65882ddf70161fa65]
class ITransactionRepo--><rect codeLine="28" fill="#FEFECE" filter="url(#f1ua5xycfg6k65)" height="48" id="ITransactionRepo" style="stroke:#A80036;stroke-width:1.5;" width="130" x="1134" y="296.6406"/><ellipse cx="1149" cy="312.6406" fill="#B4A7E5" rx="11" ry="11" style="stroke:#A80036;stroke-width:1.0;"/><path d="M1149.9531,309.2813 L1149.9531,315.9375 L1151.6719,315.9375 Q1152.2813,315.9375 1152.5469,316.1719 Q1152.8125,316.4063 1152.8125,316.7969 Q1152.8125,317.1719 1152.5469,317.4063 Q1152.2813,317.6406 1151.6719,317.6406 L1146.5313,317.6406 Q1145.9219,317.6406 1145.6563,317.4063 Q1145.3906,317.1719 1145.3906,316.7813 Q1145.3906,316.4063 1145.6563,316.1719 Q1145.9219,315.9375 1146.5313,315.9375 L1148.25,315.9375 L1148.25,309.2813 L1146.5313,309.2813 Q1145.9219,309.2813 1145.6563,309.0469 Q1145.3906,308.8125 1145.3906,308.4219 Q1145.3906,308.0469 1145.6563,307.8125 Q1145.9219,307.5781 1146.5313,307.5781 L1151.6719,307.5781 Q1152.2813,307.5781 1152.5469,307.8125 Q1152.8125,308.0469 1152.8125,308.4219 Q1152.8125,308.8125 1152.5469,309.0469 Q1152.2813,309.2813 1151.6719,309.2813 L1149.9531,309.2813 Z " fill="#000000"/><text fill="#000000" font-family="sans-serif" font-size="12" font-style="italic" lengthAdjust="spacing" textLength="98" x="1163" y="317.5508">ITransactionRepo</text><line style="stroke:#A80036;stroke-width:1.5;" x1="1135" x2="1263" y1="328.6406" y2="328.6406"/><line style="stroke:#A80036;stroke-width:1.5;" x1="1135" x2="1263" y1="336.6406" y2="336.6406"/><!--MD5=[fa67076dc79dbe34a9f0ba15b64b57bf]
class JdbcTransactionRepo--><rect codeLine="29" fill="#FEFECE" filter="url(#f1ua5xycfg6k65)" height="48" id="JdbcTransactionRepo" style="stroke:#A80036;stroke-width:1.5;" width="153" x="1088.5" y="188.6406"/><ellipse cx="1103.5" cy="204.6406" fill="#ADD1B2" rx="11" ry="11" style="stroke:#A80036;stroke-width:1.0;"/><path d="M1106.2656,200.5156 Q1106.4219,200.2969 1106.6094,200.1875 Q1106.7969,200.0781 1107.0156,200.0781 Q1107.3906,200.0781 1107.625,200.3438 Q1107.8594,200.5938 1107.8594,201.2031 L1107.8594,202.6563 Q1107.8594,203.2656 1107.625,203.5313 Q1107.3906,203.7969 1107.0156,203.7969 Q1106.6719,203.7969 1106.4688,203.5938 Q1106.2656,203.4063 1106.1563,202.8906 Q1106.1094,202.5313 1105.9219,202.3438 Q1105.5938,201.9688 1104.9844,201.75 Q1104.375,201.5313 1103.75,201.5313 Q1102.9844,201.5313 1102.3438,201.8594 Q1101.7188,202.1875 1101.2188,202.9375 Q1100.7344,203.6875 1100.7344,204.7188 L1100.7344,205.8125 Q1100.7344,207.0469 1101.625,207.875 Q1102.5156,208.6875 1104.1094,208.6875 Q1105.0469,208.6875 1105.7031,208.4375 Q1106.0938,208.2813 1106.5156,207.8438 Q1106.7813,207.5781 1106.9219,207.5 Q1107.0781,207.4219 1107.2813,207.4219 Q1107.6094,207.4219 1107.8594,207.6875 Q1108.125,207.9375 1108.125,208.2813 Q1108.125,208.625 1107.7813,209.0313 Q1107.2813,209.6094 1106.4844,209.9375 Q1105.4063,210.3906 1104.1094,210.3906 Q1102.5938,210.3906 1101.3906,209.7656 Q1100.4063,209.2656 1099.7188,208.2031 Q1099.0313,207.125 1099.0313,205.8438 L1099.0313,204.6875 Q1099.0313,203.3594 1099.6406,202.2188 Q1100.2656,201.0625 1101.3594,200.4531 Q1102.4531,199.8281 1103.6875,199.8281 Q1104.4219,199.8281 1105.0625,200 Q1105.7188,200.1563 1106.2656,200.5156 Z " fill="#000000"/><text fill="#000000" font-family="sans-serif" font-size="12" lengthAdjust="spacing" textLength="121" x="1117.5" y="209.5508">JdbcTransactionRepo</text><line style="stroke:#A80036;stroke-width:1.5;" x1="1089.5" x2="1240.5" y1="220.6406" y2="220.6406"/><line style="stroke:#A80036;stroke-width:1.5;" x1="1089.5" x2="1240.5" y1="228.6406" y2="228.6406"/><!--MD5=[5477e5aa660d9daba356755f6e62b277]
class IBudgetRepo--><rect codeLine="30" fill="#FEFECE" filter="url(#f1ua5xycfg6k65)" height="48" id="IBudgetRepo" style="stroke:#A80036;stroke-width:1.5;" width="105" x="543.5" y="296.6406"/><ellipse cx="558.5" cy="312.6406" fill="#B4A7E5" rx="11" ry="11" style="stroke:#A80036;stroke-width:1.0;"/><path d="M559.4531,309.2813 L559.4531,315.9375 L561.1719,315.9375 Q561.7813,315.9375 562.0469,316.1719 Q562.3125,316.4063 562.3125,316.7969 Q562.3125,317.1719 562.0469,317.4063 Q561.7813,317.6406 561.1719,317.6406 L556.0313,317.6406 Q555.4219,317.6406 555.1563,317.4063 Q554.8906,317.1719 554.8906,316.7813 Q554.8906,316.4063 555.1563,316.1719 Q555.4219,315.9375 556.0313,315.9375 L557.75,315.9375 L557.75,309.2813 L556.0313,309.2813 Q555.4219,309.2813 555.1563,309.0469 Q554.8906,308.8125 554.8906,308.4219 Q554.8906,308.0469 555.1563,307.8125 Q555.4219,307.5781 556.0313,307.5781 L561.1719,307.5781 Q561.7813,307.5781 562.0469,307.8125 Q562.3125,308.0469 562.3125,308.4219 Q562.3125,308.8125 562.0469,309.0469 Q561.7813,309.2813 561.1719,309.2813 L559.4531,309.2813 Z " fill="#000000"/><text fill="#000000" font-family="sans-serif" font-size="12" font-style="italic" lengthAdjust="spacing" textLength="73" x="572.5" y="317.5508">IBudgetRepo</text><line style="stroke:#A80036;stroke-width:1.5;" x1="544.5" x2="647.5" y1="328.6406" y2="328.6406"/><line style="stroke:#A80036;stroke-width:1.5;" x1="544.5" x2="647.5" y1="336.6406" y2="336.6406"/><!--MD5=[ebc33e757d15b5175c786003808cead4]
class JdbcBudgetRepo--><rect codeLine="31" fill="#FEFECE" filter="url(#f1ua5xycfg6k65)" height="48" id="JdbcBudgetRepo" style="stroke:#A80036;stroke-width:1.5;" width="127" x="521.5" y="188.6406"/><ellipse cx="536.5" cy="204.6406" fill="#ADD1B2" rx="11" ry="11" style="stroke:#A80036;stroke-width:1.0;"/><path d="M539.2656,200.5156 Q539.4219,200.2969 539.6094,200.1875 Q539.7969,200.0781 540.0156,200.0781 Q540.3906,200.0781 540.625,200.3438 Q540.8594,200.5938 540.8594,201.2031 L540.8594,202.6563 Q540.8594,203.2656 540.625,203.5313 Q540.3906,203.7969 540.0156,203.7969 Q539.6719,203.7969 539.4688,203.5938 Q539.2656,203.4063 539.1563,202.8906 Q539.1094,202.5313 538.9219,202.3438 Q538.5938,201.9688 537.9844,201.75 Q537.375,201.5313 536.75,201.5313 Q535.9844,201.5313 535.3438,201.8594 Q534.7188,202.1875 534.2188,202.9375 Q533.7344,203.6875 533.7344,204.7188 L533.7344,205.8125 Q533.7344,207.0469 534.625,207.875 Q535.5156,208.6875 537.1094,208.6875 Q538.0469,208.6875 538.7031,208.4375 Q539.0938,208.2813 539.5156,207.8438 Q539.7813,207.5781 539.9219,207.5 Q540.0781,207.4219 540.2813,207.4219 Q540.6094,207.4219 540.8594,207.6875 Q541.125,207.9375 541.125,208.2813 Q541.125,208.625 540.7813,209.0313 Q540.2813,209.6094 539.4844,209.9375 Q538.4063,210.3906 537.1094,210.3906 Q535.5938,210.3906 534.3906,209.7656 Q533.4063,209.2656 532.7188,208.2031 Q532.0313,207.125 532.0313,205.8438 L532.0313,204.6875 Q532.0313,203.3594 532.6406,202.2188 Q533.2656,201.0625 534.3594,200.4531 Q535.4531,199.8281 536.6875,199.8281 Q537.4219,199.8281 538.0625,200 Q538.7188,200.1563 539.2656,200.5156 Z " fill="#000000"/><text fill="#000000" font-family="sans-serif" font-size="12" lengthAdjust="spacing" textLength="95" x="550.5" y="209.5508">JdbcBudgetRepo</text><line style="stroke:#A80036;stroke-width:1.5;" x1="522.5" x2="647.5" y1="220.6406" y2="220.6406"/><line style="stroke:#A80036;stroke-width:1.5;" x1="522.5" x2="647.5" y1="228.6406" y2="228.6406"/><!--MD5=[082ddb16df52bb2ef4ac7c5093302a82]
class IMonthlyBalanceRepo--><rect codeLine="32" fill="#FEFECE" filter="url(#f1ua5xycfg6k65)" height="48" id="IMonthlyBalanceRepo" style="stroke:#A80036;stroke-width:1.5;" width="153" x="945.5" y="296.6406"/><ellipse cx="960.5" cy="312.6406" fill="#B4A7E5" rx="11" ry="11" style="stroke:#A80036;stroke-width:1.0;"/><path d="M961.4531,309.2813 L961.4531,315.9375 L963.1719,315.9375 Q963.7813,315.9375 964.0469,316.1719 Q964.3125,316.4063 964.3125,316.7969 Q964.3125,317.1719 964.0469,317.4063 Q963.7813,317.6406 963.1719,317.6406 L958.0313,317.6406 Q957.4219,317.6406 957.1563,317.4063 Q956.8906,317.1719 956.8906,316.7813 Q956.8906,316.4063 957.1563,316.1719 Q957.4219,315.9375 958.0313,315.9375 L959.75,315.9375 L959.75,309.2813 L958.0313,309.2813 Q957.4219,309.2813 957.1563,309.0469 Q956.8906,308.8125 956.8906,308.4219 Q956.8906,308.0469 957.1563,307.8125 Q957.4219,307.5781 958.0313,307.5781 L963.1719,307.5781 Q963.7813,307.5781 964.0469,307.8125 Q964.3125,308.0469 964.3125,308.4219 Q964.3125,308.8125 964.0469,309.0469 Q963.7813,309.2813 963.1719,309.2813 L961.4531,309.2813 Z " fill="#000000"/><text fill="#000000" font-family="sans-serif" font-size="12" font-style="italic" lengthAdjust="spacing" textLength="121" x="974.5" y="317.5508">IMonthlyBalanceRepo</text><line style="stroke:#A80036;stroke-width:1.5;" x1="946.5" x2="1097.5" y1="328.6406" y2="328.6406"/><line style="stroke:#A80036;stroke-width:1.5;" x1="946.5" x2="1097.5" y1="336.6406" y2="336.6406"/><!--MD5=[19a479c80c38ac139ad6c1485c2b1a1c]
class JdbcMonthlyBalanceRepo--><rect codeLine="33" fill="#FEFECE" filter="url(#f1ua5xycfg6k65)" height="48" id="JdbcMonthlyBalanceRepo" style="stroke:#A80036;stroke-width:1.5;" width="174" x="879" y="188.6406"/><ellipse cx="894" cy="204.6406" fill="#ADD1B2" rx="11" ry="11" style="stroke:#A80036;stroke-width:1.0;"/><path d="M896.7656,200.5156 Q896.9219,200.2969 897.1094,200.1875 Q897.2969,200.0781 897.5156,200.0781 Q897.8906,200.0781 898.125,200.3438 Q898.3594,200.5938 898.3594,201.2031 L898.3594,202.6563 Q898.3594,203.2656 898.125,203.5313 Q897.8906,203.7969 897.5156,203.7969 Q897.1719,203.7969 896.9688,203.5938 Q896.7656,203.4063 896.6563,202.8906 Q896.6094,202.5313 896.4219,202.3438 Q896.0938,201.9688 895.4844,201.75 Q894.875,201.5313 894.25,201.5313 Q893.4844,201.5313 892.8438,201.8594 Q892.2188,202.1875 891.7188,202.9375 Q891.2344,203.6875 891.2344,204.7188 L891.2344,205.8125 Q891.2344,207.0469 892.125,207.875 Q893.0156,208.6875 894.6094,208.6875 Q895.5469,208.6875 896.2031,208.4375 Q896.5938,208.2813 897.0156,207.8438 Q897.2813,207.5781 897.4219,207.5 Q897.5781,207.4219 897.7813,207.4219 Q898.1094,207.4219 898.3594,207.6875 Q898.625,207.9375 898.625,208.2813 Q898.625,208.625 898.2813,209.0313 Q897.7813,209.6094 896.9844,209.9375 Q895.9063,210.3906 894.6094,210.3906 Q893.0938,210.3906 891.8906,209.7656 Q890.9063,209.2656 890.2188,208.2031 Q889.5313,207.125 889.5313,205.8438 L889.5313,204.6875 Q889.5313,203.3594 890.1406,202.2188 Q890.7656,201.0625 891.8594,200.4531 Q892.9531,199.8281 894.1875,199.8281 Q894.9219,199.8281 895.5625,200 Q896.2188,200.1563 896.7656,200.5156 Z " fill="#000000"/><text fill="#000000" font-family="sans-serif" font-size="12" lengthAdjust="spacing" textLength="142" x="908" y="209.5508">JdbcMonthlyBalanceRepo</text><line style="stroke:#A80036;stroke-width:1.5;" x1="880" x2="1052" y1="220.6406" y2="220.6406"/><line style="stroke:#A80036;stroke-width:1.5;" x1="880" x2="1052" y1="228.6406" y2="228.6406"/><!--MD5=[00ed2e38ca12a3a8d098ccd828db6cce]
class IGoalRepo--><rect codeLine="34" fill="#FEFECE" filter="url(#f1ua5xycfg6k65)" height="48" id="IGoalRepo" style="stroke:#A80036;stroke-width:1.5;" width="92" x="1299" y="296.6406"/><ellipse cx="1314" cy="312.6406" fill="#B4A7E5" rx="11" ry="11" style="stroke:#A80036;stroke-width:1.0;"/><path d="M1314.9531,309.2813 L1314.9531,315.9375 L1316.6719,315.9375 Q1317.2813,315.9375 1317.5469,316.1719 Q1317.8125,316.4063 1317.8125,316.7969 Q1317.8125,317.1719 1317.5469,317.4063 Q1317.2813,317.6406 1316.6719,317.6406 L1311.5313,317.6406 Q1310.9219,317.6406 1310.6563,317.4063 Q1310.3906,317.1719 1310.3906,316.7813 Q1310.3906,316.4063 1310.6563,316.1719 Q1310.9219,315.9375 1311.5313,315.9375 L1313.25,315.9375 L1313.25,309.2813 L1311.5313,309.2813 Q1310.9219,309.2813 1310.6563,309.0469 Q1310.3906,308.8125 1310.3906,308.4219 Q1310.3906,308.0469 1310.6563,307.8125 Q1310.9219,307.5781 1311.5313,307.5781 L1316.6719,307.5781 Q1317.2813,307.5781 1317.5469,307.8125 Q1317.8125,308.0469 1317.8125,308.4219 Q1317.8125,308.8125 1317.5469,309.0469 Q1317.2813,309.2813 1316.6719,309.2813 L1314.9531,309.2813 Z " fill="#000000"/><text fill="#000000" font-family="sans-serif" font-size="12" font-style="italic" lengthAdjust="spacing" textLength="60" x="1328" y="317.5508">IGoalRepo</text><line style="stroke:#A80036;stroke-width:1.5;" x1="1300" x2="1390" y1="328.6406" y2="328.6406"/><line style="stroke:#A80036;stroke-width:1.5;" x1="1300" x2="1390" y1="336.6406" y2="336.6406"/><!--MD5=[50e9542955366fb8706d86233eb4f663]
class JdbcGoalRepo--><rect codeLine="35" fill="#FEFECE" filter="url(#f1ua5xycfg6k65)" height="48" id="JdbcGoalRepo" style="stroke:#A80036;stroke-width:1.5;" width="114" x="1277" y="188.6406"/><ellipse cx="1292" cy="204.6406" fill="#ADD1B2" rx="11" ry="11" style="stroke:#A80036;stroke-width:1.0;"/><path d="M1294.7656,200.5156 Q1294.9219,200.2969 1295.1094,200.1875 Q1295.2969,200.0781 1295.5156,200.0781 Q1295.8906,200.0781 1296.125,200.3438 Q1296.3594,200.5938 1296.3594,201.2031 L1296.3594,202.6563 Q1296.3594,203.2656 1296.125,203.5313 Q1295.8906,203.7969 1295.5156,203.7969 Q1295.1719,203.7969 1294.9688,203.5938 Q1294.7656,203.4063 1294.6563,202.8906 Q1294.6094,202.5313 1294.4219,202.3438 Q1294.0938,201.9688 1293.4844,201.75 Q1292.875,201.5313 1292.25,201.5313 Q1291.4844,201.5313 1290.8438,201.8594 Q1290.2188,202.1875 1289.7188,202.9375 Q1289.2344,203.6875 1289.2344,204.7188 L1289.2344,205.8125 Q1289.2344,207.0469 1290.125,207.875 Q1291.0156,208.6875 1292.6094,208.6875 Q1293.5469,208.6875 1294.2031,208.4375 Q1294.5938,208.2813 1295.0156,207.8438 Q1295.2813,207.5781 1295.4219,207.5 Q1295.5781,207.4219 1295.7813,207.4219 Q1296.1094,207.4219 1296.3594,207.6875 Q1296.625,207.9375 1296.625,208.2813 Q1296.625,208.625 1296.2813,209.0313 Q1295.7813,209.6094 1294.9844,209.9375 Q1293.9063,210.3906 1292.6094,210.3906 Q1291.0938,210.3906 1289.8906,209.7656 Q1288.9063,209.2656 1288.2188,208.2031 Q1287.5313,207.125 1287.5313,205.8438 L1287.5313,204.6875 Q1287.5313,203.3594 1288.1406,202.2188 Q1288.7656,201.0625 1289.8594,200.4531 Q1290.9531,199.8281 1292.1875,199.8281 Q1292.9219,199.8281 1293.5625,200 Q1294.2188,200.1563 1294.7656,200.5156 Z " fill="#000000"/><text fill="#000000" font-family="sans-serif" font-size="12" lengthAdjust="spacing" textLength="82" x="1306" y="209.5508">JdbcGoalRepo</text><line style="stroke:#A80036;stroke-width:1.5;" x1="1278" x2="1390" y1="220.6406" y2="220.6406"/><line style="stroke:#A80036;stroke-width:1.5;" x1="1278" x2="1390" y1="228.6406" y2="228.6406"/><!--MD5=[bc57bebde4c3a9d0e4762cbac9a723a1]
class INoteRepo--><rect codeLine="36" fill="#FEFECE" filter="url(#f1ua5xycfg6k65)" height="48" id="INoteRepo" style="stroke:#A80036;stroke-width:1.5;" width="92" x="250" y="296.6406"/><ellipse cx="265" cy="312.6406" fill="#B4A7E5" rx="11" ry="11" style="stroke:#A80036;stroke-width:1.0;"/><path d="M265.9531,309.2813 L265.9531,315.9375 L267.6719,315.9375 Q268.2813,315.9375 268.5469,316.1719 Q268.8125,316.4063 268.8125,316.7969 Q268.8125,317.1719 268.5469,317.4063 Q268.2813,317.6406 267.6719,317.6406 L262.5313,317.6406 Q261.9219,317.6406 261.6563,317.4063 Q261.3906,317.1719 261.3906,316.7813 Q261.3906,316.4063 261.6563,316.1719 Q261.9219,315.9375 262.5313,315.9375 L264.25,315.9375 L264.25,309.2813 L262.5313,309.2813 Q261.9219,309.2813 261.6563,309.0469 Q261.3906,308.8125 261.3906,308.4219 Q261.3906,308.0469 261.6563,307.8125 Q261.9219,307.5781 262.5313,307.5781 L267.6719,307.5781 Q268.2813,307.5781 268.5469,307.8125 Q268.8125,308.0469 268.8125,308.4219 Q268.8125,308.8125 268.5469,309.0469 Q268.2813,309.2813 267.6719,309.2813 L265.9531,309.2813 Z " fill="#000000"/><text fill="#000000" font-family="sans-serif" font-size="12" font-style="italic" lengthAdjust="spacing" textLength="60" x="279" y="317.5508">INoteRepo</text><line style="stroke:#A80036;stroke-width:1.5;" x1="251" x2="341" y1="328.6406" y2="328.6406"/><line style="stroke:#A80036;stroke-width:1.5;" x1="251" x2="341" y1="336.6406" y2="336.6406"/><!--MD5=[7ca85ba68d3ed0e50da1b12f3f65dc9e]
class JdbcNoteRepo--><rect codeLine="37" fill="#FEFECE" filter="url(#f1ua5xycfg6k65)" height="48" id="JdbcNoteRepo" style="stroke:#A80036;stroke-width:1.5;" width="114" x="222" y="188.6406"/><ellipse cx="237" cy="204.6406" fill="#ADD1B2" rx="11" ry="11" style="stroke:#A80036;stroke-width:1.0;"/><path d="M239.7656,200.5156 Q239.9219,200.2969 240.1094,200.1875 Q240.2969,200.0781 240.5156,200.0781 Q240.8906,200.0781 241.125,200.3438 Q241.3594,200.5938 241.3594,201.2031 L241.3594,202.6563 Q241.3594,203.2656 241.125,203.5313 Q240.8906,203.7969 240.5156,203.7969 Q240.1719,203.7969 239.9688,203.5938 Q239.7656,203.4063 239.6563,202.8906 Q239.6094,202.5313 239.4219,202.3438 Q239.0938,201.9688 238.4844,201.75 Q237.875,201.5313 237.25,201.5313 Q236.4844,201.5313 235.8438,201.8594 Q235.2188,202.1875 234.7188,202.9375 Q234.2344,203.6875 234.2344,204.7188 L234.2344,205.8125 Q234.2344,207.0469 235.125,207.875 Q236.0156,208.6875 237.6094,208.6875 Q238.5469,208.6875 239.2031,208.4375 Q239.5938,208.2813 240.0156,207.8438 Q240.2813,207.5781 240.4219,207.5 Q240.5781,207.4219 240.7813,207.4219 Q241.1094,207.4219 241.3594,207.6875 Q241.625,207.9375 241.625,208.2813 Q241.625,208.625 241.2813,209.0313 Q240.7813,209.6094 239.9844,209.9375 Q238.9063,210.3906 237.6094,210.3906 Q236.0938,210.3906 234.8906,209.7656 Q233.9063,209.2656 233.2188,208.2031 Q232.5313,207.125 232.5313,205.8438 L232.5313,204.6875 Q232.5313,203.3594 233.1406,202.2188 Q233.7656,201.0625 234.8594,200.4531 Q235.9531,199.8281 237.1875,199.8281 Q237.9219,199.8281 238.5625,200 Q239.2188,200.1563 239.7656,200.5156 Z " fill="#000000"/><text fill="#000000" font-family="sans-serif" font-size="12" lengthAdjust="spacing" textLength="82" x="251" y="209.5508">JdbcNoteRepo</text><line style="stroke:#A80036;stroke-width:1.5;" x1="223" x2="335" y1="220.6406" y2="220.6406"/><line style="stroke:#A80036;stroke-width:1.5;" x1="223" x2="335" y1="228.6406" y2="228.6406"/><!--MD5=[c16631936491af1075d802f6c67f55c1]
class IUserSettingsRepo--><rect codeLine="38" fill="#FEFECE" filter="url(#f1ua5xycfg6k65)" height="48" id="IUserSettingsRepo" style="stroke:#A80036;stroke-width:1.5;" width="136" x="735" y="296.6406"/><ellipse cx="750" cy="312.6406" fill="#B4A7E5" rx="11" ry="11" style="stroke:#A80036;stroke-width:1.0;"/><path d="M750.9531,309.2813 L750.9531,315.9375 L752.6719,315.9375 Q753.2813,315.9375 753.5469,316.1719 Q753.8125,316.4063 753.8125,316.7969 Q753.8125,317.1719 753.5469,317.4063 Q753.2813,317.6406 752.6719,317.6406 L747.5313,317.6406 Q746.9219,317.6406 746.6563,317.4063 Q746.3906,317.1719 746.3906,316.7813 Q746.3906,316.4063 746.6563,316.1719 Q746.9219,315.9375 747.5313,315.9375 L749.25,315.9375 L749.25,309.2813 L747.5313,309.2813 Q746.9219,309.2813 746.6563,309.0469 Q746.3906,308.8125 746.3906,308.4219 Q746.3906,308.0469 746.6563,307.8125 Q746.9219,307.5781 747.5313,307.5781 L752.6719,307.5781 Q753.2813,307.5781 753.5469,307.8125 Q753.8125,308.0469 753.8125,308.4219 Q753.8125,308.8125 753.5469,309.0469 Q753.2813,309.2813 752.6719,309.2813 L750.9531,309.2813 Z " fill="#000000"/><text fill="#000000" font-family="sans-serif" font-size="12" font-style="italic" lengthAdjust="spacing" textLength="104" x="764" y="317.5508">IUserSettingsRepo</text><line style="stroke:#A80036;stroke-width:1.5;" x1="736" x2="870" y1="328.6406" y2="328.6406"/><line style="stroke:#A80036;stroke-width:1.5;" x1="736" x2="870" y1="336.6406" y2="336.6406"/><!--MD5=[9b8f67c471d034b4d5a39d5558bbc9eb]
class JdbcUserSettingsRepo--><rect codeLine="39" fill="#FEFECE" filter="url(#f1ua5xycfg6k65)" height="48" id="JdbcUserSettingsRepo" style="stroke:#A80036;stroke-width:1.5;" width="160" x="684" y="188.6406"/><ellipse cx="699" cy="204.6406" fill="#ADD1B2" rx="11" ry="11" style="stroke:#A80036;stroke-width:1.0;"/><path d="M701.7656,200.5156 Q701.9219,200.2969 702.1094,200.1875 Q702.2969,200.0781 702.5156,200.0781 Q702.8906,200.0781 703.125,200.3438 Q703.3594,200.5938 703.3594,201.2031 L703.3594,202.6563 Q703.3594,203.2656 703.125,203.5313 Q702.8906,203.7969 702.5156,203.7969 Q702.1719,203.7969 701.9688,203.5938 Q701.7656,203.4063 701.6563,202.8906 Q701.6094,202.5313 701.4219,202.3438 Q701.0938,201.9688 700.4844,201.75 Q699.875,201.5313 699.25,201.5313 Q698.4844,201.5313 697.8438,201.8594 Q697.2188,202.1875 696.7188,202.9375 Q696.2344,203.6875 696.2344,204.7188 L696.2344,205.8125 Q696.2344,207.0469 697.125,207.875 Q698.0156,208.6875 699.6094,208.6875 Q700.5469,208.6875 701.2031,208.4375 Q701.5938,208.2813 702.0156,207.8438 Q702.2813,207.5781 702.4219,207.5 Q702.5781,207.4219 702.7813,207.4219 Q703.1094,207.4219 703.3594,207.6875 Q703.625,207.9375 703.625,208.2813 Q703.625,208.625 703.2813,209.0313 Q702.7813,209.6094 701.9844,209.9375 Q700.9063,210.3906 699.6094,210.3906 Q698.0938,210.3906 696.8906,209.7656 Q695.9063,209.2656 695.2188,208.2031 Q694.5313,207.125 694.5313,205.8438 L694.5313,204.6875 Q694.5313,203.3594 695.1406,202.2188 Q695.7656,201.0625 696.8594,200.4531 Q697.9531,199.8281 699.1875,199.8281 Q699.9219,199.8281 700.5625,200 Q701.2188,200.1563 701.7656,200.5156 Z " fill="#000000"/><text fill="#000000" font-family="sans-serif" font-size="12" lengthAdjust="spacing" textLength="128" x="713" y="209.5508">JdbcUserSettingsRepo</text><line style="stroke:#A80036;stroke-width:1.5;" x1="685" x2="843" y1="220.6406" y2="220.6406"/><line style="stroke:#A80036;stroke-width:1.5;" x1="685" x2="843" y1="228.6406" y2="228.6406"/><!--MD5=[e8391f0a80070d935972f1287a6892f2]
class DatabaseConfig--><rect codeLine="43" fill="#FEFECE" filter="url(#f1ua5xycfg6k65)" height="48" id="DatabaseConfig" style="stroke:#A80036;stroke-width:1.5;" width="122" x="44" y="296.6406"/><ellipse cx="59" cy="312.6406" fill="#ADD1B2" rx="11" ry="11" style="stroke:#A80036;stroke-width:1.0;"/><path d="M61.7656,308.5156 Q61.9219,308.2969 62.1094,308.1875 Q62.2969,308.0781 62.5156,308.0781 Q62.8906,308.0781 63.125,308.3438 Q63.3594,308.5938 63.3594,309.2031 L63.3594,310.6563 Q63.3594,311.2656 63.125,311.5313 Q62.8906,311.7969 62.5156,311.7969 Q62.1719,311.7969 61.9688,311.5938 Q61.7656,311.4063 61.6563,310.8906 Q61.6094,310.5313 61.4219,310.3438 Q61.0938,309.9688 60.4844,309.75 Q59.875,309.5313 59.25,309.5313 Q58.4844,309.5313 57.8438,309.8594 Q57.2188,310.1875 56.7188,310.9375 Q56.2344,311.6875 56.2344,312.7188 L56.2344,313.8125 Q56.2344,315.0469 57.125,315.875 Q58.0156,316.6875 59.6094,316.6875 Q60.5469,316.6875 61.2031,316.4375 Q61.5938,316.2813 62.0156,315.8438 Q62.2813,315.5781 62.4219,315.5 Q62.5781,315.4219 62.7813,315.4219 Q63.1094,315.4219 63.3594,315.6875 Q63.625,315.9375 63.625,316.2813 Q63.625,316.625 63.2813,317.0313 Q62.7813,317.6094 61.9844,317.9375 Q60.9063,318.3906 59.6094,318.3906 Q58.0938,318.3906 56.8906,317.7656 Q55.9063,317.2656 55.2188,316.2031 Q54.5313,315.125 54.5313,313.8438 L54.5313,312.6875 Q54.5313,311.3594 55.1406,310.2188 Q55.7656,309.0625 56.8594,308.4531 Q57.9531,307.8281 59.1875,307.8281 Q59.9219,307.8281 60.5625,308 Q61.2188,308.1563 61.7656,308.5156 Z " fill="#000000"/><text fill="#000000" font-family="sans-serif" font-size="12" lengthAdjust="spacing" textLength="90" x="73" y="317.5508">DatabaseConfig</text><line style="stroke:#A80036;stroke-width:1.5;" x1="45" x2="165" y1="328.6406" y2="328.6406"/><line style="stroke:#A80036;stroke-width:1.5;" x1="45" x2="165" y1="336.6406" y2="336.6406"/><!--MD5=[2c2d10bda5be53f3e4efb927d57cfca6]
class DatabaseInitializer--><rect codeLine="44" fill="#FEFECE" filter="url(#f1ua5xycfg6k65)" height="48" id="DatabaseInitializer" style="stroke:#A80036;stroke-width:1.5;" width="134" x="32" y="188.6406"/><ellipse cx="47" cy="204.6406" fill="#ADD1B2" rx="11" ry="11" style="stroke:#A80036;stroke-width:1.0;"/><path d="M49.7656,200.5156 Q49.9219,200.2969 50.1094,200.1875 Q50.2969,200.0781 50.5156,200.0781 Q50.8906,200.0781 51.125,200.3438 Q51.3594,200.5938 51.3594,201.2031 L51.3594,202.6563 Q51.3594,203.2656 51.125,203.5313 Q50.8906,203.7969 50.5156,203.7969 Q50.1719,203.7969 49.9688,203.5938 Q49.7656,203.4063 49.6563,202.8906 Q49.6094,202.5313 49.4219,202.3438 Q49.0938,201.9688 48.4844,201.75 Q47.875,201.5313 47.25,201.5313 Q46.4844,201.5313 45.8438,201.8594 Q45.2188,202.1875 44.7188,202.9375 Q44.2344,203.6875 44.2344,204.7188 L44.2344,205.8125 Q44.2344,207.0469 45.125,207.875 Q46.0156,208.6875 47.6094,208.6875 Q48.5469,208.6875 49.2031,208.4375 Q49.5938,208.2813 50.0156,207.8438 Q50.2813,207.5781 50.4219,207.5 Q50.5781,207.4219 50.7813,207.4219 Q51.1094,207.4219 51.3594,207.6875 Q51.625,207.9375 51.625,208.2813 Q51.625,208.625 51.2813,209.0313 Q50.7813,209.6094 49.9844,209.9375 Q48.9063,210.3906 47.6094,210.3906 Q46.0938,210.3906 44.8906,209.7656 Q43.9063,209.2656 43.2188,208.2031 Q42.5313,207.125 42.5313,205.8438 L42.5313,204.6875 Q42.5313,203.3594 43.1406,202.2188 Q43.7656,201.0625 44.8594,200.4531 Q45.9531,199.8281 47.1875,199.8281 Q47.9219,199.8281 48.5625,200 Q49.2188,200.1563 49.7656,200.5156 Z " fill="#000000"/><text fill="#000000" font-family="sans-serif" font-size="12" lengthAdjust="spacing" textLength="102" x="61" y="209.5508">DatabaseInitializer</text><line style="stroke:#A80036;stroke-width:1.5;" x1="33" x2="165" y1="220.6406" y2="220.6406"/><line style="stroke:#A80036;stroke-width:1.5;" x1="33" x2="165" y1="228.6406" y2="228.6406"/><!--MD5=[73bd0b46b4ce245e3e8ecc72050cb31c]
entity SQLite--><path d="M33.5,414.6406 C33.5,404.6406 105,404.6406 105,404.6406 C105,404.6406 176.5,404.6406 176.5,414.6406 L176.5,458.8594 C176.5,468.8594 105,468.8594 105,468.8594 C105,468.8594 33.5,468.8594 33.5,458.8594 L33.5,414.6406 " fill="#FEFECE" filter="url(#f1ua5xycfg6k65)" style="stroke:#000000;stroke-width:1.5;"/><path d="M33.5,414.6406 C33.5,424.6406 105,424.6406 105,424.6406 C105,424.6406 176.5,424.6406 176.5,414.6406 " fill="none" style="stroke:#000000;stroke-width:1.5;"/><text fill="#000000" font-family="sans-serif" font-size="14" lengthAdjust="spacing" textLength="66" x="43.5" y="443.1738">SQLite DB</text><text fill="#000000" font-family="sans-serif" font-size="14" lengthAdjust="spacing" textLength="123" x="43.5" y="460.7832">money-manager.db</text><!--MD5=[a7dda7a867852a8cbbfd5d5927375026]
link LoginController to AuthService--><path codeLine="49" d="M1685.48,112.8706 C1673.68,133.1406 1656.55,162.5806 1644.06,184.0406 " fill="none" id="LoginController-to-AuthService" style="stroke:#A80036;stroke-width:1.0;"/><polygon fill="#A80036" points="1641.47,188.4906,1649.4493,182.7173,1643.9814,184.1671,1642.5316,178.6992,1641.47,188.4906" style="stroke:#A80036;stroke-width:1.0;"/><!--MD5=[4d0d3036b54abab758d2258de48d32b7]
link TransactionController to TransactionService--><path codeLine="50" d="M2044.76,112.8706 C2059.44,133.2306 2080.79,162.8206 2096.29,184.3106 " fill="none" id="TransactionController-to-TransactionService" style="stroke:#A80036;stroke-width:1.0;"/><polygon fill="#A80036" points="2099.3,188.4906,2097.2758,178.852,2096.3736,184.4365,2090.7891,183.5343,2099.3,188.4906" style="stroke:#A80036;stroke-width:1.0;"/><!--MD5=[d4b32a83b1f723368f20d2597df10b2a]
link BudgetController to BudgetService--><path codeLine="51" d="M1838.24,112.8706 C1823.56,133.2306 1802.21,162.8206 1786.71,184.3106 " fill="none" id="BudgetController-to-BudgetService" style="stroke:#A80036;stroke-width:1.0;"/><polygon fill="#A80036" points="1783.7,188.4906,1792.2109,183.5343,1786.6264,184.4365,1785.7242,178.852,1783.7,188.4906" style="stroke:#A80036;stroke-width:1.0;"/><!--MD5=[399ec1233b19d8ab5ff5c182e38c2beb]
link GoalController to GoalService--><path codeLine="52" d="M2389.43,112.8706 C2399.35,133.0606 2413.75,162.3306 2424.29,183.7706 " fill="none" id="GoalController-to-GoalService" style="stroke:#A80036;stroke-width:1.0;"/><polygon fill="#A80036" points="2426.62,188.4906,2426.2231,178.6498,2424.4068,184.0071,2419.0495,182.1909,2426.62,188.4906" style="stroke:#A80036;stroke-width:1.0;"/><!--MD5=[e2db640361b2df79f0d5faf94082acbd]
link NoteController to NoteService--><path codeLine="53" d="M1538.91,112.8706 C1530.14,133.0606 1517.42,162.3306 1508.11,183.7706 " fill="none" id="NoteController-to-NoteService" style="stroke:#A80036;stroke-width:1.0;"/><polygon fill="#A80036" points="1506.06,188.4906,1513.3069,181.8212,1508.0468,183.9023,1505.9657,178.6422,1506.06,188.4906" style="stroke:#A80036;stroke-width:1.0;"/><!--MD5=[db6ae946e66bf597d33e914674977435]
link DashboardController to DashboardService--><path codeLine="54" d="M2227.09,112.8706 C2239.39,133.1406 2257.24,162.5806 2270.26,184.0406 " fill="none" id="DashboardController-to-DashboardService" style="stroke:#A80036;stroke-width:1.0;"/><polygon fill="#A80036" points="2272.96,188.4906,2271.7211,178.72,2270.3707,184.2133,2264.8774,182.8629,2272.96,188.4906" style="stroke:#A80036;stroke-width:1.0;"/><!--MD5=[73b0be37580533447b414df22b801b28]
link AuthService to IUserRepo--><path codeLine="56" d="M1603.44,236.7206 C1592.04,245.9506 1577.75,255.5806 1563,260.6406 C1344.89,335.4406 754.06,262.6306 526,296.6406 C514.5,298.3606 502.33,301.0506 490.87,304.0006 " fill="none" id="AuthService-to-IUserRepo" style="stroke:#A80036;stroke-width:1.0;"/><polygon fill="#A80036" points="486.01,305.2806,495.7307,306.8641,490.8461,304.011,493.6993,299.1264,486.01,305.2806" style="stroke:#A80036;stroke-width:1.0;"/><!--MD5=[f5b5fc0b9ad0ce6ce1f44422f9661767]
link TransactionService to ITransactionRepo--><path codeLine="57" d="M2081.98,236.8706 C2066.76,246.0106 2048.18,255.5306 2030,260.6406 C1869.8,305.6906 1446.31,270.2606 1282,296.6406 C1277.86,297.3006 1273.63,298.1006 1269.39,298.9906 " fill="none" id="TransactionService-to-ITransactionRepo" style="stroke:#A80036;stroke-width:1.0;"/><polygon fill="#A80036" points="1264.4,300.0706,1274.0424,302.0768,1269.2869,299.0132,1272.3505,294.2578,1264.4,300.0706" style="stroke:#A80036;stroke-width:1.0;"/><!--MD5=[82e9bbca3c95c59fb3101f94144c7cf7]
link BudgetService to IBudgetRepo--><path codeLine="58" d="M1738.98,236.7206 C1726.09,245.9506 1710.11,255.5806 1694,260.6406 C1486.73,325.7606 932.89,272.2906 717,296.6406 C696.24,298.9806 673.69,302.8906 653.76,306.8206 " fill="none" id="BudgetService-to-IBudgetRepo" style="stroke:#A80036;stroke-width:1.0;"/><polygon fill="#A80036" points="648.75,307.8206,658.356,309.9941,653.6545,306.8483,656.8003,302.1468,648.75,307.8206" style="stroke:#A80036;stroke-width:1.0;"/><!--MD5=[e051bf7f800cc12fd158d4ef282e5546]
link BudgetService to IMonthlyBalanceRepo--><path codeLine="59" d="M1738.57,236.7706 C1725.73,245.8906 1709.9,255.4206 1694,260.6406 C1571.94,300.7106 1244.03,277.4506 1117,296.6406 C1112.56,297.3106 1108.03,298.0906 1103.47,298.9406 " fill="none" id="BudgetService-to-IMonthlyBalanceRepo" style="stroke:#A80036;stroke-width:1.0;"/><polygon fill="#A80036" points="1098.51,299.9006,1108.1025,302.1332,1103.4204,298.9585,1106.5951,294.2765,1098.51,299.9006" style="stroke:#A80036;stroke-width:1.0;"/><!--MD5=[e185fd7f7c490a78efabb9b5e2221895]
link GoalService to IGoalRepo--><path codeLine="60" d="M2412.64,236.8106 C2401.09,245.9406 2386.73,255.4606 2372,260.6406 C2279.58,293.1406 1591.06,313.2706 1396.23,318.3606 " fill="none" id="GoalService-to-IGoalRepo" style="stroke:#A80036;stroke-width:1.0;"/><polygon fill="#A80036" points="1391.16,318.4906,1400.2598,322.258,1396.1583,318.3621,1400.0542,314.2606,1391.16,318.4906" style="stroke:#A80036;stroke-width:1.0;"/><!--MD5=[8c05a77231a45e90e35a539552670bb9]
link NoteService to INoteRepo--><path codeLine="61" d="M1461.15,236.7406 C1445.31,245.9806 1425.91,255.6006 1407,260.6406 C1185.48,319.6606 602.42,260.7006 376,296.6406 C366.52,298.1406 356.57,300.4206 347.04,302.9606 " fill="none" id="NoteService-to-INoteRepo" style="stroke:#A80036;stroke-width:1.0;"/><polygon fill="#A80036" points="342.1,304.3106,351.8346,305.8065,346.9245,302.9975,349.7335,298.0873,342.1,304.3106" style="stroke:#A80036;stroke-width:1.0;"/><!--MD5=[a0bc28d1eb52ee08f6d9cafce5bcff3e]
link DashboardService to ITransactionRepo--><path codeLine="62" d="M2253.84,236.7106 C2238.73,245.9306 2220.19,255.5606 2202,260.6406 C2004.93,315.6306 1484.16,265.1106 1282,296.6406 C1277.86,297.2906 1273.63,298.0706 1269.38,298.9406 " fill="none" id="DashboardService-to-ITransactionRepo" style="stroke:#A80036;stroke-width:1.0;"/><polygon fill="#A80036" points="1264.39,300.0206,1274.0255,302.0595,1269.2805,298.9798,1272.3602,294.2348,1264.39,300.0206" style="stroke:#A80036;stroke-width:1.0;"/><!--MD5=[7995236d11df7e625b416f9d593811d8]
link DashboardService to IGoalRepo--><path codeLine="63" d="M2253.36,236.7006 C2238.32,245.8006 2219.95,255.3406 2202,260.6406 C2049.62,305.6006 1557.26,316.5906 1396.38,319.0106 " fill="none" id="DashboardService-to-IGoalRepo" style="stroke:#A80036;stroke-width:1.0;"/><polygon fill="#A80036" points="1391.26,319.0906,1400.3162,322.9617,1396.2595,319.0192,1400.2019,314.9625,1391.26,319.0906" style="stroke:#A80036;stroke-width:1.0;"/><!--MD5=[345e0afe95899c553931aac4f080a7a3]
link MonthlyIncomeService to IUserSettingsRepo--><path codeLine="64" d="M1897.6,236.6906 C1880.65,245.9206 1859.97,255.5506 1840,260.6406 C1643.45,310.7106 1129.58,274.2306 928,296.6406 C911.21,298.5106 893.27,301.3106 876.39,304.3306 " fill="none" id="MonthlyIncomeService-to-IUserSettingsRepo" style="stroke:#A80036;stroke-width:1.0;"/><polygon fill="#A80036" points="871.18,305.2806,880.7521,307.5988,876.0987,304.3824,879.315,299.729,871.18,305.2806" style="stroke:#A80036;stroke-width:1.0;"/><!--MD5=[501c603e46fb815a04b2eee43ea0e4ad]
link MonthlyIncomeService to ITransactionRepo--><path codeLine="65" d="M1897.08,236.7006 C1880.21,245.8106 1859.73,255.3506 1840,260.6406 C1599.96,324.9906 1527.04,255.2406 1282,296.6406 C1277.87,297.3406 1273.64,298.1606 1269.4,299.0706 " fill="none" id="MonthlyIncomeService-to-ITransactionRepo" style="stroke:#A80036;stroke-width:1.0;"/><polygon fill="#A80036" points="1264.41,300.1706,1274.0579,302.1499,1269.2939,299.0996,1272.3443,294.3356,1264.41,300.1706" style="stroke:#A80036;stroke-width:1.0;"/><!--MD5=[658f03473ebd82b7643b283e84f70725]
link MonthlyIncomeService to IMonthlyBalanceRepo--><path codeLine="66" d="M1897.12,236.8406 C1880.25,245.9806 1859.77,255.5006 1840,260.6406 C1528.64,341.6706 1435.42,250.5806 1117,296.6406 C1112.71,297.2606 1108.34,297.9806 1103.94,298.7906 " fill="none" id="MonthlyIncomeService-to-IMonthlyBalanceRepo" style="stroke:#A80036;stroke-width:1.0;"/><polygon fill="#A80036" points="1098.76,299.7606,1108.3398,302.047,1103.6757,298.8461,1106.8765,294.1819,1098.76,299.7606" style="stroke:#A80036;stroke-width:1.0;"/><!--MD5=[d9e19bd96b270136ea355283b79785b5]
link JdbcUserRepo to IUserRepo--><path codeLine="68" d="M431.39,236.6406 C432.59,248.2306 434.09,262.6706 435.5,276.2406 " fill="none" id="JdbcUserRepo-to-IUserRepo" style="stroke:#A80036;stroke-width:1.0;stroke-dasharray:7.0,7.0;"/><polygon fill="none" points="442.48,275.7006,437.58,296.3206,428.55,277.1506,442.48,275.7006" style="stroke:#A80036;stroke-width:1.0;"/><!--MD5=[5603bb34f211020fbe17a69adf05dd6a]
link JdbcTransactionRepo to ITransactionRepo--><path codeLine="69" d="M1172.38,236.6406 C1176.18,248.5006 1180.95,263.3606 1185.39,277.2106 " fill="none" id="JdbcTransactionRepo-to-ITransactionRepo" style="stroke:#A80036;stroke-width:1.0;stroke-dasharray:7.0,7.0;"/><polygon fill="none" points="1192.08,275.1406,1191.52,296.3206,1178.75,279.4106,1192.08,275.1406" style="stroke:#A80036;stroke-width:1.0;"/><!--MD5=[4460c34f3ae7610ffe783a84590c2d8e]
link JdbcBudgetRepo to IBudgetRepo--><path codeLine="70" d="M587.39,236.6406 C588.59,248.2306 590.09,262.6706 591.5,276.2406 " fill="none" id="JdbcBudgetRepo-to-IBudgetRepo" style="stroke:#A80036;stroke-width:1.0;stroke-dasharray:7.0,7.0;"/><polygon fill="none" points="598.48,275.7006,593.58,296.3206,584.55,277.1506,598.48,275.7006" style="stroke:#A80036;stroke-width:1.0;"/><!--MD5=[2e8c9a9fad25b0a51cfd0fb821bfbebf]
link JdbcMonthlyBalanceRepo to IMonthlyBalanceRepo--><path codeLine="71" d="M978.15,236.6406 C984.56,248.7806 992.63,264.0506 1000.09,278.1706 " fill="none" id="JdbcMonthlyBalanceRepo-to-IMonthlyBalanceRepo" style="stroke:#A80036;stroke-width:1.0;stroke-dasharray:7.0,7.0;"/><polygon fill="none" points="1006.53,275.3606,1009.68,296.3206,994.15,281.9006,1006.53,275.3606" style="stroke:#A80036;stroke-width:1.0;"/><!--MD5=[4dd89e0eeaf0e6deaeadb96eb40a4de2]
link JdbcGoalRepo to IGoalRepo--><path codeLine="72" d="M1336.39,236.6406 C1337.59,248.2306 1339.09,262.6706 1340.5,276.2406 " fill="none" id="JdbcGoalRepo-to-IGoalRepo" style="stroke:#A80036;stroke-width:1.0;stroke-dasharray:7.0,7.0;"/><polygon fill="none" points="1347.48,275.7006,1342.58,296.3206,1333.55,277.1506,1347.48,275.7006" style="stroke:#A80036;stroke-width:1.0;"/><!--MD5=[bd0e1e377c2d52d96a8230bea66026c6]
link JdbcNoteRepo to INoteRepo--><path codeLine="73" d="M282.69,236.6406 C284.55,248.2306 286.86,262.6706 289.04,276.2406 " fill="none" id="JdbcNoteRepo-to-INoteRepo" style="stroke:#A80036;stroke-width:1.0;stroke-dasharray:7.0,7.0;"/><polygon fill="none" points="296,275.4606,292.26,296.3206,282.18,277.6806,296,275.4606" style="stroke:#A80036;stroke-width:1.0;"/><!--MD5=[f622a602fc8240ed6487d09d04375443]
link JdbcUserSettingsRepo to IUserSettingsRepo--><path codeLine="74" d="M772.46,236.6406 C776.83,248.5006 782.29,263.3606 787.39,277.2106 " fill="none" id="JdbcUserSettingsRepo-to-IUserSettingsRepo" style="stroke:#A80036;stroke-width:1.0;stroke-dasharray:7.0,7.0;"/><polygon fill="none" points="794.08,275.1306,794.42,296.3206,780.94,279.9706,794.08,275.1306" style="stroke:#A80036;stroke-width:1.0;"/><!--MD5=[30526fc849101cd4a01b7d62a32bc5b1]
link DatabaseInitializer to DatabaseConfig--><path codeLine="76" d="M100.3,236.6406 C101.21,252.6406 102.42,274.0906 103.39,291.1706 " fill="none" id="DatabaseInitializer-to-DatabaseConfig" style="stroke:#A80036;stroke-width:1.0;"/><polygon fill="#A80036" points="103.68,296.3206,107.1585,287.1065,103.3939,291.3288,99.1716,287.5642,103.68,296.3206" style="stroke:#A80036;stroke-width:1.0;"/><!--MD5=[93063835dbc16a8222bf56ff06c16429]
link JdbcUserRepo to DatabaseConfig--><path codeLine="77" d="M396.94,236.6406 C383.83,245.1906 368.19,254.3306 353,260.6406 C344.48,264.1806 241.84,288.1406 171.31,304.4206 " fill="none" id="JdbcUserRepo-to-DatabaseConfig" style="stroke:#A80036;stroke-width:1.0;"/><polygon fill="#A80036" points="166.29,305.5706,175.9553,307.4631,171.1641,304.4557,174.1715,299.6645,166.29,305.5706" style="stroke:#A80036;stroke-width:1.0;"/><!--MD5=[5199e75851144260f37c092809685515]
link JdbcTransactionRepo to DatabaseConfig--><path codeLine="78" d="M1128.02,236.6806 C1111.25,245.9006 1090.79,255.5306 1071,260.6406 C884.72,308.7306 396.7,271.1806 206,296.6406 C194.61,298.1606 182.62,300.3506 171.04,302.7906 " fill="none" id="JdbcTransactionRepo-to-DatabaseConfig" style="stroke:#A80036;stroke-width:1.0;"/><polygon fill="#A80036" points="166.1,303.8506,175.7367,305.8838,170.9898,302.8069,174.0667,298.06,166.1,303.8506" style="stroke:#A80036;stroke-width:1.0;"/><!--MD5=[76261adb4718d66861729e85aa59f034]
link JdbcBudgetRepo to DatabaseConfig--><path codeLine="79" d="M552.17,236.7706 C537.98,245.6606 520.81,255.0106 504,260.6406 C377.49,302.9806 337.44,273.8006 206,296.6406 C194.68,298.6106 182.72,301.0206 171.15,303.5406 " fill="none" id="JdbcBudgetRepo-to-DatabaseConfig" style="stroke:#A80036;stroke-width:1.0;"/><polygon fill="#A80036" points="166.22,304.6306,175.8746,306.577,171.1003,303.5429,174.1343,298.7686,166.22,304.6306" style="stroke:#A80036;stroke-width:1.0;"/><!--MD5=[f21f38ae6fa2f93998e8fe827ea07c0c]
link JdbcMonthlyBalanceRepo to DatabaseConfig--><path codeLine="80" d="M924.51,236.6506 C905.96,245.8006 883.46,255.4006 862,260.6406 C578.35,329.9406 495.16,256.0806 206,296.6406 C194.62,298.2406 182.64,300.4706 171.05,302.9206 " fill="none" id="JdbcMonthlyBalanceRepo-to-DatabaseConfig" style="stroke:#A80036;stroke-width:1.0;"/><polygon fill="#A80036" points="166.12,303.9806,175.7567,306.0138,171.0098,302.9369,174.0867,298.19,166.12,303.9806" style="stroke:#A80036;stroke-width:1.0;"/><!--MD5=[163494986f917587051a2adddadfed3c]
link JdbcGoalRepo to DatabaseConfig--><path codeLine="81" d="M1305.13,236.7406 C1291.87,245.9806 1275.46,255.6006 1259,260.6406 C1035.11,329.1606 438.19,266.5106 206,296.6406 C194.61,298.1206 182.61,300.2906 171.03,302.7206 " fill="none" id="JdbcGoalRepo-to-DatabaseConfig" style="stroke:#A80036;stroke-width:1.0;"/><polygon fill="#A80036" points="166.09,303.7706,175.7267,305.8038,170.9798,302.7269,174.0567,297.98,166.09,303.7706" style="stroke:#A80036;stroke-width:1.0;"/><!--MD5=[f355cc42af31fa529e130ad553132549]
link JdbcNoteRepo to DatabaseConfig--><path codeLine="82" d="M241.24,236.6406 C213.64,253.4606 176.16,276.2906 147.5,293.7506 " fill="none" id="JdbcNoteRepo-to-DatabaseConfig" style="stroke:#A80036;stroke-width:1.0;"/><polygon fill="#A80036" points="142.98,296.5006,152.7457,295.2234,147.2471,293.8945,148.5759,288.396,142.98,296.5006" style="stroke:#A80036;stroke-width:1.0;"/><!--MD5=[4cb8ed3c2d76fb5616ab20ce7938f63e]
link JdbcUserSettingsRepo to DatabaseConfig--><path codeLine="83" d="M724.29,236.8106 C706.96,245.8206 686.04,255.2506 666,260.6406 C467.96,313.8806 408.74,265.7906 206,296.6406 C194.64,298.3706 182.67,300.6706 171.09,303.1406 " fill="none" id="JdbcUserSettingsRepo-to-DatabaseConfig" style="stroke:#A80036;stroke-width:1.0;"/><polygon fill="#A80036" points="166.15,304.2106,175.7979,306.1899,171.0339,303.1396,174.0843,298.3756,166.15,304.2106" style="stroke:#A80036;stroke-width:1.0;"/><!--MD5=[095e7fb23a650453c7b607a6eb76bf4b]
link DatabaseConfig to SQLite--><path codeLine="85" d="M105,344.7106 C105,360.2806 105,381.1506 105,398.9706 " fill="none" id="DatabaseConfig-to-SQLite" style="stroke:#A80036;stroke-width:1.0;"/><polygon fill="#A80036" points="105,404.3906,109,395.3906,105,399.3906,101,395.3906,105,404.3906" style="stroke:#A80036;stroke-width:1.0;"/><!--MD5=[540848dbc612817de30c42cd15995402]
@startuml MoneyManager
allowmixing
title Money Manager - High Level Architecture

skinparam backgroundColor white

package "UI (JavaFX)" {
  class LoginController
  class TransactionController
  class BudgetController
  class GoalController
  class NoteController
  class DashboardController
}

package "Services" {
  class AuthService
  class TransactionService
  class BudgetService
  class GoalService
  class NoteService
  class DashboardService
  class MonthlyIncomeService
}

package "Repositories (JDBC)" {
  interface IUserRepo
  class JdbcUserRepo
  interface ITransactionRepo
  class JdbcTransactionRepo
  interface IBudgetRepo
  class JdbcBudgetRepo
  interface IMonthlyBalanceRepo
  class JdbcMonthlyBalanceRepo
  interface IGoalRepo
  class JdbcGoalRepo
  interface INoteRepo
  class JdbcNoteRepo
  interface IUserSettingsRepo
  class JdbcUserSettingsRepo
}

package "DB Config" {
  class DatabaseConfig
  class DatabaseInitializer
}

database "SQLite DB\nmoney-manager.db" as SQLite

LoginController - -> AuthService
TransactionController - -> TransactionService
BudgetController - -> BudgetService
GoalController - -> GoalService
NoteController - -> NoteService
DashboardController - -> DashboardService

AuthService - -> IUserRepo
TransactionService - -> ITransactionRepo
BudgetService - -> IBudgetRepo
BudgetService - -> IMonthlyBalanceRepo
GoalService - -> IGoalRepo
NoteService - -> INoteRepo
DashboardService - -> ITransactionRepo
DashboardService - -> IGoalRepo
MonthlyIncomeService - -> IUserSettingsRepo
MonthlyIncomeService - -> ITransactionRepo
MonthlyIncomeService - -> IMonthlyBalanceRepo

JdbcUserRepo ..|> IUserRepo
JdbcTransactionRepo ..|> ITransactionRepo
JdbcBudgetRepo ..|> IBudgetRepo
JdbcMonthlyBalanceRepo ..|> IMonthlyBalanceRepo
JdbcGoalRepo ..|> IGoalRepo
JdbcNoteRepo ..|> INoteRepo
JdbcUserSettingsRepo ..|> IUserSettingsRepo

DatabaseInitializer - -> DatabaseConfig
JdbcUserRepo - -> DatabaseConfig
JdbcTransactionRepo - -> DatabaseConfig
JdbcBudgetRepo - -> DatabaseConfig
JdbcMonthlyBalanceRepo - -> DatabaseConfig
JdbcGoalRepo - -> DatabaseConfig
JdbcNoteRepo - -> DatabaseConfig
JdbcUserSettingsRepo - -> DatabaseConfig

DatabaseConfig - -> SQLite

@enduml

PlantUML version 1.2021.00(Sun Jan 10 12:25:05 EET 2021)
(MIT source distribution)
Java Runtime: OpenJDK Runtime Environment
JVM: OpenJDK 32-Bit Client VM
Default Encoding: Cp1256
Language: en
Country: US
--></g></svg>