<?xml version="1.0" encoding="UTF-8" standalone="no"?><svg xmlns="http://www.w3.org/2000/svg" xmlns:xlink="http://www.w3.org/1999/xlink" contentScriptType="application/ecmascript" contentStyleType="text/css" height="1564px" preserveAspectRatio="none" style="width:734px;height:1564px;" version="1.1" viewBox="0 0 734 1564" width="734px" zoomAndPan="magnify"><defs><filter height="300%" id="f1pvfxn81xe7yg" width="300%" x="-1" y="-1"><feGaussianBlur result="blurOut" stdDeviation="2.0"/><feColorMatrix in="blurOut" result="blurOut2" type="matrix" values="0 0 0 0 0 0 0 0 0 0 0 0 0 0 0 0 0 0 .4 0"/><feOffset dx="4.0" dy="4.0" in="blurOut2" result="blurOut3"/><feBlend in="SourceGraphic" in2="blurOut3" mode="normal"/></filter></defs><g><text fill="#000000" font-family="sans-serif" font-size="18" lengthAdjust="spacing" textLength="234" x="243.5" y="18.6855">Money Manager - Use Cases</text><!--MD5=[43ccae2e2696dddc46f6404c36c77199]
cluster Money Manager--><rect fill="#FFFFFF" filter="url(#f1pvfxn81xe7yg)" height="1523" style="stroke:#000000;stroke-width:1.5;" width="640" x="82" y="29.6406"/><text fill="#000000" font-family="sans-serif" font-size="14" font-weight="bold" lengthAdjust="spacing" textLength="113" x="345.5" y="46.1738">Money Manager</text><ellipse cx="210.5928" cy="81.6278" fill="#FEFECE" filter="url(#f1pvfxn81xe7yg)" rx="49.0928" ry="15.4872" style="stroke:#A80036;stroke-width:1.5;"/><text fill="#000000" font-family="sans-serif" font-size="14" lengthAdjust="spacing" textLength="53" x="181.6382" y="86.0213">Register</text><ellipse cx="210.734" cy="147.5923" fill="#FEFECE" filter="url(#f1pvfxn81xe7yg)" rx="36.234" ry="15.4517" style="stroke:#A80036;stroke-width:1.5;"/><text fill="#000000" font-family="sans-serif" font-size="14" lengthAdjust="spacing" textLength="35" x="193.234" y="151.3208">Login</text><ellipse cx="210.2537" cy="214.3914" fill="#FEFECE" filter="url(#f1pvfxn81xe7yg)" rx="66.7537" ry="15.7507" style="stroke:#A80036;stroke-width:1.5;"/><text fill="#000000" font-family="sans-serif" font-size="14" lengthAdjust="spacing" textLength="78" x="168.2537" y="218.908">Logout / Exit</text><ellipse cx="210.6002" cy="283.6607" fill="#FEFECE" filter="url(#f1pvfxn81xe7yg)" rx="75.6002" ry="17.52" style="stroke:#A80036;stroke-width:1.5;"/><text fill="#000000" font-family="sans-serif" font-size="14" lengthAdjust="spacing" textLength="103" x="156.1002" y="288.1773">View Dashboard</text><ellipse cx="210.5873" cy="355.7581" fill="#FEFECE" filter="url(#f1pvfxn81xe7yg)" rx="83.5873" ry="19.1175" style="stroke:#A80036;stroke-width:1.5;"/><text fill="#000000" font-family="sans-serif" font-size="14" lengthAdjust="spacing" textLength="123" x="149.0873" y="359.4866">Set Monthly Income</text><ellipse cx="572.8942" cy="252.6195" fill="#FEFECE" filter="url(#f1pvfxn81xe7yg)" rx="132.8942" ry="28.9788" style="stroke:#A80036;stroke-width:1.5;"/><text fill="#000000" font-family="sans-serif" font-size="14" lengthAdjust="spacing" textLength="171" x="487.3942" y="247.5433">Auto-Apply Monthly Income</text><text fill="#000000" font-family="sans-serif" font-size="14" lengthAdjust="spacing" textLength="179" x="483.3942" y="265.1527">(create tx + set monthly cap)</text><ellipse cx="210.4763" cy="427.7359" fill="#FEFECE" filter="url(#f1pvfxn81xe7yg)" rx="75.9763" ry="17.5953" style="stroke:#A80036;stroke-width:1.5;"/><text fill="#000000" font-family="sans-serif" font-size="14" lengthAdjust="spacing" textLength="104" x="155.5467" y="432.2364">Add Transaction</text><ellipse cx="210.6002" cy="497.6607" fill="#FEFECE" filter="url(#f1pvfxn81xe7yg)" rx="75.6002" ry="17.52" style="stroke:#A80036;stroke-width:1.5;"/><text fill="#000000" font-family="sans-serif" font-size="14" lengthAdjust="spacing" textLength="103" x="156.1002" y="502.1773">Edit Transaction</text><ellipse cx="210.3351" cy="569.5077" fill="#FEFECE" filter="url(#f1pvfxn81xe7yg)" rx="82.3351" ry="18.867" style="stroke:#A80036;stroke-width:1.5;"/><text fill="#000000" font-family="sans-serif" font-size="14" lengthAdjust="spacing" textLength="120" x="150.3351" y="573.2362">Delete Transaction</text><ellipse cx="210.5075" cy="642.8421" fill="#FEFECE" filter="url(#f1pvfxn81xe7yg)" rx="81.5075" ry="18.7015" style="stroke:#A80036;stroke-width:1.5;"/><text fill="#000000" font-family="sans-serif" font-size="14" lengthAdjust="spacing" textLength="118" x="151.1675" y="646.6711">Filter Transactions</text><ellipse cx="210.7192" cy="721.5845" fill="#FEFECE" filter="url(#f1pvfxn81xe7yg)" rx="112.7192" ry="24.9438" style="stroke:#A80036;stroke-width:1.5;"/><text fill="#000000" font-family="sans-serif" font-size="14" lengthAdjust="spacing" textLength="189" x="116.2192" y="725.313">Add Budget (Category/Month)</text><ellipse cx="210.6002" cy="799.6607" fill="#FEFECE" filter="url(#f1pvfxn81xe7yg)" rx="75.6002" ry="17.52" style="stroke:#A80036;stroke-width:1.5;"/><text fill="#000000" font-family="sans-serif" font-size="14" lengthAdjust="spacing" textLength="103" x="156.1002" y="804.1773">Edit Budget Cap</text><ellipse cx="210.3567" cy="868.712" fill="#FEFECE" filter="url(#f1pvfxn81xe7yg)" rx="70.8567" ry="16.5713" style="stroke:#A80036;stroke-width:1.5;"/><text fill="#000000" font-family="sans-serif" font-size="14" lengthAdjust="spacing" textLength="90" x="162.3567" y="873.2286">Delete Budget</text><ellipse cx="210.511" cy="941.8428" fill="#FEFECE" filter="url(#f1pvfxn81xe7yg)" rx="96.511" ry="21.7022" style="stroke:#A80036;stroke-width:1.5;"/><text fill="#000000" font-family="sans-serif" font-size="14" lengthAdjust="spacing" textLength="153" x="134.011" y="945.5713">Set Monthly Budget Cap</text><ellipse cx="210.4661" cy="1018.4339" fill="#FEFECE" filter="url(#f1pvfxn81xe7yg)" rx="86.9661" ry="19.7932" style="stroke:#A80036;stroke-width:1.5;"/><text fill="#000000" font-family="sans-serif" font-size="14" lengthAdjust="spacing" textLength="131" x="144.9661" y="1022.1624">Create Savings Goal</text><ellipse cx="210.5785" cy="1091.8563" fill="#FEFECE" filter="url(#f1pvfxn81xe7yg)" rx="79.0785" ry="18.2157" style="stroke:#A80036;stroke-width:1.5;"/><text fill="#000000" font-family="sans-serif" font-size="14" lengthAdjust="spacing" textLength="112" x="153.1751" y="1095.9801">Edit Savings Goal</text><ellipse cx="210.6163" cy="1164.7639" fill="#FEFECE" filter="url(#f1pvfxn81xe7yg)" rx="86.1163" ry="19.6233" style="stroke:#A80036;stroke-width:1.5;"/><text fill="#000000" font-family="sans-serif" font-size="14" lengthAdjust="spacing" textLength="129" x="146.1163" y="1168.4924">Delete Savings Goal</text><ellipse cx="210.3297" cy="1239.7066" fill="#FEFECE" filter="url(#f1pvfxn81xe7yg)" rx="90.8297" ry="20.5659" style="stroke:#A80036;stroke-width:1.5;"/><text fill="#000000" font-family="sans-serif" font-size="14" lengthAdjust="spacing" textLength="140" x="140.3297" y="1243.4351">Add Goal Contribution</text><ellipse cx="210.63" cy="1316.6666" fill="#FEFECE" filter="url(#f1pvfxn81xe7yg)" rx="95.63" ry="21.526" style="stroke:#A80036;stroke-width:1.5;"/><text fill="#000000" font-family="sans-serif" font-size="14" lengthAdjust="spacing" textLength="151" x="135.13" y="1320.3951">View Goal Contributions</text><ellipse cx="210.58" cy="1388.7633" fill="#FEFECE" filter="url(#f1pvfxn81xe7yg)" rx="66.08" ry="15.6227" style="stroke:#A80036;stroke-width:1.5;"/><text fill="#000000" font-family="sans-serif" font-size="14" lengthAdjust="spacing" textLength="76" x="169.58" y="1393.2799">Create Note</text><ellipse cx="210.4074" cy="1454.7297" fill="#FEFECE" filter="url(#f1pvfxn81xe7yg)" rx="60.9074" ry="15.5891" style="stroke:#A80036;stroke-width:1.5;"/><text fill="#000000" font-family="sans-serif" font-size="14" lengthAdjust="spacing" textLength="69" x="172.9074" y="1459.2463">View Notes</text><ellipse cx="210.602" cy="1520.7543" fill="#FEFECE" filter="url(#f1pvfxn81xe7yg)" rx="64.602" ry="15.6136" style="stroke:#A80036;stroke-width:1.5;"/><text fill="#000000" font-family="sans-serif" font-size="14" lengthAdjust="spacing" textLength="74" x="170.602" y="1525.2709">Delete Note</text><!--MD5=[8fc3522a43f8c7199df5e09e5bb0188e]
entity user--><ellipse cx="20.5" cy="767.6406" fill="#FEFECE" filter="url(#f1pvfxn81xe7yg)" rx="8" ry="8" style="stroke:#A80036;stroke-width:1.5;"/><path d="M20.5,775.6406 L20.5,802.6406 M7.5,783.6406 L33.5,783.6406 M20.5,802.6406 L7.5,817.6406 M20.5,802.6406 L33.5,817.6406 " fill="none" filter="url(#f1pvfxn81xe7yg)" style="stroke:#A80036;stroke-width:1.5;"/><text fill="#000000" font-family="sans-serif" font-size="14" lengthAdjust="spacing" textLength="29" x="6" y="837.6738">User</text><!--MD5=[e589a44a2e55e8829d76683bce6d8e02]
link user to UC_Register--><path d="M21.75,757.6706 C23.01,616.0506 30.42,161.9606 74,114.6406 C94.69,92.1706 127.89,83.8306 156.25,81.1606 " fill="none" id="user-to-UC_Register" style="stroke:#A80036;stroke-width:1.0;"/><polygon fill="#A80036" points="161.48,80.7206,152.1797,77.4796,156.4972,81.1347,152.8421,85.4522,161.48,80.7206" style="stroke:#A80036;stroke-width:1.0;"/><!--MD5=[54061953aefdb129f9fbe7bc58f61c5e]
link user to UC_Login--><path d="M22.14,758.1006 C24.55,626.2106 35.07,223.1406 74,180.6406 C97.89,154.5706 138.62,147.5006 169.2,146.2406 " fill="none" id="user-to-UC_Login" style="stroke:#A80036;stroke-width:1.0;"/><polygon fill="#A80036" points="174.41,146.0806,165.2888,142.3653,169.4125,146.2377,165.5401,150.3614,174.41,146.0806" style="stroke:#A80036;stroke-width:1.0;"/><!--MD5=[1ab76609e90fe0bd8b19c550938f1257]
link user to UC_Exit--><path d="M22.64,758.0306 C26.38,636.1706 39.98,286.2206 74,248.6406 C90.41,230.5106 114.92,221.3906 138.59,216.9906 " fill="none" id="user-to-UC_Exit" style="stroke:#A80036;stroke-width:1.0;"/><polygon fill="#A80036" points="143.63,216.1206,134.0777,213.7218,138.7039,216.9773,135.4485,221.6035,143.63,216.1206" style="stroke:#A80036;stroke-width:1.0;"/><!--MD5=[927ead819db721ba72a4728d19081816]
link user to UC_Dashboard--><path d="M23.3,757.8806 C28.47,646.9306 44.87,351.0506 74,318.6406 C88.66,302.3306 109.83,293.1706 131.09,288.1506 " fill="none" id="user-to-UC_Dashboard" style="stroke:#A80036;stroke-width:1.0;"/><polygon fill="#A80036" points="136.21,287.0206,126.5621,285.0413,131.3261,288.0917,128.2757,292.8556,136.21,287.0206" style="stroke:#A80036;stroke-width:1.0;"/><!--MD5=[e5bbd1a3731cb574586bf5e3093aa739]
link user to UC_SetIncome--><path d="M21.11,758.0506 C21.13,665.3706 26.35,445.8406 74,392.6406 C87.5,377.5706 106.48,368.3806 125.97,362.8406 " fill="none" id="user-to-UC_SetIncome" style="stroke:#A80036;stroke-width:1.0;"/><polygon fill="#A80036" points="130.94,361.5106,121.2096,359.9879,126.1119,362.8105,123.2894,367.7128,130.94,361.5106" style="stroke:#A80036;stroke-width:1.0;"/><!--MD5=[fabfc5330f2d85f248214a161b5b0964]
link UC_SetIncome to UC_AutoApply--><path d="M263.15,340.8806 C321.42,324.2306 417.12,296.8906 486.56,277.0506 " fill="none" id="UC_SetIncome-to-UC_AutoApply" style="stroke:#A80036;stroke-width:1.0;stroke-dasharray:7.0,7.0;"/><polygon fill="#A80036" points="491.52,275.6406,481.7674,274.267,486.7124,277.0142,483.9652,281.9592,491.52,275.6406" style="stroke:#A80036;stroke-width:1.0;"/><text fill="#000000" font-family="sans-serif" font-size="13" lengthAdjust="spacing" textLength="55" x="354" y="298.1357">«include»</text><!--MD5=[365043bb251ba495f332f81de05ada56]
link UC_Login to UC_AutoApply--><path d="M240.7,156.1406 C293.76,171.6006 407.85,204.8306 487.22,227.9506 " fill="none" id="UC_Login-to-UC_AutoApply" style="stroke:#A80036;stroke-width:1.0;stroke-dasharray:7.0,7.0;"/><polygon fill="#A80036" points="492.4,229.4506,484.88,223.0906,487.6,228.0506,482.64,230.7706,492.4,229.4506" style="stroke:#A80036;stroke-width:1.0;"/><text fill="#000000" font-family="sans-serif" font-size="13" lengthAdjust="spacing" textLength="55" x="354" y="188.1357">«include»</text><!--MD5=[f58d024a43f3c02a125576df852c57cf]
link user to UC_AddTx--><path d="M22.42,758.0106 C25.07,677.6306 35.23,505.2206 74,462.6406 C88.69,446.5106 109.75,437.3906 130.9,432.3406 " fill="none" id="user-to-UC_AddTx" style="stroke:#A80036;stroke-width:1.0;"/><polygon fill="#A80036" points="135.98,431.2106,126.3266,429.2583,131.0991,432.2953,128.062,437.0677,135.98,431.2106" style="stroke:#A80036;stroke-width:1.0;"/><!--MD5=[b39ad7e3933e92cc53e78f3fa4105fd7]
link user to UC_EditTx--><path d="M24.35,758.1106 C29.76,691.4106 43.82,564.6506 74,532.6406 C89.05,516.6806 110.33,507.6306 131.58,502.5906 " fill="none" id="user-to-UC_EditTx" style="stroke:#A80036;stroke-width:1.0;"/><polygon fill="#A80036" points="136.68,501.4606,127.0266,499.5083,131.7991,502.5453,128.762,507.3177,136.68,501.4606" style="stroke:#A80036;stroke-width:1.0;"/><!--MD5=[f739c1aefc9d73a3f3a581f0852237fe]
link user to UC_DeleteTx--><path d="M21.39,757.9906 C23.59,714.3906 33.87,646.8106 74,606.6406 C88.54,592.0906 108.21,583.1106 128.05,577.6106 " fill="none" id="user-to-UC_DeleteTx" style="stroke:#A80036;stroke-width:1.0;"/><polygon fill="#A80036" points="133.09,576.2906,123.3693,574.7071,128.2539,577.5603,125.4007,582.4449,133.09,576.2906" style="stroke:#A80036;stroke-width:1.0;"/><!--MD5=[bc27c0670e1107067765755de9f55b4b]
link user to UC_FilterTx--><path d="M29.81,757.9006 C37.15,731.5906 50.48,698.8806 74,678.6406 C89.73,665.1006 110.02,656.5906 130.08,651.2506 " fill="none" id="user-to-UC_FilterTx" style="stroke:#A80036;stroke-width:1.0;"/><polygon fill="#A80036" points="135.17,649.9706,125.4674,648.2796,130.3201,651.1867,127.4131,656.0394,135.17,649.9706" style="stroke:#A80036;stroke-width:1.0;"/><!--MD5=[ff8e1063c415b721996bad689eab5d7a]
link user to UC_AddBudget--><path d="M35.12,789.0106 C45.36,781.4106 59.98,771.3706 74,764.6406 C92.15,755.9206 112.5,748.4006 131.79,742.1806 " fill="none" id="user-to-UC_AddBudget" style="stroke:#A80036;stroke-width:1.0;"/><polygon fill="#A80036" points="136.67,740.6306,126.8817,739.5405,131.9042,742.1431,129.3016,747.1657,136.67,740.6306" style="stroke:#A80036;stroke-width:1.0;"/><!--MD5=[6ac4fbab0889eb8db821ddc0d3821c66]
link user to UC_EditBudget--><path d="M35.02,799.6406 C54.92,799.6406 93.64,799.6406 129.55,799.6406 " fill="none" id="user-to-UC_EditBudget" style="stroke:#A80036;stroke-width:1.0;"/><polygon fill="#A80036" points="134.83,799.6406,125.83,795.6406,129.83,799.6406,125.83,803.6406,134.83,799.6406" style="stroke:#A80036;stroke-width:1.0;"/><!--MD5=[5ca029968ad6a9d650672d184e98fa54]
link user to UC_DeleteBudget--><path d="M35.43,810.8606 C45.59,818.5406 59.98,828.4306 74,834.6406 C97.19,844.9106 124.04,852.4606 147.69,857.8006 " fill="none" id="user-to-UC_DeleteBudget" style="stroke:#A80036;stroke-width:1.0;"/><polygon fill="#A80036" points="152.69,858.9106,144.772,853.0535,147.8091,857.826,143.0366,860.863,152.69,858.9106" style="stroke:#A80036;stroke-width:1.0;"/><!--MD5=[a673a54e72f506a102381707abbe9d52]
link user to UC_SetMonthlyCap--><path d="M33.77,841.1806 C41.99,862.3406 54.88,886.8706 74,902.6406 C88.33,914.4606 106.06,922.7006 123.93,928.4406 " fill="none" id="user-to-UC_SetMonthlyCap" style="stroke:#A80036;stroke-width:1.0;"/><polygon fill="#A80036" points="128.97,930.0006,121.5484,923.5261,124.192,928.5272,119.1909,931.1708,128.97,930.0006" style="stroke:#A80036;stroke-width:1.0;"/><!--MD5=[503ff3b54b65cbbfc1e48c2b36b3e55f]
link user to UC_CreateGoal--><path d="M22.43,841.3606 C25.61,882.3006 36.82,943.7906 74,980.6406 C88.08,994.5906 106.84,1003.5206 125.9,1009.2006 " fill="none" id="user-to-UC_CreateGoal" style="stroke:#A80036;stroke-width:1.0;"/><polygon fill="#A80036" points="130.76,1010.5806,123.1829,1004.2888,125.9476,1009.224,121.0123,1011.9887,130.76,1010.5806" style="stroke:#A80036;stroke-width:1.0;"/><!--MD5=[27a140d5f2c0d15a83ddf303fffe0ff4]
link user to UC_EditGoal--><path d="M24.77,841.2706 C30.68,905.6706 45.27,1025.2106 74,1055.6406 C88.54,1071.0406 108.85,1080.1306 129.34,1085.4206 " fill="none" id="user-to-UC_EditGoal" style="stroke:#A80036;stroke-width:1.0;"/><polygon fill="#A80036" points="134.26,1086.6206,126.4654,1080.6004,129.4026,1085.4349,124.5681,1088.3721,134.26,1086.6206" style="stroke:#A80036;stroke-width:1.0;"/><!--MD5=[de1db23066f8eb5d56478b193eef3489]
link user to UC_DeleteGoal--><path d="M22.74,841.1706 C25.93,919.5506 36.97,1085.1206 74,1126.6406 C87.27,1141.5206 105.84,1150.7706 124.99,1156.4706 " fill="none" id="user-to-UC_DeleteGoal" style="stroke:#A80036;stroke-width:1.0;"/><polygon fill="#A80036" points="129.87,1157.8506,122.2929,1151.5588,125.0576,1156.494,120.1223,1159.2587,129.87,1157.8506" style="stroke:#A80036;stroke-width:1.0;"/><!--MD5=[845de859ea9525c1c909ca36a4bd4ff5]
link user to UC_AddContrib--><path d="M21.32,841.2906 C21.8,933.0006 27.93,1148.4306 74,1201.6406 C86.13,1215.6506 102.98,1224.7006 120.67,1230.4906 " fill="none" id="user-to-UC_AddContrib" style="stroke:#A80036;stroke-width:1.0;"/><polygon fill="#A80036" points="125.68,1232.0406,118.2584,1225.5661,120.902,1230.5672,115.9009,1233.2108,125.68,1232.0406" style="stroke:#A80036;stroke-width:1.0;"/><!--MD5=[cf848c5b71f7ecc89113c3eaa87e3bb1]
link user to UC_ViewContrib--><path d="M23.45,841.4406 C28.96,951.7706 46.09,1244.5906 74,1277.6406 C85.48,1291.2306 101.36,1300.2506 118.21,1306.1906 " fill="none" id="user-to-UC_ViewContrib" style="stroke:#A80036;stroke-width:1.0;"/><polygon fill="#A80036" points="122.99,1307.7906,115.7048,1301.163,118.2437,1306.2181,113.1887,1308.757,122.99,1307.7906" style="stroke:#A80036;stroke-width:1.0;"/><!--MD5=[97d73a64cc0da9aa4b5d7c7c7ef9a332]
link user to UC_CreateNote--><path d="M22.69,841.5606 C26.54,964.3606 40.44,1317.0506 74,1355.6406 C90.24,1374.3206 115.12,1383.3406 139.15,1387.4406 " fill="none" id="user-to-UC_CreateNote" style="stroke:#A80036;stroke-width:1.0;"/><polygon fill="#A80036" points="144.26,1388.2406,135.9845,1382.9006,139.3198,1387.4696,134.7508,1390.805,144.26,1388.2406" style="stroke:#A80036;stroke-width:1.0;"/><!--MD5=[6f185f60d3bdad3b14f4831a05dd55b1]
link user to UC_ViewNotes--><path d="M22.17,841.3406 C24.7,973.7206 35.53,1378.3506 74,1421.6406 C91.56,1441.4106 118.81,1450.3106 144.27,1454.0306 " fill="none" id="user-to-UC_ViewNotes" style="stroke:#A80036;stroke-width:1.0;"/><polygon fill="#A80036" points="149.33,1454.7106,140.9337,1449.5626,144.3734,1454.0535,139.8824,1457.4932,149.33,1454.7106" style="stroke:#A80036;stroke-width:1.0;"/><!--MD5=[19f2fcbddb7ee25b6ddd69076b5dfcf7]
link user to UC_DeleteNote--><path d="M21.8,841.2406 C23.2,982.7306 31.03,1439.2806 74,1487.6406 C90.74,1506.4806 116.27,1515.4606 140.68,1519.4706 " fill="none" id="user-to-UC_DeleteNote" style="stroke:#A80036;stroke-width:1.0;"/><polygon fill="#A80036" points="145.86,1520.2606,137.5544,1514.9675,140.9155,1519.5175,136.3655,1522.8786,145.86,1520.2606" style="stroke:#A80036;stroke-width:1.0;"/><!--MD5=[1403b015c3624869cea73eb069bc7fe3]
@startuml
title Money Manager - Use Cases
left to right direction
skinparam packageStyle rectangle

actor User as user

rectangle "Money Manager" {
  usecase "Register" as UC_Register
  usecase "Login" as UC_Login
  usecase "Logout / Exit" as UC_Exit

  usecase "View Dashboard" as UC_Dashboard
  usecase "Set Monthly Income" as UC_SetIncome
  usecase "Auto-Apply Monthly Income\n(create tx + set monthly cap)" as UC_AutoApply

  usecase "Add Transaction" as UC_AddTx
  usecase "Edit Transaction" as UC_EditTx
  usecase "Delete Transaction" as UC_DeleteTx
  usecase "Filter Transactions" as UC_FilterTx

  usecase "Add Budget (Category/Month)" as UC_AddBudget
  usecase "Edit Budget Cap" as UC_EditBudget
  usecase "Delete Budget" as UC_DeleteBudget
  usecase "Set Monthly Budget Cap" as UC_SetMonthlyCap

  usecase "Create Savings Goal" as UC_CreateGoal
  usecase "Edit Savings Goal" as UC_EditGoal
  usecase "Delete Savings Goal" as UC_DeleteGoal
  usecase "Add Goal Contribution" as UC_AddContrib
  usecase "View Goal Contributions" as UC_ViewContrib

  usecase "Create Note" as UC_CreateNote
  usecase "View Notes" as UC_ViewNotes
  usecase "Delete Note" as UC_DeleteNote
}

user - -> UC_Register
user - -> UC_Login
user - -> UC_Exit

user - -> UC_Dashboard
user - -> UC_SetIncome
UC_SetIncome ..> UC_AutoApply : <<include>>
UC_Login ..> UC_AutoApply : <<include>>

user - -> UC_AddTx
user - -> UC_EditTx
user - -> UC_DeleteTx
user - -> UC_FilterTx

user - -> UC_AddBudget
user - -> UC_EditBudget
user - -> UC_DeleteBudget
user - -> UC_SetMonthlyCap

user - -> UC_CreateGoal
user - -> UC_EditGoal
user - -> UC_DeleteGoal
user - -> UC_AddContrib
user - -> UC_ViewContrib

user - -> UC_CreateNote
user - -> UC_ViewNotes
user - -> UC_DeleteNote

@enduml

PlantUML version 1.2021.00(Sun Jan 10 12:25:05 EET 2021)
(MIT source distribution)
Java Runtime: OpenJDK Runtime Environment
JVM: OpenJDK 32-Bit Client VM
Default Encoding: Cp1256
Language: en
Country: US
--></g></svg>