<?xml version="1.0" encoding="UTF-8" standalone="no"?><svg xmlns="http://www.w3.org/2000/svg" xmlns:xlink="http://www.w3.org/1999/xlink" contentScriptType="application/ecmascript" contentStyleType="text/css" height="1546px" preserveAspectRatio="none" style="width:2243px;height:1546px;" version="1.1" viewBox="0 0 2243 1546" width="2243px" zoomAndPan="magnify"><defs><filter height="300%" id="fs8ojl88l2ser" width="300%" x="-1" y="-1"><feGaussianBlur result="blurOut" stdDeviation="2.0"/><feColorMatrix in="blurOut" result="blurOut2" type="matrix" values="0 0 0 0 0 0 0 0 0 0 0 0 0 0 0 0 0 0 .4 0"/><feOffset dx="4.0" dy="4.0" in="blurOut2" result="blurOut3"/><feBlend in="SourceGraphic" in2="blurOut3" mode="normal"/></filter></defs><g><text fill="#000000" font-family="sans-serif" font-size="18" lengthAdjust="spacing" textLength="465" x="887.25" y="30.6855">Sequence - Login -&gt; Main Screen -&gt; Dashboard Snapshot</text><rect fill="#FFFFFF" filter="url(#fs8ojl88l2ser)" height="1072.1406" style="stroke:#000000;stroke-width:2.0;" width="2219.5" x="10" y="372.0625"/><rect fill="#FFFFFF" filter="url(#fs8ojl88l2ser)" height="447.2734" style="stroke:#000000;stroke-width:2.0;" width="1230" x="672.5" y="579.5234"/><rect fill="#FFFFFF" filter="url(#fs8ojl88l2ser)" height="109.4063" style="stroke:#000000;stroke-width:2.0;" width="1021" x="682.5" y="726.2813"/><rect fill="#FFFFFF" filter="url(#fs8ojl88l2ser)" height="79.0547" style="stroke:#000000;stroke-width:2.0;" width="1210" x="682.5" y="940.7422"/><rect fill="#FFFFFF" height="46.1875" style="stroke:none;stroke-width:1.0;" width="2219.5" x="10" y="1398.0156"/><line style="stroke:#A80036;stroke-width:1.0;stroke-dasharray:5.0,5.0;" x1="37" x2="37" y1="126.25" y2="1461.2031"/><line style="stroke:#A80036;stroke-width:1.0;stroke-dasharray:5.0,5.0;" x1="221" x2="221" y1="126.25" y2="1461.2031"/><line style="stroke:#A80036;stroke-width:1.0;stroke-dasharray:5.0,5.0;" x1="407.5" x2="407.5" y1="126.25" y2="1461.2031"/><line style="stroke:#A80036;stroke-width:1.0;stroke-dasharray:5.0,5.0;" x1="602.5" x2="602.5" y1="126.25" y2="1461.2031"/><line style="stroke:#A80036;stroke-width:1.0;stroke-dasharray:5.0,5.0;" x1="728.5" x2="728.5" y1="126.25" y2="1461.2031"/><line style="stroke:#A80036;stroke-width:1.0;stroke-dasharray:5.0,5.0;" x1="828.5" x2="828.5" y1="126.25" y2="1461.2031"/><line style="stroke:#A80036;stroke-width:1.0;stroke-dasharray:5.0,5.0;" x1="1101.5" x2="1101.5" y1="126.25" y2="1461.2031"/><line style="stroke:#A80036;stroke-width:1.0;stroke-dasharray:5.0,5.0;" x1="1258.5" x2="1258.5" y1="126.25" y2="1461.2031"/><line style="stroke:#A80036;stroke-width:1.0;stroke-dasharray:5.0,5.0;" x1="1449.5" x2="1449.5" y1="126.25" y2="1461.2031"/><line style="stroke:#A80036;stroke-width:1.0;stroke-dasharray:5.0,5.0;" x1="1616.5" x2="1616.5" y1="126.25" y2="1461.2031"/><line style="stroke:#A80036;stroke-width:1.0;stroke-dasharray:5.0,5.0;" x1="1792.5" x2="1792.5" y1="126.25" y2="1461.2031"/><line style="stroke:#A80036;stroke-width:1.0;stroke-dasharray:5.0,5.0;" x1="1953.5" x2="1953.5" y1="126.25" y2="1461.2031"/><line style="stroke:#A80036;stroke-width:1.0;stroke-dasharray:5.0,5.0;" x1="2164.5" x2="2164.5" y1="126.25" y2="1461.2031"/><text fill="#000000" font-family="sans-serif" font-size="14" lengthAdjust="spacing" textLength="29" x="20" y="123.1738">User</text><ellipse cx="37.5" cy="51.6406" fill="#FEFECE" filter="url(#fs8ojl88l2ser)" rx="8" ry="8" style="stroke:#A80036;stroke-width:2.0;"/><path d="M37.5,59.6406 L37.5,86.6406 M24.5,67.6406 L50.5,67.6406 M37.5,86.6406 L24.5,101.6406 M37.5,86.6406 L50.5,101.6406 " fill="none" filter="url(#fs8ojl88l2ser)" style="stroke:#A80036;stroke-width:2.0;"/><text fill="#000000" font-family="sans-serif" font-size="14" lengthAdjust="spacing" textLength="29" x="20" y="1474.7363">User</text><ellipse cx="37.5" cy="1487.8125" fill="#FEFECE" filter="url(#fs8ojl88l2ser)" rx="8" ry="8" style="stroke:#A80036;stroke-width:2.0;"/><path d="M37.5,1495.8125 L37.5,1522.8125 M24.5,1503.8125 L50.5,1503.8125 M37.5,1522.8125 L24.5,1537.8125 M37.5,1522.8125 L50.5,1537.8125 " fill="none" filter="url(#fs8ojl88l2ser)" style="stroke:#A80036;stroke-width:2.0;"/><text fill="#000000" font-family="sans-serif" font-size="14" lengthAdjust="spacing" textLength="51" x="193" y="105.5645">Login UI</text><text fill="#000000" font-family="sans-serif" font-size="14" lengthAdjust="spacing" textLength="107" x="165" y="123.1738">(LoginController)</text><path d="M201,63.0313 L201,87.0313 M201,75.0313 L218,75.0313 " fill="none" filter="url(#fs8ojl88l2ser)" style="stroke:#A80036;stroke-width:2.0;"/><ellipse cx="230" cy="75.0313" fill="#FEFECE" filter="url(#fs8ojl88l2ser)" rx="12" ry="12" style="stroke:#A80036;stroke-width:2.0;"/><text fill="#000000" font-family="sans-serif" font-size="14" lengthAdjust="spacing" textLength="51" x="193" y="1474.7363">Login UI</text><text fill="#000000" font-family="sans-serif" font-size="14" lengthAdjust="spacing" textLength="107" x="165" y="1492.3457">(LoginController)</text><path d="M201,1499.4219 L201,1523.4219 M201,1511.4219 L218,1511.4219 " fill="none" filter="url(#fs8ojl88l2ser)" style="stroke:#A80036;stroke-width:2.0;"/><ellipse cx="230" cy="1511.4219" fill="#FEFECE" filter="url(#fs8ojl88l2ser)" rx="12" ry="12" style="stroke:#A80036;stroke-width:2.0;"/><text fill="#000000" font-family="sans-serif" font-size="14" lengthAdjust="spacing" textLength="76" x="366.5" y="123.1738">AuthService</text><ellipse cx="407.5" cy="92.6406" fill="#FEFECE" filter="url(#fs8ojl88l2ser)" rx="12" ry="12" style="stroke:#A80036;stroke-width:2.0;"/><polygon fill="#A80036" points="403.5,80.6406,409.5,75.6406,407.5,80.6406,409.5,85.6406,403.5,80.6406" style="stroke:#A80036;stroke-width:1.0;"/><text fill="#000000" font-family="sans-serif" font-size="14" lengthAdjust="spacing" textLength="76" x="366.5" y="1474.7363">AuthService</text><ellipse cx="407.5" cy="1493.8125" fill="#FEFECE" filter="url(#fs8ojl88l2ser)" rx="12" ry="12" style="stroke:#A80036;stroke-width:2.0;"/><polygon fill="#A80036" points="403.5,1481.8125,409.5,1476.8125,407.5,1481.8125,409.5,1486.8125,403.5,1481.8125" style="stroke:#A80036;stroke-width:1.0;"/><text fill="#000000" font-family="sans-serif" font-size="14" lengthAdjust="spacing" textLength="66" x="566.5" y="105.5645">IUserRepo</text><text fill="#000000" font-family="sans-serif" font-size="14" lengthAdjust="spacing" textLength="102" x="548.5" y="123.1738">(JdbcUserRepo)</text><ellipse cx="602.5" cy="75.0313" fill="#FEFECE" filter="url(#fs8ojl88l2ser)" rx="12" ry="12" style="stroke:#A80036;stroke-width:2.0;"/><line style="stroke:#A80036;stroke-width:2.0;" x1="590.5" x2="614.5" y1="89.0313" y2="89.0313"/><text fill="#000000" font-family="sans-serif" font-size="14" lengthAdjust="spacing" textLength="66" x="566.5" y="1474.7363">IUserRepo</text><text fill="#000000" font-family="sans-serif" font-size="14" lengthAdjust="spacing" textLength="102" x="548.5" y="1492.3457">(JdbcUserRepo)</text><ellipse cx="602.5" cy="1511.4219" fill="#FEFECE" filter="url(#fs8ojl88l2ser)" rx="12" ry="12" style="stroke:#A80036;stroke-width:2.0;"/><line style="stroke:#A80036;stroke-width:2.0;" x1="590.5" x2="614.5" y1="1525.4219" y2="1525.4219"/><text fill="#000000" font-family="sans-serif" font-size="14" lengthAdjust="spacing" textLength="66" x="692.5" y="123.1738">SQLite DB</text><path d="M710.5,72.6406 C710.5,62.6406 728.5,62.6406 728.5,62.6406 C728.5,62.6406 746.5,62.6406 746.5,72.6406 L746.5,98.6406 C746.5,108.6406 728.5,108.6406 728.5,108.6406 C728.5,108.6406 710.5,108.6406 710.5,98.6406 L710.5,72.6406 " fill="#FEFECE" filter="url(#fs8ojl88l2ser)" style="stroke:#000000;stroke-width:1.5;"/><path d="M710.5,72.6406 C710.5,82.6406 728.5,82.6406 728.5,82.6406 C728.5,82.6406 746.5,82.6406 746.5,72.6406 " fill="none" style="stroke:#000000;stroke-width:1.5;"/><text fill="#000000" font-family="sans-serif" font-size="14" lengthAdjust="spacing" textLength="66" x="692.5" y="1474.7363">SQLite DB</text><path d="M710.5,1487.8125 C710.5,1477.8125 728.5,1477.8125 728.5,1477.8125 C728.5,1477.8125 746.5,1477.8125 746.5,1487.8125 L746.5,1513.8125 C746.5,1523.8125 728.5,1523.8125 728.5,1523.8125 C728.5,1523.8125 710.5,1523.8125 710.5,1513.8125 L710.5,1487.8125 " fill="#FEFECE" filter="url(#fs8ojl88l2ser)" style="stroke:#000000;stroke-width:1.5;"/><path d="M710.5,1487.8125 C710.5,1497.8125 728.5,1497.8125 728.5,1497.8125 C728.5,1497.8125 746.5,1497.8125 746.5,1487.8125 " fill="none" style="stroke:#000000;stroke-width:1.5;"/><text fill="#000000" font-family="sans-serif" font-size="14" lengthAdjust="spacing" textLength="46" x="802.5" y="105.5645">Main UI</text><text fill="#000000" font-family="sans-serif" font-size="14" lengthAdjust="spacing" textLength="102" x="774.5" y="123.1738">(MainController)</text><path d="M808,63.0313 L808,87.0313 M808,75.0313 L825,75.0313 " fill="none" filter="url(#fs8ojl88l2ser)" style="stroke:#A80036;stroke-width:2.0;"/><ellipse cx="837" cy="75.0313" fill="#FEFECE" filter="url(#fs8ojl88l2ser)" rx="12" ry="12" style="stroke:#A80036;stroke-width:2.0;"/><text fill="#000000" font-family="sans-serif" font-size="14" lengthAdjust="spacing" textLength="46" x="802.5" y="1474.7363">Main UI</text><text fill="#000000" font-family="sans-serif" font-size="14" lengthAdjust="spacing" textLength="102" x="774.5" y="1492.3457">(MainController)</text><path d="M808,1499.4219 L808,1523.4219 M808,1511.4219 L825,1511.4219 " fill="none" filter="url(#fs8ojl88l2ser)" style="stroke:#A80036;stroke-width:2.0;"/><ellipse cx="837" cy="1511.4219" fill="#FEFECE" filter="url(#fs8ojl88l2ser)" rx="12" ry="12" style="stroke:#A80036;stroke-width:2.0;"/><text fill="#000000" font-family="sans-serif" font-size="14" lengthAdjust="spacing" textLength="99" x="1049" y="105.5645">Dashboard Tab</text><text fill="#000000" font-family="sans-serif" font-size="14" lengthAdjust="spacing" textLength="142" x="1027.5" y="123.1738">(DashboardController)</text><path d="M1081,63.0313 L1081,87.0313 M1081,75.0313 L1098,75.0313 " fill="none" filter="url(#fs8ojl88l2ser)" style="stroke:#A80036;stroke-width:2.0;"/><ellipse cx="1110" cy="75.0313" fill="#FEFECE" filter="url(#fs8ojl88l2ser)" rx="12" ry="12" style="stroke:#A80036;stroke-width:2.0;"/><text fill="#000000" font-family="sans-serif" font-size="14" lengthAdjust="spacing" textLength="99" x="1049" y="1474.7363">Dashboard Tab</text><text fill="#000000" font-family="sans-serif" font-size="14" lengthAdjust="spacing" textLength="142" x="1027.5" y="1492.3457">(DashboardController)</text><path d="M1081,1499.4219 L1081,1523.4219 M1081,1511.4219 L1098,1511.4219 " fill="none" filter="url(#fs8ojl88l2ser)" style="stroke:#A80036;stroke-width:2.0;"/><ellipse cx="1110" cy="1511.4219" fill="#FEFECE" filter="url(#fs8ojl88l2ser)" rx="12" ry="12" style="stroke:#A80036;stroke-width:2.0;"/><text fill="#000000" font-family="sans-serif" font-size="14" lengthAdjust="spacing" textLength="141" x="1185.5" y="123.1738">MonthlyIncomeService</text><ellipse cx="1259" cy="92.6406" fill="#FEFECE" filter="url(#fs8ojl88l2ser)" rx="12" ry="12" style="stroke:#A80036;stroke-width:2.0;"/><polygon fill="#A80036" points="1255,80.6406,1261,75.6406,1259,80.6406,1261,85.6406,1255,80.6406" style="stroke:#A80036;stroke-width:1.0;"/><text fill="#000000" font-family="sans-serif" font-size="14" lengthAdjust="spacing" textLength="141" x="1185.5" y="1474.7363">MonthlyIncomeService</text><ellipse cx="1259" cy="1493.8125" fill="#FEFECE" filter="url(#fs8ojl88l2ser)" rx="12" ry="12" style="stroke:#A80036;stroke-width:2.0;"/><polygon fill="#A80036" points="1255,1481.8125,1261,1476.8125,1259,1481.8125,1261,1486.8125,1255,1481.8125" style="stroke:#A80036;stroke-width:1.0;"/><text fill="#000000" font-family="sans-serif" font-size="14" lengthAdjust="spacing" textLength="117" x="1388.5" y="105.5645">IUserSettingsRepo</text><text fill="#000000" font-family="sans-serif" font-size="14" lengthAdjust="spacing" textLength="153" x="1370.5" y="123.1738">(JdbcUserSettingsRepo)</text><ellipse cx="1450" cy="75.0313" fill="#FEFECE" filter="url(#fs8ojl88l2ser)" rx="12" ry="12" style="stroke:#A80036;stroke-width:2.0;"/><line style="stroke:#A80036;stroke-width:2.0;" x1="1438" x2="1462" y1="89.0313" y2="89.0313"/><text fill="#000000" font-family="sans-serif" font-size="14" lengthAdjust="spacing" textLength="117" x="1388.5" y="1474.7363">IUserSettingsRepo</text><text fill="#000000" font-family="sans-serif" font-size="14" lengthAdjust="spacing" textLength="153" x="1370.5" y="1492.3457">(JdbcUserSettingsRepo)</text><ellipse cx="1450" cy="1511.4219" fill="#FEFECE" filter="url(#fs8ojl88l2ser)" rx="12" ry="12" style="stroke:#A80036;stroke-width:2.0;"/><line style="stroke:#A80036;stroke-width:2.0;" x1="1438" x2="1462" y1="1525.4219" y2="1525.4219"/><text fill="#000000" font-family="sans-serif" font-size="14" lengthAdjust="spacing" textLength="112" x="1557.5" y="105.5645">ITransactionRepo</text><text fill="#000000" font-family="sans-serif" font-size="14" lengthAdjust="spacing" textLength="148" x="1539.5" y="123.1738">(JdbcTransactionRepo)</text><ellipse cx="1616.5" cy="75.0313" fill="#FEFECE" filter="url(#fs8ojl88l2ser)" rx="12" ry="12" style="stroke:#A80036;stroke-width:2.0;"/><line style="stroke:#A80036;stroke-width:2.0;" x1="1604.5" x2="1628.5" y1="89.0313" y2="89.0313"/><text fill="#000000" font-family="sans-serif" font-size="14" lengthAdjust="spacing" textLength="112" x="1557.5" y="1474.7363">ITransactionRepo</text><text fill="#000000" font-family="sans-serif" font-size="14" lengthAdjust="spacing" textLength="148" x="1539.5" y="1492.3457">(JdbcTransactionRepo)</text><ellipse cx="1616.5" cy="1511.4219" fill="#FEFECE" filter="url(#fs8ojl88l2ser)" rx="12" ry="12" style="stroke:#A80036;stroke-width:2.0;"/><line style="stroke:#A80036;stroke-width:2.0;" x1="1604.5" x2="1628.5" y1="1525.4219" y2="1525.4219"/><text fill="#000000" font-family="sans-serif" font-size="14" lengthAdjust="spacing" textLength="137" x="1721.5" y="105.5645">IMonthlyBalanceRepo</text><text fill="#000000" font-family="sans-serif" font-size="14" lengthAdjust="spacing" textLength="173" x="1703.5" y="123.1738">(JdbcMonthlyBalanceRepo)</text><ellipse cx="1793" cy="75.0313" fill="#FEFECE" filter="url(#fs8ojl88l2ser)" rx="12" ry="12" style="stroke:#A80036;stroke-width:2.0;"/><line style="stroke:#A80036;stroke-width:2.0;" x1="1781" x2="1805" y1="89.0313" y2="89.0313"/><text fill="#000000" font-family="sans-serif" font-size="14" lengthAdjust="spacing" textLength="137" x="1721.5" y="1474.7363">IMonthlyBalanceRepo</text><text fill="#000000" font-family="sans-serif" font-size="14" lengthAdjust="spacing" textLength="173" x="1703.5" y="1492.3457">(JdbcMonthlyBalanceRepo)</text><ellipse cx="1793" cy="1511.4219" fill="#FEFECE" filter="url(#fs8ojl88l2ser)" rx="12" ry="12" style="stroke:#A80036;stroke-width:2.0;"/><line style="stroke:#A80036;stroke-width:2.0;" x1="1781" x2="1805" y1="1525.4219" y2="1525.4219"/><text fill="#000000" font-family="sans-serif" font-size="14" lengthAdjust="spacing" textLength="117" x="1892.5" y="123.1738">DashboardService</text><ellipse cx="1954" cy="92.6406" fill="#FEFECE" filter="url(#fs8ojl88l2ser)" rx="12" ry="12" style="stroke:#A80036;stroke-width:2.0;"/><polygon fill="#A80036" points="1950,80.6406,1956,75.6406,1954,80.6406,1956,85.6406,1950,80.6406" style="stroke:#A80036;stroke-width:1.0;"/><text fill="#000000" font-family="sans-serif" font-size="14" lengthAdjust="spacing" textLength="117" x="1892.5" y="1474.7363">DashboardService</text><ellipse cx="1954" cy="1493.8125" fill="#FEFECE" filter="url(#fs8ojl88l2ser)" rx="12" ry="12" style="stroke:#A80036;stroke-width:2.0;"/><polygon fill="#A80036" points="1950,1481.8125,1956,1476.8125,1954,1481.8125,1956,1486.8125,1950,1481.8125" style="stroke:#A80036;stroke-width:1.0;"/><text fill="#000000" font-family="sans-serif" font-size="14" lengthAdjust="spacing" textLength="67" x="2128.5" y="105.5645">IGoalRepo</text><text fill="#000000" font-family="sans-serif" font-size="14" lengthAdjust="spacing" textLength="103" x="2110.5" y="123.1738">(JdbcGoalRepo)</text><ellipse cx="2165" cy="75.0313" fill="#FEFECE" filter="url(#fs8ojl88l2ser)" rx="12" ry="12" style="stroke:#A80036;stroke-width:2.0;"/><line style="stroke:#A80036;stroke-width:2.0;" x1="2153" x2="2177" y1="89.0313" y2="89.0313"/><text fill="#000000" font-family="sans-serif" font-size="14" lengthAdjust="spacing" textLength="67" x="2128.5" y="1474.7363">IGoalRepo</text><text fill="#000000" font-family="sans-serif" font-size="14" lengthAdjust="spacing" textLength="103" x="2110.5" y="1492.3457">(JdbcGoalRepo)</text><ellipse cx="2165" cy="1511.4219" fill="#FEFECE" filter="url(#fs8ojl88l2ser)" rx="12" ry="12" style="stroke:#A80036;stroke-width:2.0;"/><line style="stroke:#A80036;stroke-width:2.0;" x1="2153" x2="2177" y1="1525.4219" y2="1525.4219"/><polygon fill="#A80036" points="209.5,170.9531,219.5,174.9531,209.5,178.9531,213.5,174.9531" style="stroke:#A80036;stroke-width:1.0;"/><line style="stroke:#A80036;stroke-width:1.0;" x1="37.5" x2="215.5" y1="174.9531" y2="174.9531"/><text fill="#000000" font-family="sans-serif" font-size="13" font-weight="bold" lengthAdjust="spacing" textLength="7" x="44.5" y="161.9209">1</text><text fill="#000000" font-family="sans-serif" font-size="13" lengthAdjust="spacing" textLength="149" x="55.5" y="153.7451">enter username/password</text><text fill="#000000" font-family="sans-serif" font-size="13" lengthAdjust="spacing" textLength="62" x="55.5" y="170.0967">click Login</text><polygon fill="#A80036" points="395.5,201.3047,405.5,205.3047,395.5,209.3047,399.5,205.3047" style="stroke:#A80036;stroke-width:1.0;"/><line style="stroke:#A80036;stroke-width:1.0;" x1="221.5" x2="401.5" y1="205.3047" y2="205.3047"/><text fill="#000000" font-family="sans-serif" font-size="13" font-weight="bold" lengthAdjust="spacing" textLength="7" x="228.5" y="200.4482">2</text><text fill="#000000" font-family="sans-serif" font-size="13" lengthAdjust="spacing" textLength="151" x="239.5" y="200.4482">login(username,password)</text><polygon fill="#A80036" points="590.5,231.6563,600.5,235.6563,590.5,239.6563,594.5,235.6563" style="stroke:#A80036;stroke-width:1.0;"/><line style="stroke:#A80036;stroke-width:1.0;" x1="407.5" x2="596.5" y1="235.6563" y2="235.6563"/><text fill="#000000" font-family="sans-serif" font-size="13" font-weight="bold" lengthAdjust="spacing" textLength="7" x="414.5" y="230.7998">3</text><text fill="#000000" font-family="sans-serif" font-size="13" lengthAdjust="spacing" textLength="160" x="425.5" y="230.7998">findByUsername(username)</text><polygon fill="#A80036" points="716.5,262.0078,726.5,266.0078,716.5,270.0078,720.5,266.0078" style="stroke:#A80036;stroke-width:1.0;"/><line style="stroke:#A80036;stroke-width:1.0;" x1="602.5" x2="722.5" y1="266.0078" y2="266.0078"/><text fill="#000000" font-family="sans-serif" font-size="13" font-weight="bold" lengthAdjust="spacing" textLength="7" x="609.5" y="261.1514">4</text><text fill="#000000" font-family="sans-serif" font-size="13" lengthAdjust="spacing" textLength="91" x="620.5" y="261.1514">SELECT user...</text><polygon fill="#A80036" points="613.5,292.3594,603.5,296.3594,613.5,300.3594,609.5,296.3594" style="stroke:#A80036;stroke-width:1.0;"/><line style="stroke:#A80036;stroke-width:1.0;stroke-dasharray:2.0,2.0;" x1="607.5" x2="727.5" y1="296.3594" y2="296.3594"/><text fill="#000000" font-family="sans-serif" font-size="13" font-weight="bold" lengthAdjust="spacing" textLength="7" x="619.5" y="291.5029">5</text><text fill="#000000" font-family="sans-serif" font-size="13" lengthAdjust="spacing" textLength="20" x="630.5" y="291.5029">row</text><polygon fill="#A80036" points="418.5,322.7109,408.5,326.7109,418.5,330.7109,414.5,326.7109" style="stroke:#A80036;stroke-width:1.0;"/><line style="stroke:#A80036;stroke-width:1.0;stroke-dasharray:2.0,2.0;" x1="412.5" x2="601.5" y1="326.7109" y2="326.7109"/><text fill="#000000" font-family="sans-serif" font-size="13" font-weight="bold" lengthAdjust="spacing" textLength="7" x="424.5" y="321.8545">6</text><text fill="#000000" font-family="sans-serif" font-size="13" lengthAdjust="spacing" textLength="91" x="435.5" y="321.8545">Optional&lt;User&gt;</text><polygon fill="#A80036" points="232.5,353.0625,222.5,357.0625,232.5,361.0625,228.5,357.0625" style="stroke:#A80036;stroke-width:1.0;"/><line style="stroke:#A80036;stroke-width:1.0;stroke-dasharray:2.0,2.0;" x1="226.5" x2="406.5" y1="357.0625" y2="357.0625"/><text fill="#000000" font-family="sans-serif" font-size="13" font-weight="bold" lengthAdjust="spacing" textLength="7" x="238.5" y="352.2061">7</text><text fill="#000000" font-family="sans-serif" font-size="13" lengthAdjust="spacing" textLength="91" x="249.5" y="352.2061">Optional&lt;User&gt;</text><path d="M10,372.0625 L71,372.0625 L71,380.0625 L61,390.0625 L10,390.0625 L10,372.0625 " fill="#EEEEEE" style="stroke:#000000;stroke-width:1.0;"/><rect fill="none" height="1072.1406" style="stroke:#000000;stroke-width:2.0;" width="2219.5" x="10" y="372.0625"/><text fill="#000000" font-family="sans-serif" font-size="13" font-weight="bold" lengthAdjust="spacing" textLength="16" x="25" y="386.5576">alt</text><text fill="#000000" font-family="sans-serif" font-size="11" font-weight="bold" lengthAdjust="spacing" textLength="98" x="86" y="385.4814">[credentials valid]</text><polygon fill="#A80036" points="816.5,408.7656,826.5,412.7656,816.5,416.7656,820.5,412.7656" style="stroke:#A80036;stroke-width:1.0;"/><line style="stroke:#A80036;stroke-width:1.0;" x1="221.5" x2="822.5" y1="412.7656" y2="412.7656"/><text fill="#000000" font-family="sans-serif" font-size="13" font-weight="bold" lengthAdjust="spacing" textLength="7" x="228.5" y="407.9092">8</text><text fill="#000000" font-family="sans-serif" font-size="13" lengthAdjust="spacing" textLength="117" x="239.5" y="407.9092">init(user, services...)</text><polygon fill="#A80036" points="1247,439.1172,1257,443.1172,1247,447.1172,1251,443.1172" style="stroke:#A80036;stroke-width:1.0;"/><line style="stroke:#A80036;stroke-width:1.0;" x1="828.5" x2="1253" y1="443.1172" y2="443.1172"/><text fill="#000000" font-family="sans-serif" font-size="13" font-weight="bold" lengthAdjust="spacing" textLength="7" x="835.5" y="438.2607">9</text><text fill="#000000" font-family="sans-serif" font-size="13" lengthAdjust="spacing" textLength="171" x="846.5" y="438.2607">applyForCurrentMonth(userId)</text><polygon fill="#A80036" points="1438,469.4688,1448,473.4688,1438,477.4688,1442,473.4688" style="stroke:#A80036;stroke-width:1.0;"/><line style="stroke:#A80036;stroke-width:1.0;" x1="1259" x2="1444" y1="473.4688" y2="473.4688"/><text fill="#000000" font-family="sans-serif" font-size="13" font-weight="bold" lengthAdjust="spacing" textLength="14" x="1266" y="468.6123">10</text><text fill="#000000" font-family="sans-serif" font-size="13" lengthAdjust="spacing" textLength="149" x="1284" y="468.6123">getMonthlyIncome(userId)</text><polygon fill="#A80036" points="739.5,499.8203,729.5,503.8203,739.5,507.8203,735.5,503.8203" style="stroke:#A80036;stroke-width:1.0;"/><line style="stroke:#A80036;stroke-width:1.0;" x1="733.5" x2="1449" y1="503.8203" y2="503.8203"/><text fill="#000000" font-family="sans-serif" font-size="13" font-weight="bold" lengthAdjust="spacing" textLength="14" x="745.5" y="498.9639">11</text><text fill="#000000" font-family="sans-serif" font-size="13" lengthAdjust="spacing" textLength="161" x="763.5" y="498.9639">SELECT monthly_income...</text><polygon fill="#A80036" points="1438,530.1719,1448,534.1719,1438,538.1719,1442,534.1719" style="stroke:#A80036;stroke-width:1.0;"/><line style="stroke:#A80036;stroke-width:1.0;stroke-dasharray:2.0,2.0;" x1="728.5" x2="1444" y1="534.1719" y2="534.1719"/><text fill="#000000" font-family="sans-serif" font-size="13" font-weight="bold" lengthAdjust="spacing" textLength="14" x="735.5" y="529.3154">12</text><text fill="#000000" font-family="sans-serif" font-size="13" lengthAdjust="spacing" textLength="82" x="753.5" y="529.3154">amount|empty</text><polygon fill="#A80036" points="1270,560.5234,1260,564.5234,1270,568.5234,1266,564.5234" style="stroke:#A80036;stroke-width:1.0;"/><line style="stroke:#A80036;stroke-width:1.0;stroke-dasharray:2.0,2.0;" x1="1264" x2="1449" y1="564.5234" y2="564.5234"/><text fill="#000000" font-family="sans-serif" font-size="13" font-weight="bold" lengthAdjust="spacing" textLength="14" x="1276" y="559.667">13</text><text fill="#000000" font-family="sans-serif" font-size="13" lengthAdjust="spacing" textLength="130" x="1294" y="559.667">Optional&lt;BigDecimal&gt;</text><path d="M672.5,579.5234 L733.5,579.5234 L733.5,587.5234 L723.5,597.5234 L672.5,597.5234 L672.5,579.5234 " fill="#EEEEEE" style="stroke:#000000;stroke-width:1.0;"/><rect fill="none" height="447.2734" style="stroke:#000000;stroke-width:2.0;" width="1230" x="672.5" y="579.5234"/><text fill="#000000" font-family="sans-serif" font-size="13" font-weight="bold" lengthAdjust="spacing" textLength="16" x="687.5" y="594.0186">alt</text><text fill="#000000" font-family="sans-serif" font-size="11" font-weight="bold" lengthAdjust="spacing" textLength="112" x="748.5" y="592.9424">[income configured]</text><polygon fill="#A80036" points="1604.5,616.2266,1614.5,620.2266,1604.5,624.2266,1608.5,620.2266" style="stroke:#A80036;stroke-width:1.0;"/><line style="stroke:#A80036;stroke-width:1.0;" x1="1259" x2="1610.5" y1="620.2266" y2="620.2266"/><text fill="#000000" font-family="sans-serif" font-size="13" font-weight="bold" lengthAdjust="spacing" textLength="14" x="1266" y="615.3701">14</text><text fill="#000000" font-family="sans-serif" font-size="13" lengthAdjust="spacing" textLength="230" x="1284" y="615.3701">findByUserFiltered(userId, monthRange)</text><polygon fill="#A80036" points="739.5,646.5781,729.5,650.5781,739.5,654.5781,735.5,650.5781" style="stroke:#A80036;stroke-width:1.0;"/><line style="stroke:#A80036;stroke-width:1.0;" x1="733.5" x2="1615.5" y1="650.5781" y2="650.5781"/><text fill="#000000" font-family="sans-serif" font-size="13" font-weight="bold" lengthAdjust="spacing" textLength="14" x="745.5" y="645.7217">15</text><text fill="#000000" font-family="sans-serif" font-size="13" lengthAdjust="spacing" textLength="137" x="763.5" y="645.7217">SELECT transactions...</text><polygon fill="#A80036" points="1604.5,676.9297,1614.5,680.9297,1604.5,684.9297,1608.5,680.9297" style="stroke:#A80036;stroke-width:1.0;"/><line style="stroke:#A80036;stroke-width:1.0;stroke-dasharray:2.0,2.0;" x1="728.5" x2="1610.5" y1="680.9297" y2="680.9297"/><text fill="#000000" font-family="sans-serif" font-size="13" font-weight="bold" lengthAdjust="spacing" textLength="14" x="735.5" y="676.0732">16</text><text fill="#000000" font-family="sans-serif" font-size="13" lengthAdjust="spacing" textLength="17" x="753.5" y="676.0732">list</text><polygon fill="#A80036" points="1270,707.2813,1260,711.2813,1270,715.2813,1266,711.2813" style="stroke:#A80036;stroke-width:1.0;"/><line style="stroke:#A80036;stroke-width:1.0;stroke-dasharray:2.0,2.0;" x1="1264" x2="1615.5" y1="711.2813" y2="711.2813"/><text fill="#000000" font-family="sans-serif" font-size="13" font-weight="bold" lengthAdjust="spacing" textLength="14" x="1276" y="706.4248">17</text><text fill="#000000" font-family="sans-serif" font-size="13" lengthAdjust="spacing" textLength="17" x="1294" y="706.4248">list</text><path d="M682.5,726.2813 L743.5,726.2813 L743.5,734.2813 L733.5,744.2813 L682.5,744.2813 L682.5,726.2813 " fill="#EEEEEE" style="stroke:#000000;stroke-width:1.0;"/><rect fill="none" height="109.4063" style="stroke:#000000;stroke-width:2.0;" width="1021" x="682.5" y="726.2813"/><text fill="#000000" font-family="sans-serif" font-size="13" font-weight="bold" lengthAdjust="spacing" textLength="16" x="697.5" y="740.7764">alt</text><text fill="#000000" font-family="sans-serif" font-size="11" font-weight="bold" lengthAdjust="spacing" textLength="157" x="758.5" y="739.7002">[Monthly Income tx missing]</text><polygon fill="#A80036" points="1604.5,762.9844,1614.5,766.9844,1604.5,770.9844,1608.5,766.9844" style="stroke:#A80036;stroke-width:1.0;"/><line style="stroke:#A80036;stroke-width:1.0;" x1="1259" x2="1610.5" y1="766.9844" y2="766.9844"/><text fill="#000000" font-family="sans-serif" font-size="13" font-weight="bold" lengthAdjust="spacing" textLength="14" x="1266" y="762.1279">18</text><text fill="#000000" font-family="sans-serif" font-size="13" lengthAdjust="spacing" textLength="195" x="1284" y="762.1279">save("Monthly Income", INCOME)</text><polygon fill="#A80036" points="739.5,793.3359,729.5,797.3359,739.5,801.3359,735.5,797.3359" style="stroke:#A80036;stroke-width:1.0;"/><line style="stroke:#A80036;stroke-width:1.0;" x1="733.5" x2="1615.5" y1="797.3359" y2="797.3359"/><text fill="#000000" font-family="sans-serif" font-size="13" font-weight="bold" lengthAdjust="spacing" textLength="14" x="745.5" y="792.4795">19</text><text fill="#000000" font-family="sans-serif" font-size="13" lengthAdjust="spacing" textLength="126" x="763.5" y="792.4795">INSERT transaction...</text><polygon fill="#A80036" points="1604.5,823.6875,1614.5,827.6875,1604.5,831.6875,1608.5,827.6875" style="stroke:#A80036;stroke-width:1.0;"/><line style="stroke:#A80036;stroke-width:1.0;stroke-dasharray:2.0,2.0;" x1="728.5" x2="1610.5" y1="827.6875" y2="827.6875"/><text fill="#000000" font-family="sans-serif" font-size="13" font-weight="bold" lengthAdjust="spacing" textLength="14" x="735.5" y="822.8311">20</text><text fill="#000000" font-family="sans-serif" font-size="13" lengthAdjust="spacing" textLength="14" x="753.5" y="822.8311">ok</text><polygon fill="#A80036" points="1781,861.0391,1791,865.0391,1781,869.0391,1785,865.0391" style="stroke:#A80036;stroke-width:1.0;"/><line style="stroke:#A80036;stroke-width:1.0;" x1="1259" x2="1787" y1="865.0391" y2="865.0391"/><text fill="#000000" font-family="sans-serif" font-size="13" font-weight="bold" lengthAdjust="spacing" textLength="14" x="1266" y="860.1826">21</text><text fill="#000000" font-family="sans-serif" font-size="13" lengthAdjust="spacing" textLength="246" x="1284" y="860.1826">findByUserMonthYear(userId, month, year)</text><polygon fill="#A80036" points="739.5,891.3906,729.5,895.3906,739.5,899.3906,735.5,895.3906" style="stroke:#A80036;stroke-width:1.0;"/><line style="stroke:#A80036;stroke-width:1.0;" x1="733.5" x2="1792" y1="895.3906" y2="895.3906"/><text fill="#000000" font-family="sans-serif" font-size="13" font-weight="bold" lengthAdjust="spacing" textLength="14" x="745.5" y="890.5342">22</text><text fill="#000000" font-family="sans-serif" font-size="13" lengthAdjust="spacing" textLength="164" x="763.5" y="890.5342">SELECT monthly_balance...</text><polygon fill="#A80036" points="1781,921.7422,1791,925.7422,1781,929.7422,1785,925.7422" style="stroke:#A80036;stroke-width:1.0;"/><line style="stroke:#A80036;stroke-width:1.0;stroke-dasharray:2.0,2.0;" x1="728.5" x2="1787" y1="925.7422" y2="925.7422"/><text fill="#000000" font-family="sans-serif" font-size="13" font-weight="bold" lengthAdjust="spacing" textLength="14" x="735.5" y="920.8857">23</text><text fill="#000000" font-family="sans-serif" font-size="13" lengthAdjust="spacing" textLength="59" x="753.5" y="920.8857">row|empty</text><path d="M682.5,940.7422 L743.5,940.7422 L743.5,948.7422 L733.5,958.7422 L682.5,958.7422 L682.5,940.7422 " fill="#EEEEEE" style="stroke:#000000;stroke-width:1.0;"/><rect fill="none" height="79.0547" style="stroke:#000000;stroke-width:2.0;" width="1210" x="682.5" y="940.7422"/><text fill="#000000" font-family="sans-serif" font-size="13" font-weight="bold" lengthAdjust="spacing" textLength="16" x="697.5" y="955.2373">alt</text><text fill="#000000" font-family="sans-serif" font-size="11" font-weight="bold" lengthAdjust="spacing" textLength="123" x="758.5" y="954.1611">[monthly cap missing]</text><polygon fill="#A80036" points="1781,977.4453,1791,981.4453,1781,985.4453,1785,981.4453" style="stroke:#A80036;stroke-width:1.0;"/><line style="stroke:#A80036;stroke-width:1.0;" x1="1259" x2="1787" y1="981.4453" y2="981.4453"/><text fill="#000000" font-family="sans-serif" font-size="13" font-weight="bold" lengthAdjust="spacing" textLength="14" x="1266" y="976.5889">24</text><text fill="#000000" font-family="sans-serif" font-size="13" lengthAdjust="spacing" textLength="252" x="1284" y="976.5889">saveOrUpdate(userId, amount, month, year)</text><polygon fill="#A80036" points="739.5,1007.7969,729.5,1011.7969,739.5,1015.7969,735.5,1011.7969" style="stroke:#A80036;stroke-width:1.0;"/><line style="stroke:#A80036;stroke-width:1.0;" x1="733.5" x2="1792" y1="1011.7969" y2="1011.7969"/><text fill="#000000" font-family="sans-serif" font-size="13" font-weight="bold" lengthAdjust="spacing" textLength="14" x="745.5" y="1006.9404">25</text><text fill="#000000" font-family="sans-serif" font-size="13" lengthAdjust="spacing" textLength="166" x="763.5" y="1006.9404">UPSERT monthly_balance...</text><polygon fill="#A80036" points="1089.5,1052.1484,1099.5,1056.1484,1089.5,1060.1484,1093.5,1056.1484" style="stroke:#A80036;stroke-width:1.0;"/><line style="stroke:#A80036;stroke-width:1.0;" x1="828.5" x2="1095.5" y1="1056.1484" y2="1056.1484"/><text fill="#000000" font-family="sans-serif" font-size="13" font-weight="bold" lengthAdjust="spacing" textLength="14" x="835.5" y="1051.292">26</text><text fill="#000000" font-family="sans-serif" font-size="13" lengthAdjust="spacing" textLength="231" x="853.5" y="1051.292">init(dashboardService, incomeSvc, user)</text><polygon fill="#A80036" points="1942,1082.5,1952,1086.5,1942,1090.5,1946,1086.5" style="stroke:#A80036;stroke-width:1.0;"/><line style="stroke:#A80036;stroke-width:1.0;" x1="1101.5" x2="1948" y1="1086.5" y2="1086.5"/><text fill="#000000" font-family="sans-serif" font-size="13" font-weight="bold" lengthAdjust="spacing" textLength="14" x="1108.5" y="1081.6436">27</text><text fill="#000000" font-family="sans-serif" font-size="13" lengthAdjust="spacing" textLength="116" x="1126.5" y="1081.6436">getSnapshot(userId)</text><polygon fill="#A80036" points="1627.5,1112.8516,1617.5,1116.8516,1627.5,1120.8516,1623.5,1116.8516" style="stroke:#A80036;stroke-width:1.0;"/><line style="stroke:#A80036;stroke-width:1.0;" x1="1621.5" x2="1953" y1="1116.8516" y2="1116.8516"/><text fill="#000000" font-family="sans-serif" font-size="13" font-weight="bold" lengthAdjust="spacing" textLength="14" x="1633.5" y="1111.9951">28</text><text fill="#000000" font-family="sans-serif" font-size="13" lengthAdjust="spacing" textLength="230" x="1651.5" y="1111.9951">findByUserFiltered(userId, monthRange)</text><polygon fill="#A80036" points="739.5,1143.2031,729.5,1147.2031,739.5,1151.2031,735.5,1147.2031" style="stroke:#A80036;stroke-width:1.0;"/><line style="stroke:#A80036;stroke-width:1.0;" x1="733.5" x2="1615.5" y1="1147.2031" y2="1147.2031"/><text fill="#000000" font-family="sans-serif" font-size="13" font-weight="bold" lengthAdjust="spacing" textLength="14" x="745.5" y="1142.3467">29</text><text fill="#000000" font-family="sans-serif" font-size="13" lengthAdjust="spacing" textLength="84" x="763.5" y="1142.3467">SELECT txs...</text><polygon fill="#A80036" points="1604.5,1173.5547,1614.5,1177.5547,1604.5,1181.5547,1608.5,1177.5547" style="stroke:#A80036;stroke-width:1.0;"/><line style="stroke:#A80036;stroke-width:1.0;stroke-dasharray:2.0,2.0;" x1="728.5" x2="1610.5" y1="1177.5547" y2="1177.5547"/><text fill="#000000" font-family="sans-serif" font-size="13" font-weight="bold" lengthAdjust="spacing" textLength="14" x="735.5" y="1172.6982">30</text><text fill="#000000" font-family="sans-serif" font-size="13" lengthAdjust="spacing" textLength="17" x="753.5" y="1172.6982">list</text><polygon fill="#A80036" points="1942,1203.9063,1952,1207.9063,1942,1211.9063,1946,1207.9063" style="stroke:#A80036;stroke-width:1.0;"/><line style="stroke:#A80036;stroke-width:1.0;stroke-dasharray:2.0,2.0;" x1="1616.5" x2="1948" y1="1207.9063" y2="1207.9063"/><text fill="#000000" font-family="sans-serif" font-size="13" font-weight="bold" lengthAdjust="spacing" textLength="14" x="1623.5" y="1203.0498">31</text><text fill="#000000" font-family="sans-serif" font-size="13" lengthAdjust="spacing" textLength="17" x="1641.5" y="1203.0498">list</text><polygon fill="#A80036" points="2153,1234.2578,2163,1238.2578,2153,1242.2578,2157,1238.2578" style="stroke:#A80036;stroke-width:1.0;"/><line style="stroke:#A80036;stroke-width:1.0;" x1="1954" x2="2159" y1="1238.2578" y2="1238.2578"/><text fill="#000000" font-family="sans-serif" font-size="13" font-weight="bold" lengthAdjust="spacing" textLength="14" x="1961" y="1233.4014">32</text><text fill="#000000" font-family="sans-serif" font-size="13" lengthAdjust="spacing" textLength="169" x="1979" y="1233.4014">getTotalSavedAmount(userId)</text><polygon fill="#A80036" points="739.5,1264.6094,729.5,1268.6094,739.5,1272.6094,735.5,1268.6094" style="stroke:#A80036;stroke-width:1.0;"/><line style="stroke:#A80036;stroke-width:1.0;" x1="733.5" x2="2164" y1="1268.6094" y2="1268.6094"/><text fill="#000000" font-family="sans-serif" font-size="13" font-weight="bold" lengthAdjust="spacing" textLength="14" x="745.5" y="1263.7529">33</text><text fill="#000000" font-family="sans-serif" font-size="13" lengthAdjust="spacing" textLength="174" x="763.5" y="1263.7529">SELECT SUM(saved_amount)</text><polygon fill="#A80036" points="2153,1294.9609,2163,1298.9609,2153,1302.9609,2157,1298.9609" style="stroke:#A80036;stroke-width:1.0;"/><line style="stroke:#A80036;stroke-width:1.0;stroke-dasharray:2.0,2.0;" x1="728.5" x2="2159" y1="1298.9609" y2="1298.9609"/><text fill="#000000" font-family="sans-serif" font-size="13" font-weight="bold" lengthAdjust="spacing" textLength="14" x="735.5" y="1294.1045">34</text><text fill="#000000" font-family="sans-serif" font-size="13" lengthAdjust="spacing" textLength="25" x="753.5" y="1294.1045">total</text><polygon fill="#A80036" points="1965,1325.3125,1955,1329.3125,1965,1333.3125,1961,1329.3125" style="stroke:#A80036;stroke-width:1.0;"/><line style="stroke:#A80036;stroke-width:1.0;stroke-dasharray:2.0,2.0;" x1="1959" x2="2164" y1="1329.3125" y2="1329.3125"/><text fill="#000000" font-family="sans-serif" font-size="13" font-weight="bold" lengthAdjust="spacing" textLength="14" x="1971" y="1324.4561">35</text><text fill="#000000" font-family="sans-serif" font-size="13" lengthAdjust="spacing" textLength="25" x="1989" y="1324.4561">total</text><polygon fill="#A80036" points="1112.5,1355.6641,1102.5,1359.6641,1112.5,1363.6641,1108.5,1359.6641" style="stroke:#A80036;stroke-width:1.0;"/><line style="stroke:#A80036;stroke-width:1.0;stroke-dasharray:2.0,2.0;" x1="1106.5" x2="1953" y1="1359.6641" y2="1359.6641"/><text fill="#000000" font-family="sans-serif" font-size="13" font-weight="bold" lengthAdjust="spacing" textLength="14" x="1118.5" y="1354.8076">36</text><text fill="#000000" font-family="sans-serif" font-size="13" lengthAdjust="spacing" textLength="117" x="1136.5" y="1354.8076">DashboardSnapshot</text><polygon fill="#A80036" points="48.5,1386.0156,38.5,1390.0156,48.5,1394.0156,44.5,1390.0156" style="stroke:#A80036;stroke-width:1.0;"/><line style="stroke:#A80036;stroke-width:1.0;stroke-dasharray:2.0,2.0;" x1="42.5" x2="1100.5" y1="1390.0156" y2="1390.0156"/><text fill="#000000" font-family="sans-serif" font-size="13" font-weight="bold" lengthAdjust="spacing" textLength="14" x="54.5" y="1385.1592">37</text><text fill="#000000" font-family="sans-serif" font-size="13" lengthAdjust="spacing" textLength="154" x="72.5" y="1385.1592">UI updated (charts + KPIs)</text><line style="stroke:#000000;stroke-width:1.0;stroke-dasharray:2.0,2.0;" x1="10" x2="2229.5" y1="1399.0156" y2="1399.0156"/><text fill="#000000" font-family="sans-serif" font-size="11" font-weight="bold" lengthAdjust="spacing" textLength="108" x="15" y="1410.4346">[credentials invalid]</text><polygon fill="#A80036" points="48.5,1432.2031,38.5,1436.2031,48.5,1440.2031,44.5,1436.2031" style="stroke:#A80036;stroke-width:1.0;"/><line style="stroke:#A80036;stroke-width:1.0;stroke-dasharray:2.0,2.0;" x1="42.5" x2="220.5" y1="1436.2031" y2="1436.2031"/><text fill="#000000" font-family="sans-serif" font-size="13" font-weight="bold" lengthAdjust="spacing" textLength="14" x="54.5" y="1431.3467">38</text><text fill="#000000" font-family="sans-serif" font-size="13" lengthAdjust="spacing" textLength="60" x="72.5" y="1431.3467">show error</text><!--MD5=[4395eea6b3f40c781ecaf5736edf7d6f]
@startuml SequenceLoginToDashboard


title Sequence - Login -> Main Screen -> Dashboard Snapshot
autonumber

actor User as user
boundary "Login UI\n(LoginController)" as login
control "AuthService" as auth
entity "IUserRepo\n(JdbcUserRepo)" as userRepo
database "SQLite DB" as db

boundary "Main UI\n(MainController)" as main
boundary "Dashboard Tab\n(DashboardController)" as dashCtrl
control "MonthlyIncomeService" as incomeSvc
entity "IUserSettingsRepo\n(JdbcUserSettingsRepo)" as settingsRepo
entity "ITransactionRepo\n(JdbcTransactionRepo)" as txRepo
entity "IMonthlyBalanceRepo\n(JdbcMonthlyBalanceRepo)" as balRepo
control "DashboardService" as dashSvc
entity "IGoalRepo\n(JdbcGoalRepo)" as goalRepo

user -> login : enter username/password\nclick Login
login -> auth : login(username,password)
auth -> userRepo : findByUsername(username)
userRepo -> db : SELECT user...
db - -> userRepo : row
userRepo - -> auth : Optional<User>
auth - -> login : Optional<User>

alt credentials valid
  login -> main : init(user, services...)
  main -> incomeSvc : applyForCurrentMonth(userId)

  incomeSvc -> settingsRepo : getMonthlyIncome(userId)
  settingsRepo -> db : SELECT monthly_income...
  db - -> settingsRepo : amount|empty
  settingsRepo - -> incomeSvc : Optional<BigDecimal>

  alt income configured
    incomeSvc -> txRepo : findByUserFiltered(userId, monthRange)
    txRepo -> db : SELECT transactions...
    db - -> txRepo : list
    txRepo - -> incomeSvc : list

    alt Monthly Income tx missing
      incomeSvc -> txRepo : save("Monthly Income", INCOME)
      txRepo -> db : INSERT transaction...
      db - -> txRepo : ok
    end

    incomeSvc -> balRepo : findByUserMonthYear(userId, month, year)
    balRepo -> db : SELECT monthly_balance...
    db - -> balRepo : row|empty

    alt monthly cap missing
      incomeSvc -> balRepo : saveOrUpdate(userId, amount, month, year)
      balRepo -> db : UPSERT monthly_balance...
    end
  end

  main -> dashCtrl : init(dashboardService, incomeSvc, user)
  dashCtrl -> dashSvc : getSnapshot(userId)

  dashSvc -> txRepo : findByUserFiltered(userId, monthRange)
  txRepo -> db : SELECT txs...
  db - -> txRepo : list
  txRepo - -> dashSvc : list

  dashSvc -> goalRepo : getTotalSavedAmount(userId)
  goalRepo -> db : SELECT SUM(saved_amount)
  db - -> goalRepo : total
  goalRepo - -> dashSvc : total

  dashSvc - -> dashCtrl : DashboardSnapshot
  dashCtrl - -> user : UI updated (charts + KPIs)

else credentials invalid
  login - -> user : show error
end

@enduml

PlantUML version 1.2021.00(Sun Jan 10 12:25:05 EET 2021)
(MIT source distribution)
Java Runtime: OpenJDK Runtime Environment
JVM: OpenJDK 32-Bit Client VM
Default Encoding: Cp1256
Language: en
Country: US
--></g></svg>